<?xml version="1.0" standalone="no"?>
<!DOCTYPE svg PUBLIC "-//W3C//DTD SVG 1.1//EN" "http://www.w3.org/Graphics/SVG/1.1/DTD/svg11.dtd" >
<svg>
<metadata>
Created by FontForge 20090914 at Tue Nov 10 17:30:46 2020
 By www-data
&#194;&#169; 2015 Apple Inc. All rights reserved.
</metadata>
<defs>
<font id="SFUIText-MediumItalic" horiz-adv-x="0" >
  <font-face 
    font-family="SF UI Text"
    font-weight="373"
    font-style="italic"
    font-stretch="normal"
    units-per-em="2048"
    panose-1="0 0 4 0 0 0 0 0 0 0"
    ascent="1638"
    descent="-410"
    x-height="1089"
    cap-height="1443"
    bbox="-557 -572 2955 2197"
    underline-thickness="50"
    underline-position="-125"
    slope="-12"
    unicode-range="U+0020-U+FB02"
  />
<missing-glyph horiz-adv-x="1293" 
d="M55 0l290 1365h1053l-290 -1365h-1053zM514 303c0 -29.333 10.3301 -53.333 30.9971 -72s47.334 -28 80.001 -28c34.667 0 62.834 9.5 84.501 28.5s32.5 43.833 32.5 74.5s-10.5 55.5 -31.5 74.5s-48.5 28.5 -82.5 28.5c-33.333 0 -60.666 -9.83301 -81.999 -29.5
s-32 -45.167 -32 -76.5zM468.997 908l151.996 0.00390625c6 38 22.5 68 49.5 90s60.5 33 100.5 33c41.333 0 75 -10.333 101 -31s39 -47.334 39 -80.001c0 -24.667 -9.5 -46.334 -28.5 -65.001s-59.5 -45.667 -121.5 -81c-62 -34.667 -105.667 -67.834 -131 -99.501
s-41.666 -72.167 -48.999 -121.5l-6 -42h150l7 39c4.66699 28.667 15.834 51.5 33.501 68.5s57.167 43.167 118.5 78.5c66.667 37.333 114.834 74.166 144.501 110.499s44.5 76.833 44.5 121.5c0 70.667 -27.167 127.5 -81.5 170.5s-126.166 64.5 -215.499 64.5
c-88 0 -159.667 -23 -215 -69s-86 -108.333 -92 -187z" />
    <glyph glyph-name=".notdef" horiz-adv-x="1293" 
d="M55 0l290 1365h1053l-290 -1365h-1053zM514 303c0 -29.333 10.3301 -53.333 30.9971 -72s47.334 -28 80.001 -28c34.667 0 62.834 9.5 84.501 28.5s32.5 43.833 32.5 74.5s-10.5 55.5 -31.5 74.5s-48.5 28.5 -82.5 28.5c-33.333 0 -60.666 -9.83301 -81.999 -29.5
s-32 -45.167 -32 -76.5zM468.997 908l151.996 0.00390625c6 38 22.5 68 49.5 90s60.5 33 100.5 33c41.333 0 75 -10.333 101 -31s39 -47.334 39 -80.001c0 -24.667 -9.5 -46.334 -28.5 -65.001s-59.5 -45.667 -121.5 -81c-62 -34.667 -105.667 -67.834 -131 -99.501
s-41.666 -72.167 -48.999 -121.5l-6 -42h150l7 39c4.66699 28.667 15.834 51.5 33.501 68.5s57.167 43.167 118.5 78.5c66.667 37.333 114.834 74.166 144.501 110.499s44.5 76.833 44.5 121.5c0 70.667 -27.167 127.5 -81.5 170.5s-126.166 64.5 -215.499 64.5
c-88 0 -159.667 -23 -215 -69s-86 -108.333 -92 -187z" />
    <glyph glyph-name="space" unicode=" " horiz-adv-x="560" 
 />
    <glyph glyph-name="exclam" unicode="!" horiz-adv-x="669" 
d="M455 1444h243l-226 -966h-202zM296 -23c-45.333 0 -82.333 14.3311 -111 42.998s-43 64.334 -43 107.001c0 44.667 14.333 81.834 43 111.501s65.667 44.5 111 44.5s82.333 -14.5 111 -43.5s43 -64.833 43 -107.5c0 -44.667 -14.333 -81.667 -43 -111
s-65.667 -44 -111 -44z" />
    <glyph glyph-name="quotedbl" unicode="&#x22;" horiz-adv-x="939" 
d="M483 872h-192l120 571h192zM891 872h-193l120 571h193z" />
    <glyph glyph-name="numbersign" unicode="#" horiz-adv-x="1319" 
d="M1339 882h-210l-131 -304h209l-69 -178h-210l-167 -400h-179l168 400h-274l-168 -400h-178l167 400h-208l70 178h209l130 304h-207l68 177h209l162 384h178l-161 -384h273l162 384h180l-163 -384h210zM673 891l-136 -324h285l138 324h-287z" />
    <glyph glyph-name="dollar" unicode="$" horiz-adv-x="1360" 
d="M813 603l-92 -433c86.667 2 155.167 23.667 205.5 65s75.5 94 75.5 158c0 47.333 -15 87 -45 119s-78 62.333 -144 91zM734 869l85.001 403c-76.667 -1.33301 -139.334 -21.666 -188.001 -60.999s-73 -88.333 -73 -147c0 -44 14.5 -81.333 43.5 -112
s73.167 -58.334 132.5 -83.001zM859.001 820l28.0029 -11.001c114 -44.667 199.833 -98.167 257.5 -160.5s86.5 -138.166 86.5 -227.499c0 -134.667 -49.833 -242.5 -149.5 -323.5s-228.5 -121.5 -386.5 -121.5h-15l-25 -116h-136l28 132
c-110.667 24.667 -201.334 73.834 -272.001 147.501s-108.334 161.167 -113.001 262.5h218c8 -54.667 30.167 -100.5 66.5 -137.5s83.5 -63.5 141.5 -79.5l99 467l-53 20c-98 37.333 -173.333 88 -226 152s-79 138 -79 222c0 123.333 47.5 224.333 142.5 303
s219.833 118 374.5 118h15l27 128h136l-31 -146c102 -25.333 184.167 -74.333 246.5 -147s94.166 -156 95.499 -250h-215c-7.33301 50 -25.5 92.167 -54.5 126.5s-67.167 59.166 -114.5 74.499z" />
    <glyph glyph-name="percent" unicode="%" horiz-adv-x="1680" 
d="M610 1315c-46.667 0 -87.001 -24.833 -121.001 -74.5s-51 -108.167 -51 -175.5c0 -45.333 10 -81.666 30 -108.999s47 -41 81 -41c46 0 85.667 25 119 75s50 109.333 50 178c0 45.333 -9.66699 81.166 -29 107.499s-45.666 39.5 -78.999 39.5zM380.999 0h-234l718 756
l626 687h233l-730 -768zM539.999 758c-85.333 0 -153.833 28 -205.5 84s-77.5 130.333 -77.5 223c0 113.333 34.667 209.5 104 288.5s154.333 118.5 255 118.5c85.333 0 153.833 -28 205.5 -84s77.5 -130.333 77.5 -223c0 -112.667 -35 -208.667 -105 -288
s-154.667 -119 -254 -119zM1326 529c-46.667 0 -86.999 -24.833 -120.999 -74.5s-51 -108.167 -51 -175.5c0 -46 10.167 -82.667 30.5 -110s47.166 -41 80.499 -41c46 0 85.833 25 119.5 75s50.5 109.333 50.5 178c0 46 -9.66699 82.167 -29 108.5s-46 39.5 -80 39.5z
M1257 -29c-86 0 -154.833 28 -206.5 84s-77.5 130.667 -77.5 224c0 113.333 34.833 209.333 104.5 288s154.5 118 254.5 118c85.333 0 153.833 -28 205.5 -84s77.5 -130.333 77.5 -223c0 -112.667 -34.833 -208.667 -104.5 -288s-154.167 -119 -253.5 -119z" />
    <glyph glyph-name="ampersand" unicode="&#x26;" horiz-adv-x="1482" 
d="M626 1104c0 -54.667 33 -125.999 99 -213.999c94 29.333 163.833 67.666 209.5 114.999s68.5 97.666 68.5 150.999c0 44.667 -16 80.334 -48 107.001s-73 40 -123 40c-56.667 0 -105.167 -19.5 -145.5 -58.5s-60.5 -85.833 -60.5 -140.5zM617 153.001
c123.333 0 227.334 28.666 312.001 85.999l-300 443c-32 -10.667 -50 -17 -54 -19c-82.667 -30 -145.834 -68.5 -189.501 -115.5s-65.5 -99.5 -65.5 -157.5c0 -69.333 27 -126.166 81 -170.499s126 -66.5 216 -66.5zM1082 0l-58.001 86.999
c-118.667 -76 -259 -114 -421 -114c-91.333 0 -174.833 17.333 -250.5 52s-135.5 82.5 -179.5 143.5s-66 128.833 -66 203.5c0 189.333 122.667 332 368 428l66 27c-77.333 112 -116 208.667 -116 290c0 99.333 39.333 183.333 118 252s176.334 103 293.001 103
c105.333 0 192.666 -28 261.999 -84s104 -126.667 104 -212c0 -87.333 -32.167 -167.166 -96.5 -239.499s-161.833 -131.5 -292.5 -177.5l265 -377c74.667 89.333 117.334 201 128.001 335l4 45h195l-4 -51c-17.333 -192 -90 -356 -218 -492l145 -219h-246z" />
    <glyph glyph-name="quotesingle" unicode="'" horiz-adv-x="531" 
d="M483 872h-192l120 571h192z" />
    <glyph glyph-name="parenleft" unicode="(" horiz-adv-x="755" 
d="M498 -277l-195 -0.00292969c-33.333 70.667 -60.833 161.667 -82.5 273s-32.5 218.333 -32.5 321c0 210.667 39.833 415.334 119.5 614.001s191.167 369.334 334.5 512.001h234c-148 -149.333 -263 -322.666 -345 -519.999s-123 -403.666 -123 -618.999
c0 -204.667 30 -398.334 90 -581.001z" />
    <glyph glyph-name="parenright" unicode=")" horiz-adv-x="754" 
d="M366 1443l195 0.00292969c34 -70 61.667 -160.667 83 -272s32 -218.666 32 -321.999c0 -210.667 -39.833 -415.334 -119.5 -614.001s-191.167 -369.334 -334.5 -512.001h-233c147.333 149.333 262 322.666 344 519.999s123 403.666 123 618.999
c0 203.333 -30 397 -90 581z" />
    <glyph glyph-name="asterisk" unicode="*" horiz-adv-x="1032" 
d="M928 711l-223 205l-42 -311l-165 9l91 314l-299 -159l-52 161l315 107l-257 158l115 145l221 -208l44 316l165 -9l-93 -318l300 160l52 -160l-314 -106l256 -159z" />
    <glyph glyph-name="plus" unicode="+" horiz-adv-x="1359" 
d="M813 484l-91 -424h-191l91 424h-423l40 196h421l91 423h191l-90 -423h426l-41 -196h-424z" />
    <glyph glyph-name="comma" unicode="," horiz-adv-x="662" 
d="M224 -376h-180l215 598h233z" />
    <glyph glyph-name="hyphen" unicode="-" horiz-adv-x="976" 
d="M853 476h-657l43 211h656z" />
    <glyph glyph-name="period" unicode="." horiz-adv-x="645" 
d="M264 -17c-41.333 0 -76.167 14.334 -104.5 43.001s-42.5 63 -42.5 103c0 42.667 14 78.667 42 108s63 44 105 44s77 -14.333 105 -43s42 -63.334 42 -104.001c0 -42.667 -14 -78.5 -42 -107.5s-63 -43.5 -105 -43.5z" />
    <glyph glyph-name="slash" unicode="/" horiz-adv-x="734" 
d="M116 -309h-194l804 1752h197z" />
    <glyph glyph-name="zero" unicode="0" horiz-adv-x="1330" 
d="M651 -35c-139.333 0 -250 48.4971 -332 145.497s-123 226.833 -123 389.5c0 184 30 351 90 501s141.167 267 243.5 351s214.833 126 337.5 126c139.333 0 250 -48.667 332 -146s123 -227.666 123 -390.999c0 -138.667 -17.5 -268.667 -52.5 -390
s-82.5 -224.666 -142.5 -309.999s-131.167 -152.666 -213.5 -201.999s-169.833 -74 -262.5 -74zM420 493.997c0 -104 21.3301 -185.333 63.9971 -244s102.334 -88 179.001 -88s148.5 35.5 215.5 106.5s120.333 167.167 160 288.5s59.5 251.666 59.5 390.999
c0 103.333 -21.167 184.5 -63.5 243.5s-101.166 88.5 -176.499 88.5c-77.333 0 -149.666 -35.667 -216.999 -107s-121 -167.666 -161 -288.999s-60 -251.333 -60 -390z" />
    <glyph glyph-name="one" unicode="1" horiz-adv-x="989" 
d="M437 0l254 1184h-17l-417 -253l50 244l437 268h224l-307 -1443h-224z" />
    <glyph glyph-name="two" unicode="2" horiz-adv-x="1266" 
d="M294 1047c13.333 126.667 68.334 230.171 165.001 310.504s214.667 120.5 354 120.5c129.333 0 237 -35.833 323 -107.5s129 -161.834 129 -270.501c0 -84.667 -28.667 -165.167 -86 -241.5s-168 -183.833 -332 -322.5l-387 -319l-4 -17h676l-40 -200h-998l35 176
l594 503c130.667 111.333 216 192.166 256 242.499s60 102.166 60 155.499c0 60 -22.833 109.333 -68.5 148s-104.167 58 -175.5 58c-72.667 0 -135.334 -21.333 -188.001 -64s-85.667 -99.334 -99 -170.001v-3c-10.667 0 -45 0.166992 -103 0.5s-95 0.5 -111 0.5z" />
    <glyph glyph-name="three" unicode="3" horiz-adv-x="1314" 
d="M547 649l37.0029 186.001h203c83.333 0 152.833 24 208.5 72s83.5 108 83.5 180c0 58.667 -23.333 106.167 -70 142.5s-107.667 54.5 -183 54.5c-65.333 0 -124.333 -18.667 -177 -56s-88.334 -85.666 -107.001 -144.999h-214c25.333 119.333 85 215 179 287
s207 108 339 108s241.333 -34.5 328 -103.5s130 -155.833 130 -260.5c0 -94.667 -30.833 -176.334 -92.5 -245.001s-142.167 -111.334 -241.5 -128.001l-3 -17c80 -17.333 141.5 -51.333 184.5 -102s64.5 -114.334 64.5 -191.001c0 -136.667 -52 -248.5 -156 -335.5
s-237.333 -130.5 -400 -130.5c-144.667 0 -264.834 38 -360.501 114s-143.834 171.333 -144.501 286c0 12.667 1 27.334 3 44.001h213v-6c-2 -70 24.833 -127.5 80.5 -172.5s128.167 -67.5 217.5 -67.5c96.667 0 174.167 24.833 232.5 74.5s87.5 116.167 87.5 199.5
c0 62.667 -26.5 113.667 -79.5 153s-121.5 59 -205.5 59h-157z" />
    <glyph glyph-name="four" unicode="4" horiz-adv-x="1352" 
d="M756 0l61 279.001h-706l36 218c154.667 203.333 421 518.666 799 945.999h333l-206 -964h199l-40 -200h-199l-61 -279h-216zM369 488.001l-2 -13.999h492l166 772h-13c-250.667 -278.667 -465 -531.334 -643 -758.001z" />
    <glyph glyph-name="five" unicode="5" horiz-adv-x="1301" 
d="M667 -35c-140 0 -257.166 39.002 -351.499 117.002s-141.5 174.667 -141.5 290c0 8 0.666992 18.667 2 32h214v-5c0.666992 -70.667 27.5 -127.834 80.5 -171.501s121.833 -65.5 206.5 -65.5c98 0 177.667 32.333 239 97s92 147 92 247
c0 79.333 -25.667 142.833 -77 190.5s-116.666 71.5 -195.999 71.5c-54.667 0 -105.834 -10.833 -153.501 -32.5s-87.5 -50.834 -119.5 -87.501h-213l243 795h833l-42 -200h-649l-125 -398l16 -2c75.333 70 168.333 105 279 105c119.333 0 220.166 -39.333 302.499 -118
s123.5 -177.667 123.5 -297c0 -166.667 -51.5 -303 -154.5 -409s-239.167 -159 -408.5 -159z" />
    <glyph glyph-name="six" unicode="6" horiz-adv-x="1341" 
d="M1264 531c0 -104.667 -25.001 -200.33 -75.001 -286.997s-118.5 -154.834 -205.5 -204.501s-183.167 -74.5 -288.5 -74.5c-154 0 -275.833 49.167 -365.5 147.5s-134.5 231.833 -134.5 400.5c0 122.667 15.5 241 46.5 355s74.833 216 131.5 306
c61.333 98 136.5 173.167 225.5 225.5s186.5 78.5 292.5 78.5c133.333 0 244.333 -38.5 333 -115.5s135.334 -175.5 140.001 -295.5h-225c-7.33301 65.333 -34.666 117.166 -81.999 155.499s-108 57.5 -182 57.5c-104 0 -193.833 -45.167 -269.5 -135.5
s-130.5 -217.5 -164.5 -381.5l17 -1c44.667 59.333 99.667 105.166 165 137.499s135.666 48.5 210.999 48.5c126 0 229.167 -39 309.5 -117s120.5 -178 120.5 -300zM768.999 763.004c-96.667 0 -178.668 -32.667 -246.001 -98s-101 -145 -101 -239
c0 -78.667 25.833 -142.334 77.5 -191.001s119.5 -73 203.5 -73c94 0 173.5 33.333 238.5 100s97.5 148.334 97.5 245.001c0 75.333 -25.167 136.833 -75.5 184.5s-115.166 71.5 -194.499 71.5z" />
    <glyph glyph-name="seven" unicode="7" horiz-adv-x="1193" 
d="M137 0l902 1227l3 17h-725l41 199h958l-41 -203l-894 -1240h-244z" />
    <glyph glyph-name="eight" unicode="8" horiz-adv-x="1347" 
d="M1239 421c0 -132.667 -53.668 -241.835 -161.001 -327.502s-243.666 -128.5 -408.999 -128.5c-154 0 -280.333 36.333 -379 109s-148 166.334 -148 281.001c0 108.667 36.667 202.334 110 281.001s167.333 125 282 139l4 17c-58.667 26 -104.5 63 -137.5 111
s-49.5 100.667 -49.5 158c0 120 48.5 219.5 145.5 298.5s218.833 118.5 365.5 118.5c131.333 0 242 -34.5 332 -103.5s135 -154.167 135 -255.5c0 -93.333 -29.667 -173.833 -89 -241.5s-137.333 -110.167 -234 -127.5l-4 -17c74 -27.333 132 -68.5 174 -123.5
s63 -117.833 63 -188.5zM708.999 661.999c-96 0 -175.333 -26.5 -238 -79.5s-94 -119.833 -94 -200.5c0 -70.667 27.167 -126.667 81.5 -168s127.833 -62 220.5 -62c96 0 175.333 26.167 238 78.5s94 118.833 94 199.5c0 68.667 -28 124.5 -84 167.5
s-128.667 64.5 -218 64.5zM567.999 1041c0 -59.333 23.332 -107.501 69.999 -144.501s107.334 -55.5 182.001 -55.5c81.333 0 149 24 203 72s81 108.333 81 181c0 58.667 -23.5 106.334 -70.5 143.001s-108.167 55 -183.5 55c-82 0 -149.5 -23.5 -202.5 -70.5
s-79.5 -107.167 -79.5 -180.5z" />
    <glyph glyph-name="nine" unicode="9" horiz-adv-x="1341" 
d="M749 679c96 0 177.668 32.667 245.001 98s101 145.333 101 240c0 78.667 -25.667 142 -77 190s-119.333 72 -204 72c-94 0 -173.333 -33.167 -238 -99.5s-97 -147.833 -97 -244.5c0 -75.333 25.167 -136.833 75.5 -184.5s115.166 -71.5 194.499 -71.5zM253.001 913
c0 105.333 24.833 201.168 74.5 287.501s118.167 154.166 205.5 203.499s184.333 74 291 74c154 0 275.5 -49 364.5 -147s133.5 -232 133.5 -402c0 -120.667 -15.5 -238.5 -46.5 -353.5s-74.833 -217.5 -131.5 -307.5c-61.333 -98 -136.5 -173 -225.5 -225
s-186.167 -78 -291.5 -78c-132 0 -242.667 37.833 -332 113.5s-136.666 172.5 -141.999 290.5h225c6 -62.667 33 -112.667 81 -150s109.667 -56 185 -56c104.667 0 195 45 271 135s130.667 216.667 164 380l-17 2c-44.667 -60 -99.334 -106 -164.001 -138s-135 -48 -211 -48
c-126.667 0 -230.667 39.167 -312 117.5s-122 178.833 -122 301.5z" />
    <glyph glyph-name="colon" unicode=":" horiz-adv-x="645" 
d="M264 -17c-41.333 0 -76.167 14.334 -104.5 43.001s-42.5 63 -42.5 103c0 42.667 14 78.667 42 108s63 44 105 44s77 -14.333 105 -43s42 -63.334 42 -104.001c0 -42.667 -14 -78.5 -42 -107.5s-63 -43.5 -105 -43.5zM422.999 738.001
c-41.333 0 -76.167 14.501 -104.5 43.501s-42.5 63.5 -42.5 103.5c0 42 14 77.667 42 107s63 44 105 44s77 -14.333 105 -43s42 -63.334 42 -104.001c0 -42 -14 -77.667 -42 -107s-63 -44 -105 -44z" />
    <glyph glyph-name="semicolon" unicode=";" horiz-adv-x="645" 
d="M160 -376h-180l215 598h233zM423 738c-41.333 0 -76.167 14.501 -104.5 43.501s-42.5 63.5 -42.5 103.5c0 42 14 77.667 42 107s63 44 105 44s77 -14.333 105 -43s42 -63.334 42 -104.001c0 -42 -14 -77.667 -42 -107s-63 -44 -105 -44z" />
    <glyph glyph-name="less" unicode="&#x3c;" horiz-adv-x="1359" 
d="M1114 202l-46 -231l-799 561l37 183l1014 445l-49 -239l-766 -306l-3 -17z" />
    <glyph glyph-name="equal" unicode="=" horiz-adv-x="1360" 
d="M1190 270h-1031l39 197h1032zM1279 698h-1032l40 197h1031z" />
    <glyph glyph-name="greater" unicode="&#x3e;" horiz-adv-x="1360" 
d="M354 929l47 231l798 -561l-36 -182l-1014 -446l48 240l766 306l3 17z" />
    <glyph glyph-name="question" unicode="?" horiz-adv-x="1083" 
d="M241 1073c21.333 116.667 73.4971 209.667 156.497 279s189.833 104 320.5 104c128.667 0 233 -32.667 313 -98s120 -147 120 -245c0 -84.667 -26.167 -162.167 -78.5 -232.5s-122.166 -125.166 -209.499 -164.499c-72.667 -32.667 -124.334 -64.334 -155.001 -95.001
s-50.667 -71 -60 -121l-10 -52h-212l16 74c16.667 84 44.334 148.333 83.001 193s98.334 85 179.001 121c76.667 35.333 132 73.333 166 114s51 88 51 142c0 48 -19.167 88.5 -57.5 121.5s-91.166 49.5 -158.499 49.5c-62 0 -115.5 -16.833 -160.5 -50.5
s-76.167 -80.167 -93.5 -139.5h-210zM469.997 -23c-46 0 -83.5 14 -112.5 42s-43.5 64 -43.5 108c0 46 14.5 83.667 43.5 113s66.5 44 112.5 44c44.667 0 81.5 -14 110.5 -42s43.5 -64 43.5 -108c0 -44.667 -14.333 -82 -43 -112s-65.667 -45 -111 -45z" />
    <glyph glyph-name="at" unicode="@" horiz-adv-x="1887" 
d="M1160 1440c106 0 205.334 -16.6699 298.001 -50.0029s172 -79.166 238 -137.499s118 -128.5 156 -210.5s57 -170 57 -264c0 -119.333 -20.667 -228.5 -62 -327.5s-98 -176.667 -170 -233s-151.667 -84.5 -239 -84.5c-65.333 0 -119.333 15.833 -162 47.5
s-64 71.834 -64 120.501c0 2 0.166992 5.33301 0.5 10s0.5 8 0.5 10l-17 -1c-52 -93.333 -132.333 -140 -241 -140c-92.667 0 -167 30.667 -223 92s-84 142.666 -84 243.999c0 92 17.833 176.5 53.5 253.5s84.667 137.667 147 182s130.833 66.5 205.5 66.5
c58.667 0 110.667 -15.333 156 -46s73.333 -69.334 84 -116.001l17 -1l26 125h175l-128 -583c-2.66699 -16 -4 -27.333 -4 -34c0 -58 33.333 -87 100 -87c46.667 0 91.167 23.333 133.5 70s76.5 108.334 102.5 185.001s39 156.667 39 240
c0 153.333 -57.167 279.5 -171.5 378.5s-260.166 148.5 -437.499 148.5c-104.667 0 -204.334 -20.5 -299.001 -61.5s-176 -96.5 -244 -166.5s-122 -153.667 -162 -251s-60 -200 -60 -308c0 -183.333 63.833 -330.666 191.5 -441.999s296.5 -166.666 506.5 -165.999
c83.333 0 147.666 6.66699 192.999 20l-30 -142c-68.667 -14 -140 -21 -214 -21c-116 0 -223.5 18.167 -322.5 54.5s-183.5 86.5 -253.5 150.5s-124.833 141.667 -164.5 233s-59.5 190.333 -59.5 297c0 134 23.667 259.5 71 376.5s112 217 194 300s180.667 148.5 296 196.5
s239 72 371 72zM1254 653.997c0 60.667 -16.334 109.167 -49.001 145.5s-75.667 54.5 -129 54.5c-67.333 0 -124.666 -31.833 -171.999 -95.5s-71 -140.834 -71 -231.501c0 -57.333 15.5 -103 46.5 -137s72.5 -51 124.5 -51c69.333 0 128.333 30.833 177 92.5
s73 135.834 73 222.501z" />
    <glyph glyph-name="A" unicode="A" horiz-adv-x="1423" 
d="M1062 0l-50 383h-554l-215 -383h-237l836 1443h232l212 -1443h-224zM896 1179l-342 -608h440l-82 608h-16z" />
    <glyph glyph-name="B" unicode="B" horiz-adv-x="1373" 
d="M741 0h-626l307 1443h532c123.333 0 222.333 -28.667 297 -86s112 -133.666 112 -228.999c0 -92.667 -29.167 -173 -87.5 -241s-134.833 -110.667 -229.5 -128l-4 -17c78.667 -14 140.5 -46.333 185.5 -97s67.5 -113.334 67.5 -188.001
c0 -133.333 -52 -242.833 -156 -328.5s-236.667 -128.5 -398 -128.5zM610 1255l-92 -421h277c100 0 181.5 22.667 244.5 68s94.5 104 94.5 176c0 118 -87.333 177 -262 177h-262zM380 193h339c98.667 0 180.667 24.833 246 74.5s98 112.167 98 187.5
c0 66.667 -23.167 117.167 -69.5 151.5s-114.5 51.5 -204.5 51.5h-308z" />
    <glyph glyph-name="C" unicode="C" horiz-adv-x="1488" 
d="M1300 966c0.666992 0.666992 1.00195 2.99902 1.00195 6.99902c-6.66699 89.333 -41.834 160.666 -105.501 213.999s-145.5 80 -245.5 80c-97.333 0 -186.166 -30 -266.499 -90s-143.666 -142.667 -189.999 -248s-69.5 -221.666 -69.5 -348.999
c0 -124.667 32.833 -223.334 98.5 -296.001s154.5 -109 266.5 -109c92 0 173.5 22 244.5 66s119.167 102.333 144.5 175h229c-34.667 -138.667 -109.334 -248.5 -224.001 -329.5s-253.334 -121.5 -416.001 -121.5c-172.667 0 -311.5 54.167 -416.5 162.5
s-157.5 252.5 -157.5 432.5c0 131.333 19.5 253.833 58.5 367.5s92.5 210.834 160.5 291.501s149.833 144 245.5 190s198.5 69 308.5 69c159.333 0 292.166 -46.667 398.499 -140s159.5 -210 159.5 -350c0 -9.33301 -0.333008 -16.666 -1 -21.999h-223z" />
    <glyph glyph-name="D" unicode="D" horiz-adv-x="1504" 
d="M422 1443l442 -0.000976562c194 0 345 -54.167 453 -162.5s162 -258.166 162 -449.499c0 -156.667 -32.5 -298.5 -97.5 -425.5s-154.667 -226.333 -269 -298s-241.833 -107.5 -382.5 -107.5h-614zM609 1241l-226 -1039h342c150.667 0 275.5 57.333 374.5 172
s148.5 260.334 148.5 437.001c0 134.667 -36.667 240 -110 316s-176 114 -308 114h-221z" />
    <glyph glyph-name="E" unicode="E" horiz-adv-x="1238" 
d="M1073 204l-40 -204h-918l307 1443h917l-41 -204h-690l-91 -408h654l-40 -194h-653l-96 -433h691z" />
    <glyph glyph-name="F" unicode="F" horiz-adv-x="1193" 
d="M342 0h-227l307 1443h902l-42 -204h-674l-98 -443h618l-40 -198h-619z" />
    <glyph glyph-name="G" unicode="G" horiz-adv-x="1540" 
d="M1506 747l-40 -191c-39.333 -192 -117.666 -338.5 -234.999 -439.5s-267.333 -151.5 -450 -151.5c-175.333 0 -316.833 55.167 -424.5 165.5s-161.5 255.833 -161.5 436.5c0 174.667 33 331.334 99 470.001s157.667 246.834 275 324.501s249.666 116.5 396.999 116.5
c153.333 0 282.833 -43.333 388.5 -130s162.167 -196 169.5 -328c0.666992 -5.33301 1 -17 1 -35h-223c-6 85.333 -41 153.666 -105 204.999s-146.333 77 -247 77c-98 0 -187 -29.5 -267 -88.5s-142.833 -140.5 -188.5 -244.5s-68.5 -219.667 -68.5 -347
c0 -126.667 34.167 -226.834 102.5 -300.501s161.5 -110.5 279.5 -110.5c107.333 0 200 31.167 278 93.5s127.667 144.833 149 247.5l9 42h-367l39 188h590z" />
    <glyph glyph-name="H" unicode="H" horiz-adv-x="1552" 
d="M1307 0h-229l137 633h-738l-136 -633h-226l307 1443h227l-130 -606h737l130 606h228z" />
    <glyph glyph-name="I" unicode="I" horiz-adv-x="587" 
d="M342 0h-227l307 1443h227z" />
    <glyph glyph-name="J" unicode="J" horiz-adv-x="1148" 
d="M92 370h222v-4c1.33301 -57.333 20.5 -102.833 57.5 -136.5s86.833 -50.5 149.5 -50.5c128.667 0 210.667 81 246 243l218 1021h223l-225 -1063c-28 -134 -82.833 -236.667 -164.5 -308s-187.167 -107 -316.5 -107c-124.667 0 -225.667 37 -303 111
s-113 167.667 -107 281v13z" />
    <glyph glyph-name="K" unicode="K" horiz-adv-x="1387" 
d="M338 0h-223l307 1443h223l-145 -672h17l731 672h279l-690 -643l425 -800h-257l-349 657l-216 -194z" />
    <glyph glyph-name="L" unicode="L" horiz-adv-x="1184" 
d="M1058 206l-42 -206h-901l307 1443h227l-266 -1237h675z" />
    <glyph glyph-name="M" unicode="M" horiz-adv-x="1823" 
d="M326 0h-211l307 1443h252l223 -1096h17l696 1096h275l-307 -1443h-212l225 1042h-14l-639 -1000h-170l-204 1000h-13z" />
    <glyph glyph-name="N" unicode="N" horiz-adv-x="1539" 
d="M337 0h-222l307 1443h196l514 -1055h17l229 1055h223l-307 -1443h-198l-514 1051h-17z" />
    <glyph glyph-name="O" unicode="O" horiz-adv-x="1593" 
d="M793 -35c-115.333 0 -218.832 26.1641 -310.499 78.4971s-162.667 124.333 -213 216s-75.5 194.834 -75.5 309.501c0 173.333 34 329.333 102 468s161.667 246.834 281 324.501s253 116.5 401 116.5c116 0 219.5 -26 310.5 -78s161.333 -123.833 211 -215.5
s74.5 -195.167 74.5 -310.5c0 -130.667 -19.667 -252.5 -59 -365.5s-93.5 -209.167 -162.5 -288.5s-151.833 -141.666 -248.5 -186.999s-200.334 -68 -311.001 -68zM1341 854.997c0 122.667 -34.668 221.832 -104.001 297.499s-160 113.5 -272 113.5
c-100 0 -191.167 -29.667 -273.5 -89s-147 -140.833 -194 -244.5s-70.5 -218.834 -70.5 -345.501c0 -123.333 34.833 -222.666 104.5 -297.999s161.5 -113 275.5 -113c100.667 0 191.834 29.333 273.501 88s145.5 139.834 191.5 243.501s69 219.5 69 347.5z" />
    <glyph glyph-name="P" unicode="P" horiz-adv-x="1327" 
d="M422 1443h513.999c126.667 0 230.834 -37 312.501 -111s122.5 -171.667 122.5 -293c0 -112.667 -26 -211.167 -78 -295.5s-122.5 -148.333 -211.5 -192s-189.833 -65.5 -302.5 -65.5h-333l-104 -486h-227zM608.999 1245l-123 -562h284c112.667 0 202.5 29.833 269.5 89.5
s100.5 141.5 100.5 245.5c0 72 -24 127.833 -72 167.5s-114 59.5 -198 59.5h-261z" />
    <glyph glyph-name="Q" unicode="Q" horiz-adv-x="1593" 
d="M1320 -153h-226.001l-77 149c-67.333 -20.667 -142 -31 -224 -31c-174.667 0 -318.167 57 -430.5 171s-168.5 258.333 -168.5 433c0 130 20 251.5 60 364.5s94.667 209.167 164 288.5s152.333 141.833 249 187.5s200.334 68.5 311.001 68.5c116 0 219.333 -26 310 -78
s161 -123.833 211 -215.5s75 -195.167 75 -310.5c0 -170 -33 -323.5 -99 -460.5s-157.667 -244.833 -275 -323.5zM805.999 175c44.667 0 85.667 4.66602 123 13.999l-128 254h223l79 -142c75.333 58 134 135.5 176 232.5s63 204.5 63 322.5
c0 123.333 -34.833 222.833 -104.5 298.5s-160.5 113.5 -272.5 113.5c-100 0 -191.333 -29.667 -274 -89s-147.5 -141.166 -194.5 -245.499s-70.5 -219.833 -70.5 -346.5c0 -123.333 35 -222.833 105 -298.5s161.667 -113.5 275 -113.5z" />
    <glyph glyph-name="R" unicode="R" horiz-adv-x="1367" 
d="M115 0l307 1443h524c132 0 238.167 -36.167 318.5 -108.5s120.5 -167.5 120.5 -285.5c0 -110 -34.167 -207.667 -102.5 -293s-159.5 -143.666 -273.5 -174.999l204 -581h-243l-182 550h-328l-118 -550h-227zM609 1246l-111 -505h318c99.333 0 180.333 26.833 243 80.5
s94 122.5 94 206.5c0 67.333 -21 120.5 -63 159.5s-99.333 58.5 -172 58.5h-309z" />
    <glyph glyph-name="S" unicode="S" horiz-adv-x="1307" 
d="M115 405h221.002c14.667 -73.333 53.5 -131.833 116.5 -175.5s139.833 -65.5 230.5 -65.5c93.333 0 168.666 20.833 225.999 62.5s86 96.167 86 163.5c0 52 -19 95.667 -57 131s-101 67.333 -189 96l-142 48c-101.333 34 -179.833 84.167 -235.5 150.5
s-83.5 143.166 -83.5 230.499c0 124 50.333 227 151 309s227 123 379 123c144.667 0 265.5 -40.167 362.5 -120.5s150.167 -184.166 159.5 -311.499h-219c-15.333 72 -50.833 129 -106.5 171s-124.834 63 -207.501 63s-151.167 -19.833 -205.5 -59.5
s-81.5 -89.834 -81.5 -150.501c0 -46 17.667 -86.333 53 -121s90.333 -64.667 165 -90l137 -47c120 -41.333 208.667 -93.666 266 -156.999s86 -141.333 86 -234c0 -136 -52 -246 -156 -330s-239.333 -126 -406 -126c-154 0 -280.333 39.167 -379 117.5
s-155.667 185.833 -171 322.5z" />
    <glyph glyph-name="T" unicode="T" horiz-adv-x="1312" 
d="M705 0h-228l266 1239h-452l41 204h1131l-41 -204h-452z" />
    <glyph glyph-name="U" unicode="U" horiz-adv-x="1538" 
d="M750 -35c-163.333 0 -291.334 42.834 -384.001 128.501s-139.667 195.5 -141 329.5c-0.666992 38.667 3.66602 81 12.999 127l187 893h228l-186 -882c-8.66699 -43.333 -12.667 -83.333 -12 -120c2.66699 -82.667 31.334 -147.5 86.001 -194.5
s133.334 -70.5 236.001 -70.5c100 0 185 28.667 255 86s116.333 137 139 239l201 942h227l-210 -992c-33.333 -154.667 -104.333 -274.334 -213 -359.001s-250.667 -127 -426 -127z" />
    <glyph glyph-name="V" unicode="V" horiz-adv-x="1415" 
d="M767 0h-245l-210 1443h224l155 -1159h17l629 1159h250z" />
    <glyph glyph-name="W" unicode="W" horiz-adv-x="2013" 
d="M1157 1059l-527 -1059h-216l-83 1443h214l43 -1105h14l539 1105h192l81 -1105h14l506 1105h231l-689 -1443h-218l-88 1059h-13z" />
    <glyph glyph-name="X" unicode="X" horiz-adv-x="1427" 
d="M25 0l645 749l-318 694h254l236 -539h16l469 539h253l-644 -729l329 -714h-245l-251 542h-16l-478 -542h-250z" />
    <glyph glyph-name="Y" unicode="Y" horiz-adv-x="1383" 
d="M740 0h-227l126 582l-327 861h234l242 -631h17l497 631h251l-693 -881z" />
    <glyph glyph-name="Z" unicode="Z" horiz-adv-x="1365" 
d="M76 0l32 161l1000 1061l3 17h-746l41 204h1041l-32 -161l-998 -1061l-2 -17h785l-41 -204h-1083z" />
    <glyph glyph-name="bracketleft" unicode="[" horiz-adv-x="791" 
d="M435 1444h496l-35 -174h-288l-288 -1337h300l-35 -173h-508z" />
    <glyph glyph-name="backslash" unicode="\" horiz-adv-x="733" 
d="M355 -309l-54 1752h189l52 -1752h-187z" />
    <glyph glyph-name="bracketright" unicode="]" horiz-adv-x="790" 
d="M839 1443l-358 -1683h-499l35 174h290l288 1337h-297l35 172h506z" />
    <glyph glyph-name="asciicircum" unicode="^" horiz-adv-x="885" 
d="M640 1242l-272 -424h-204l411 606h210l153 -606h-193l-88 424h-17z" />
    <glyph glyph-name="underscore" unicode="_" horiz-adv-x="926" 
d="M811 -278h-940l33 171h941z" />
    <glyph glyph-name="grave" unicode="`" horiz-adv-x="1085" 
d="M995 1271h-216l-222 344h247z" />
    <glyph glyph-name="a" unicode="a" horiz-adv-x="1153" 
d="M506 161c73.333 0 138.499 21.167 195.499 63.5s92.833 95.5 107.5 159.5l25 112l-265 -12c-80 -3.33301 -142.5 -20.5 -187.5 -51.5s-67.5 -71.833 -67.5 -122.5c0 -43.333 17.833 -79 53.5 -107s81.834 -42 138.501 -42zM426.999 -18
c-94 0 -172.332 28.501 -234.999 85.501s-94 128.167 -94 213.5c0 108.667 41.167 194.667 123.5 258s199.166 97.666 350.499 102.999l295 12l15 71c4 20.667 6 36 6 46c0 47.333 -19 84.5 -57 111.5s-90.333 40.5 -157 40.5c-55.333 0 -102.166 -10.167 -140.499 -30.5
s-65.5 -49.833 -81.5 -88.5h-215c23.333 94 76 168.5 158 223.5s180.667 82.5 296 82.5c124 0 223.667 -28.5 299 -85.5s113 -132.5 113 -226.5c0 -30.667 -3 -60 -9 -88l-150 -710h-209l30 139h-17c-36 -48.667 -82.333 -87 -139 -115s-117.334 -42 -182.001 -42z" />
    <glyph glyph-name="b" unicode="b" horiz-adv-x="1288" 
d="M695 -18c-76 0 -144.833 20.167 -206.5 60.5s-102.834 92.5 -123.501 156.5h-17l-43 -199h-208l322 1514h215l-121 -575h17c80.667 112 192.667 168 336 168c110 0 200.833 -39 272.5 -117s107.5 -178.667 107.5 -302c0 -132 -24.167 -252 -72.5 -360
s-114.666 -192.667 -198.999 -254s-177.5 -92 -279.5 -92zM664 177c101.333 0 186.334 45.333 255.001 136s103 203.667 103 339c0 83.333 -21.333 148 -64 194s-101.334 69 -176.001 69c-102.667 0 -189.667 -45.5 -261 -136.5s-107 -201.5 -107 -331.5
c0 -84 22.5 -150 67.5 -198s105.833 -72 182.5 -72z" />
    <glyph glyph-name="c" unicode="c" horiz-adv-x="1161" 
d="M1163 737l-211.999 -0.00195312c-4.66699 53.333 -29.167 96.833 -73.5 130.5s-98.5 50.5 -162.5 50.5c-100 0 -182.833 -43.5 -248.5 -130.5s-98.5 -195.5 -98.5 -325.5c0 -91.333 22.5 -162.5 67.5 -213.5s105.167 -76.5 180.5 -76.5c62.667 0 116.5 14.333 161.5 43
s76.833 69.334 95.5 122.001h215c-21.333 -105.333 -76.5 -191.333 -165.5 -258s-196.5 -100 -322.5 -100c-136.667 0 -246.167 42 -328.5 126s-123.5 195.333 -123.5 334c0 126.667 24.667 241 74 343s118.5 182.167 207.5 240.5s189.5 87.5 301.5 87.5
c113.333 0 209.5 -31.5 288.5 -94.5s125.5 -140.5 139.5 -232.5c1.33301 -9.33301 2.66602 -24.666 3.99902 -45.999z" />
    <glyph glyph-name="d" unicode="d" horiz-adv-x="1293" 
d="M533 -18c-111.333 0 -204 39.501 -278 118.501s-111 184.167 -111 315.5c0 130.667 24.667 249 74 355s116.5 188.5 201.5 247.5s178.833 88.5 281.5 88.5c78.667 0 147 -19.667 205 -59s96.333 -90.333 115 -153h17l131 619h218l-322 -1514h-208l32 150h-17
c-39.333 -52.667 -88.5 -93.834 -147.5 -123.501s-122.833 -44.5 -191.5 -44.5zM615 174.001c102.667 0 189.167 45.332 259.5 135.999s105.5 201.334 105.5 332.001c0 84 -22.667 150 -68 198s-106 72 -182 72c-102.667 0 -188.667 -43.5 -258 -130.5
s-104 -196.833 -104 -329.5c0 -83.333 22.833 -150.5 68.5 -201.5s105.167 -76.5 178.5 -76.5z" />
    <glyph glyph-name="e" unicode="e" horiz-adv-x="1203" 
d="M605 -21c-86.667 0 -164.002 17.667 -232.002 53s-122.333 88.333 -163 159s-61 153.667 -61 249c0 199.333 53.333 360.833 160 484.5s244.667 185.5 414 185.5c122.667 0 224.834 -40.333 306.501 -121s122.834 -189.334 123.501 -326.001
c0 -52 -4.66699 -108.667 -14 -170h-775c-0.666992 -9.33301 -1 -24 -1 -44c0 -93.333 25 -163.666 75 -210.999s110.333 -71 181 -71c123.333 0 207.333 42 252 126h218c-24 -93.333 -79 -169 -165 -227s-192.333 -87 -319 -87zM389.998 651h547c2 12 3 26.333 3 43
c0 66.667 -20.5 122.167 -61.5 166.5s-97.5 66.5 -169.5 66.5c-76 0 -142.333 -25 -199 -75s-96.667 -117 -120 -201z" />
    <glyph glyph-name="f" unicode="f" horiz-adv-x="775" 
d="M166 0l190.999 903.001h-178l37 181h176l22 114c20.667 107.333 61.834 185.166 123.501 233.499s148.834 72.5 261.501 72.5c44 0 91.667 -5 143 -15l-34 -171c-24.667 6.66699 -61.334 10 -110.001 10c-94 0 -150.667 -49.667 -170 -149l-19 -95h239l-36 -181h-237
l-190 -903h-219z" />
    <glyph glyph-name="g" unicode="g" horiz-adv-x="1276" 
d="M513 -415c-131.333 0 -239.666 30.665 -324.999 91.998s-130 137 -134 227h221c6.66699 -41.333 32.5 -75.5 77.5 -102.5s103.5 -40.5 175.5 -40.5c86 0 154.5 19.333 205.5 58s84.5 92.334 100.5 161.001l46 197l-17 1c-76 -106.667 -184.333 -160 -325 -160
c-111.333 0 -204 39.5 -278 118.5s-111 181.167 -111 306.5c0 126 23.667 239.833 71 341.5s112.166 180.834 194.499 237.501s173.833 85 274.5 85c76 0 145.167 -20 207.5 -60s103.833 -91.333 124.5 -154h17l42 196h209l-245 -1138c-24 -114 -82.5 -203.5 -175.5 -268.5
s-211.5 -97.5 -355.5 -97.5zM617 197.998c101.333 0 185.833 41.8311 253.5 125.498s101.5 189.834 101.5 318.501c0 82.667 -23 148.334 -69 197.001s-107.667 73 -185 73c-100.667 0 -183.5 -40.333 -248.5 -121s-97.5 -186.334 -97.5 -317.001
c0 -85.333 22 -152.666 66 -201.999s103.667 -74 179 -74z" />
    <glyph glyph-name="h" unicode="h" horiz-adv-x="1267" 
d="M97 0l323.001 1510h217l-127 -584h17c82.667 122 195 183 337 183c102.667 0 185.834 -31.167 249.501 -93.5s95.5 -138.166 95.5 -227.499c0 -38 -4.66699 -80.333 -14 -127l-140 -661h-217l133 623c8 40 12 72 12 96c0 60 -20 107.833 -60 143.5s-94 53.5 -162 53.5
c-76.667 0 -142.834 -24 -198.501 -72s-91.834 -110 -108.501 -186l-140 -658h-217z" />
    <glyph glyph-name="i" unicode="i" horiz-adv-x="546" 
d="M98 0l233 1089h218l-232 -1089h-219zM508 1280c-40 0 -73.167 12.5 -99.5 37.5s-39.5 55.833 -39.5 92.5c0 37.333 13.167 68.833 39.5 94.5s59.5 38.5 99.5 38.5s73.167 -12.5 99.5 -37.5s39.5 -55.833 39.5 -92.5c0 -37.333 -13.167 -68.833 -39.5 -94.5
s-59.5 -38.5 -99.5 -38.5z" />
    <glyph glyph-name="j" unicode="j" horiz-adv-x="546" 
d="M547 1089l-251 -1173c-42.667 -202 -165 -303 -367 -303c-38 0 -71 2.33301 -99 7l38 184c26.667 -2.66699 45.667 -4 57 -4c47.333 0 83.5 11 108.5 33s42.833 58.667 53.5 110l245 1146h215zM508 1280c-40 0 -73.167 12.5 -99.5 37.5s-39.5 55.833 -39.5 92.5
c0 37.333 13.167 68.833 39.5 94.5s59.5 38.5 99.5 38.5s73.167 -12.5 99.5 -37.5s39.5 -55.833 39.5 -92.5c0 -37.333 -13.167 -68.833 -39.5 -94.5s-59.5 -38.5 -99.5 -38.5z" />
    <glyph glyph-name="k" unicode="k" horiz-adv-x="1131" 
d="M470 660l510 429h268l-552 -472l350 -617h-244l-280 490l-123 -94l-85 -396h-217l322 1514h216l-182 -854h17z" />
    <glyph glyph-name="l" unicode="l" horiz-adv-x="544" 
d="M97 0l322 1514h218l-321 -1514h-219z" />
    <glyph glyph-name="m" unicode="m" horiz-adv-x="1822" 
d="M88 0l231 1093h209l-36 -173h16c31.333 56.667 74.5 102.5 129.5 137.5s113.167 52.5 174.5 52.5c74.667 0 137.5 -19.333 188.5 -58s83.167 -85 96.5 -139h17c37.333 60 85.333 107.833 144 143.5s127 53.5 205 53.5c88.667 0 161.834 -28.167 219.501 -84.5
s86.5 -127.833 86.5 -214.5c0 -38 -4.66699 -80.333 -14 -127l-145 -684h-217l138 647c8 41.333 12 73.333 12 96c0 50 -16 91.333 -48 124s-75.667 49 -131 49c-61.333 0 -116.833 -21.833 -166.5 -65.5s-82.5 -102.5 -98.5 -176.5l-143 -674h-213l137 647
c8 41.333 12 73.333 12 96c0 50 -16 91.333 -48 124s-75.667 49 -131 49c-60.667 0 -115.834 -21.5 -165.501 -64.5s-82.167 -99.5 -97.5 -169.5l-145 -682h-217z" />
    <glyph glyph-name="n" unicode="n" horiz-adv-x="1249" 
d="M88 0l231.002 1093h209l-35 -167h17c36.667 55.333 83.667 99.833 141 133.5s123.666 50.5 198.999 50.5c101.333 0 183.666 -31.167 246.999 -93.5s95 -138.5 95 -228.5c0 -40 -5 -82.333 -15 -127l-139 -661h-217l132 623c8 36 12 68 12 96
c0 58.667 -19.667 106.167 -59 142.5s-92 54.5 -158 54.5c-75.333 0 -140.5 -24 -195.5 -72s-90.833 -110 -107.5 -186l-140 -658h-217z" />
    <glyph glyph-name="o" unicode="o" horiz-adv-x="1243" 
d="M374 456c0 -84.667 22.6689 -153.333 68.002 -206s107.333 -79 186 -79c90.667 0 170 43 238 129s102 192.333 102 319c0 94 -21.833 167.5 -65.5 220.5s-103.834 79.5 -180.501 79.5c-104.667 0 -188.834 -43.833 -252.501 -131.5s-95.5 -198.167 -95.5 -331.5z
M607.002 -20.999c-137.333 0 -248.168 42.6689 -332.501 128.002s-126.5 196.666 -126.5 333.999c0 91.333 13.833 177.666 41.5 258.999s66.5 152.333 116.5 213s112.333 108.667 187 144s156.334 53 245.001 53c137.333 0 247.833 -42.667 331.5 -128
s125.5 -196.333 125.5 -333c0 -120 -23.167 -230.5 -69.5 -331.5s-114.833 -182.667 -205.5 -245s-195 -93.5 -313 -93.5z" />
    <glyph glyph-name="p" unicode="p" horiz-adv-x="1283" 
d="M658 177c102 0 187.334 45.333 256.001 136s103 203.667 103 339c0 83.333 -21.333 148 -64 194s-101.334 69 -176.001 69c-102.667 0 -189.667 -45.5 -261 -136.5s-107 -201.5 -107 -331.5c0 -84 22.5 -150 67.5 -198s105.5 -72 181.5 -72zM232.001 -353h-216l307 1442
h208l-31 -150h16c39.333 52.667 89 93.834 149 123.501s124.667 44.5 194 44.5c110 0 201.167 -39.167 273.5 -117.5s108.5 -178.833 108.5 -301.5c0 -98.667 -14.333 -191.834 -43 -279.501s-67.5 -162.667 -116.5 -225s-107.667 -111.5 -176 -147.5
s-140.833 -54 -217.5 -54c-78 0 -146 20 -204 60s-96.667 92.333 -116 157h-16z" />
    <glyph glyph-name="q" unicode="q" horiz-adv-x="1282" 
d="M607 174c102.667 0 189.666 45.5 260.999 136.5s107 201.5 107 331.5c0 84 -22.5 150 -67.5 198s-105.5 72 -181.5 72c-102 0 -187.333 -44.167 -256 -132.5s-103 -198.5 -103 -330.5c0 -87.333 21.333 -155 64 -203s101.334 -72 176.001 -72zM986.999 -353h-215l106 503
h-17c-82 -112 -194.333 -168 -337 -168c-110 0 -200.833 40 -272.5 120s-107.5 183.667 -107.5 311c0 96.667 14.333 188 43 274s67.5 159.667 116.5 221s107.667 109.833 176 145.5s140.833 53.5 217.5 53.5s145.667 -20 207 -60s102.333 -90.667 123 -152h16l42 194h208z
" />
    <glyph glyph-name="r" unicode="r" horiz-adv-x="833" 
d="M81 0l232.001 1089h208l-30 -143h17c67.333 107.333 161.666 161 282.999 161c59.333 0 103.333 -6 132 -18l-45 -210c-42.667 13.333 -91.667 20 -147 20c-81.333 0 -146.5 -22.333 -195.5 -67s-83.833 -113.667 -104.5 -207l-133 -625h-217z" />
    <glyph glyph-name="s" unicode="s" horiz-adv-x="1087" 
d="M92 301h215.002c12 -44 38.833 -79.667 80.5 -107s93.167 -41 154.5 -41c67.333 0 122 13.5 164 40.5s63 62.167 63 105.5c0 29.333 -9.66699 54.5 -29 75.5s-52 38.833 -98 53.5l-167 56c-86 28.667 -149.833 66.167 -191.5 112.5s-62.5 105.166 -62.5 176.499
c0 100 39.667 181.167 119 243.5s180.666 93.5 303.999 93.5c120 0 217.667 -28 293 -84s119 -131 131 -225h-206c-9.33301 41.333 -33.666 74 -72.999 98s-88.333 36 -147 36c-60.667 0 -110.667 -13.167 -150 -39.5s-59 -59.833 -59 -100.5c0 -56.667 47 -100 141 -130
l157 -54c90 -29.333 155.333 -67.166 196 -113.499s61 -105.5 61 -177.5c0 -100 -42.167 -181.833 -126.5 -245.5s-192.5 -95.5 -324.5 -95.5c-126.667 0 -230.834 29.667 -312.501 89s-125.834 137 -132.501 233z" />
    <glyph glyph-name="t" unicode="t" horiz-adv-x="781" 
d="M514 -10c-92 0 -164.001 19.1689 -216.001 57.502s-78 94.166 -78 167.499c0 27.333 3.66699 58.666 11 93.999l128 590h-179l37 181h179l56 269h217l-57 -269h244l-36 -181h-244l-116 -535c-7.33301 -32.667 -11 -60 -11 -82c0 -72 47.333 -108 142 -108c22 0 43 1 63 3
l-37 -179c-35.333 -5.33301 -69.666 -8 -102.999 -8z" />
    <glyph glyph-name="u" unicode="u" horiz-adv-x="1247" 
d="M1260 1089l-229.998 -1089h-208l34 155h-17c-32 -53.333 -77.833 -96 -137.5 -128s-128.167 -48 -205.5 -48c-98.667 0 -179.334 29.5 -242.001 88.5s-94 135.167 -94 228.5c0 42 5 88.667 15 140l136 653h218l-131 -618c-8.66699 -42 -13 -77.333 -13 -106
c0 -62.667 17.667 -109.834 53 -141.501s86.666 -47.5 153.999 -47.5c78 0 145.5 24.667 202.5 74s94.167 113.666 111.5 192.999l138 646h216z" />
    <glyph glyph-name="v" unicode="v" horiz-adv-x="1136" 
d="M228 1089h217l103 -835h17l441 835h235l-618 -1089h-237z" />
    <glyph glyph-name="w" unicode="w" horiz-adv-x="1640" 
d="M1740 1089l-531 -1089h-224l-57 797h-17l-391 -797h-221l-68 1089h202l34 -824h16l391 824h214l46 -831h16l374 831h216z" />
    <glyph glyph-name="x" unicode="x" horiz-adv-x="1117" 
d="M588 383h-17l-316 -383h-246l476 550l-248 539h235l160 -382h17l313 382h248l-475 -545l248 -544h-226z" />
    <glyph glyph-name="y" unicode="y" horiz-adv-x="1146" 
d="M148 -397c-38 0 -79.001 3 -123.001 9l33 185c20.667 -6 52.334 -9 95.001 -9c42 0 79.333 11.833 112 35.5s64.334 63.5 95.001 119.5l33 60l-164 1086h216l105 -842h17l448 842h233l-666 -1173c-64.667 -118 -129.334 -199.667 -194.001 -245s-144.667 -68 -240 -68z
" />
    <glyph glyph-name="z" unicode="z" horiz-adv-x="1124" 
d="M66 0l30 146l737 744l2 17h-571l38 182h852l-34 -157l-719 -733l-3 -17h567l-37 -182h-862z" />
    <glyph glyph-name="braceleft" unicode="{" horiz-adv-x="860" 
d="M366 621l-3 -17c46 -8.66699 82 -27.167 108 -55.5s39 -64.833 39 -109.5c0 -22 -3.33301 -49.667 -10 -83l-65 -301c-7.33301 -33.333 -11 -61 -11 -83c0 -47.333 15.167 -82 45.5 -104s78.5 -33 144.5 -33h45l-35 -171h-66c-106 0 -190.333 22.833 -253 68.5
s-94 106.167 -94 181.5c0 38 4.66699 77 14 117l56 258c8 38 12 70 12 96c0 40.667 -11.167 69.667 -33.5 87s-58.5 26 -108.5 26l47 229c64.667 0 113 15.333 145 46s56.667 85.667 74 165l53 239c26 122 78.333 209.667 157 263s187 80 325 80h67l-35 -175h-45
c-81.333 0 -143 -16.667 -185 -50s-71.333 -89 -88 -167l-59 -270c-16.667 -76 -44.5 -133 -83.5 -171s-91.5 -60 -157.5 -66z" />
    <glyph glyph-name="bar" unicode="|" horiz-adv-x="703" 
d="M315 -310h-191l373 1753h191z" />
    <glyph glyph-name="braceright" unicode="}" horiz-adv-x="860" 
d="M615 564l3.00098 17.002c-46 8.66699 -82 27 -108 55s-39 64.333 -39 109c0 22 3.33301 49.667 10 83l66 301c6.66699 35.333 10 63 10 83c0 47.333 -15 82 -45 104s-78.333 33 -145 33h-45l35 171h66c106.667 0 191.167 -22.833 253.5 -68.5
s93.5 -105.834 93.5 -180.501c0 -37.333 -4.33301 -76.666 -13 -117.999l-57 -258c-8 -36.667 -12 -68.334 -12 -95.001c0 -41.333 11.167 -70.666 33.5 -87.999s58.5 -26 108.5 -26l-46 -229c-65.333 0 -114 -15.333 -146 -46s-56.667 -85.334 -74 -164.001l-53 -240
c-26 -122 -78.333 -209.667 -157 -263s-186.667 -80 -324 -80h-68l35 175h45c81.333 0 143.166 16.667 185.499 50s71.833 89 88.5 167l59 270c16 75.333 43.5 132.166 82.5 170.499s91.5 60.833 157.5 67.5z" />
    <glyph glyph-name="asciitilde" unicode="~" horiz-adv-x="1210" 
d="M743 498c-38 0 -73.168 7.83008 -105.501 23.4971s-59.5 34.834 -81.5 57.501s-42.667 45.334 -62 68.001s-39.166 41.834 -59.499 57.501s-40.833 23.5 -61.5 23.5c-34.667 0 -62.667 -13.167 -84 -39.5s-37.333 -67.5 -48 -123.5h-192c15.333 116.667 53 207 113 271
s131.333 96 214 96c37.333 0 72 -8 104 -24s59 -35.333 81 -58s42.5 -45.167 61.5 -67.5s38.667 -41.5 59 -57.5s40.833 -24 61.5 -24c68 0 112.333 54.667 133 164h192c-15.333 -117.333 -52.5 -207.833 -111.5 -271.5s-130.167 -95.5 -213.5 -95.5z" />
    <glyph glyph-name="nonbreakingspace" unicode="&#xa0;" horiz-adv-x="560" 
 />
    <glyph glyph-name="exclamdown" unicode="&#xa1;" horiz-adv-x="669" 
d="M319 -333h-243l226 966h202zM478 1134c45.333 0 82.333 -14.499 111 -43.499s43 -64.5 43 -106.5c0 -44.667 -14.333 -81.834 -43 -111.501s-65.667 -44.5 -111 -44.5s-82.333 14.5 -111 43.5s-43 64.833 -43 107.5c0 44.667 14.333 81.667 43 111s65.667 44 111 44z" />
    <glyph glyph-name="cent" unicode="&#xa2;" horiz-adv-x="1359" 
d="M1215 513c-20 -98.667 -69.832 -180.499 -149.499 -245.499s-177.167 -101.833 -292.5 -110.5l-38 -180h-197l42 200c-94.667 28 -169.167 81 -223.5 159s-81.5 172.333 -81.5 283c0 184 50.5 338.667 151.5 464s230.833 194 389.5 206l33 156h197l-37 -176
c76 -24.667 138.667 -64.334 188 -119.001s79 -117 89 -187c1.33301 -8.66699 2.66602 -23.667 3.99902 -45h-212c-4.66699 53.333 -29 96.833 -73 130.5s-98 50.5 -162 50.5c-100 0 -182.833 -43.667 -248.5 -131s-98.5 -196 -98.5 -326c0 -92 22.333 -163.833 67 -215.5
s104.667 -77.5 180 -77.5c62.667 0 116.5 14.167 161.5 42.5s76.833 68.833 95.5 121.5h215z" />
    <glyph glyph-name="sterling" unicode="&#xa3;" horiz-adv-x="1360" 
d="M1214 202l-40 -200h-1084l39 198c42.667 5.33301 85.5 17.833 128.5 37.5s83.333 45.167 121 76.5s68.5 70.333 92.5 117s37 97 39 151c0 20.667 -1.33301 42 -4 64h-313l35 175h264c-8.66699 85.333 -13 143.333 -13 174c0 151.333 47.5 269.666 142.5 354.999
s235.5 128 421.5 128c65.333 0 133.166 -6.83301 203.499 -20.5s125.833 -30.167 166.5 -49.5l-41 -193c-32 18 -78.167 33.333 -138.5 46s-119.166 19 -176.499 19c-109.333 0 -195 -24 -257 -72s-93 -119.667 -93 -215c0 -41.333 3.66699 -98.666 11 -171.999h412
l-35 -175h-366c1.33301 -20 2 -34.333 2 -43c-0.666992 -102.667 -24 -186 -70 -250s-109.333 -109 -190 -135l-3 -16h746z" />
    <glyph glyph-name="currency" unicode="&#xa4;" horiz-adv-x="1359" 
d="M470 653c0 -68.667 25 -127.667 75 -177s109.667 -74 179 -74s128.833 24.667 178.5 74s74.5 108.333 74.5 177c0 68 -24.833 126.667 -74.5 176s-109.167 74 -178.5 74s-129 -24.667 -179 -74s-75 -108 -75 -176zM1316 1032l-226 -188c30.667 -60 46 -123.667 46 -191
c0 -96 -28.667 -181.667 -86 -257l103 -132l-150 -129l-106 137c-55.333 -26 -113 -39 -173 -39c-98 0 -184.667 31.333 -260 94l-230 -192l-104 138l226 189c-30 60 -45 123.667 -45 191c0 96 29 181.333 87 256l-105 133l150 129l107 -138c55.333 26 113.333 39 174 39
c96 0 182 -31 258 -93l230 191z" />
    <glyph glyph-name="yen" unicode="&#xa5;" horiz-adv-x="1360" 
d="M1052 242h-271l-51 -242h-228l52 242h-275l31 150h276l32 152h-275l31 150h215l-288 749h233l242 -631h17l497 631h252l-594 -749h200l-32 -150h-272l-33 -152h273z" />
    <glyph glyph-name="brokenbar" unicode="&#xa6;" horiz-adv-x="703" 
d="M546 774h-191l142 669h191zM315 -310h-191l142 669h191z" />
    <glyph glyph-name="section" unicode="&#xa7;" horiz-adv-x="1032" 
d="M499 430l97 -42.999c58.667 11.333 105.667 33.666 141 66.999s53 72.666 53 117.999c0 66.667 -39.333 115.334 -118 146.001l-93 40c-60.667 -7.33301 -111.167 -27.833 -151.5 -61.5s-60.5 -74.167 -60.5 -121.5c0 -62 44 -110.333 132 -145zM454 -270.999
c-114 0 -210.003 29.9961 -288.003 89.9961s-119.333 137.667 -124 233h204c10 -44 34.167 -79.833 72.5 -107.5s85.5 -41.5 141.5 -41.5c62 0 112.333 14 151 42s58 64 58 108c0 30.667 -8.66699 56.834 -26 78.501s-47.666 40.834 -90.999 57.501l-152 64
c-158 64.667 -237 160.667 -237 288c0 72 24.333 133.5 73 184.5s113.334 85.167 194.001 102.5l3 18c-54 34 -92.667 69.333 -116 106s-35 81 -35 133c0 97.333 37.5 176.333 112.5 237s170.833 91 287.5 91c112 0 203.5 -28.667 274.5 -86
s112.167 -133.666 123.5 -228.999h-199c-7.33301 42.667 -29.166 76.834 -65.499 102.501s-81.5 38.5 -135.5 38.5c-56 0 -102 -13.5 -138 -40.5s-54 -61.5 -54 -103.5c0 -56.667 43 -101.667 129 -135l136 -60c82.667 -34 144 -73.5 184 -118.5s60 -101.167 60 -168.5
c0 -70 -23.5 -132.5 -70.5 -187.5s-110.833 -91.5 -191.5 -109.5l-3 -14c53.333 -34 91 -69.333 113 -106s33 -81 33 -133c0 -97.333 -39.833 -177.333 -119.5 -240s-181.167 -94 -304.5 -94z" />
    <glyph glyph-name="dieresis" unicode="&#xa8;" horiz-adv-x="1085" 
d="M560 1265c-37.333 0 -68.833 12.833 -94.5 38.5s-38.5 57.5 -38.5 95.5s12.833 70 38.5 96s57.167 39 94.5 39c38 0 69.833 -13 95.5 -39s38.5 -58 38.5 -96s-12.833 -69.833 -38.5 -95.5s-57.5 -38.5 -95.5 -38.5zM987 1265c-37.333 0 -68.833 12.833 -94.5 38.5
s-38.5 57.5 -38.5 95.5s12.833 70 38.5 96s57.167 39 94.5 39c38 0 69.833 -13 95.5 -39s38.5 -58 38.5 -96s-12.833 -69.833 -38.5 -95.5s-57.5 -38.5 -95.5 -38.5z" />
    <glyph glyph-name="copyright" unicode="&#xa9;" horiz-adv-x="1742" 
d="M899 -155c-101.333 0 -197.332 18.6631 -287.999 55.9961s-168.834 87.666 -234.501 150.999s-117.667 139.333 -156 228s-57.5 182.334 -57.5 281.001c0 121.333 22.5 235.833 67.5 343.5s106.333 199.834 184 276.501s170.667 137.334 279 182.001s223.833 67 346.5 67
c103.333 0 200.666 -18.167 291.999 -54.5s169.5 -86.166 234.5 -149.499s116.333 -139.166 154 -227.499s56.5 -182.5 56.5 -282.5c0 -162.667 -38.167 -310.5 -114.5 -443.5s-181.666 -237.5 -315.999 -313.5s-283.5 -114 -447.5 -114zM913.001 -6.00391
c97.333 0 190.002 18.501 278.002 55.501s163.667 87 227 150s113.666 138.333 150.999 226s56 179.834 56 276.501c0 109.333 -25.833 208.166 -77.5 296.499s-123 157.5 -214 207.5s-193.167 75 -306.5 75c-97.333 0 -190 -18.5 -278 -55.5s-163.667 -87 -227 -150
s-113.666 -138.167 -150.999 -225.5s-56 -179.333 -56 -276c0 -108 26.167 -206.333 78.5 -295s124.166 -158.334 215.499 -209.001s192.666 -76 303.999 -76zM1332 778.997l-150.997 0.00195312c-2.66699 41.333 -20.334 75.166 -53.001 101.499s-73 39.5 -121 39.5
c-72.667 0 -133.5 -31.833 -182.5 -95.5s-73.5 -142.5 -73.5 -236.5c0 -66.667 16.333 -119.167 49 -157.5s77.667 -57.5 135 -57.5c93.333 0 155.333 37.667 186 113h155c-18 -76.667 -58.833 -137.667 -122.5 -183s-139.834 -68 -228.501 -68
c-98.667 0 -178.167 31.5 -238.5 94.5s-90.5 145.833 -90.5 248.5c0 137.333 39.667 251.166 119 341.499s179.666 135.5 300.999 135.5c92 0 167 -25.5 225 -76.5s88.333 -117.5 91 -199.5z" />
    <glyph glyph-name="ordfeminine" unicode="&#xaa;" horiz-adv-x="974" 
d="M585 933c-63.333 -3.33301 -112.665 -16.834 -147.998 -40.501s-53 -55.5 -53 -95.5c0 -34.667 14 -63 42 -85s64.667 -33 110 -33c57.333 0 108.166 16.333 152.499 49s72.166 74.334 83.499 125.001l19 88zM458.001 516.999c-79.333 0 -144.999 23.833 -196.999 71.5
s-78 108.167 -78 181.5c0 91.333 34.333 163.333 103 216s165.667 81 291 85l243 8c6 30 10.333 49 13 57c3.33301 20 4.66602 32.667 3.99902 38c0.666992 37.333 -13.833 66.5 -43.5 87.5s-70.5 31.5 -122.5 31.5c-90 0 -148 -30.667 -174 -92h-198
c20.667 81.333 65 145.166 133 191.499s151.333 69.5 250 69.5c108 0 194.333 -24.5 259 -73.5s97 -114.167 97 -195.5c0 -27.333 -2.33301 -51.666 -7 -72.999l-126 -590h-194l23 111l-15 1c-28.667 -39.333 -66 -70 -112 -92s-95.667 -33 -149 -33z" />
    <glyph glyph-name="guillemotleft" unicode="&#xab;" horiz-adv-x="1410" 
d="M1370 983l-448 -431l-3 -14l249 -390h-216l-262 413l2 8l435 414h243zM881 983l-448 -429l-2 -13l247 -393h-216l-262 413l2 8l431 414h248z" />
    <glyph glyph-name="logicalnot" unicode="&#xac;" horiz-adv-x="1360" 
d="M1249 680l-121 -583h-186l82 387h-797l39 196h983z" />
    <glyph glyph-name="registered" unicode="&#xae;" horiz-adv-x="1261" 
d="M601 659h-107l105 494h243c44 0 80.833 -13.667 110.5 -41s44.5 -60 44.5 -98c0 -44 -13.5 -80.833 -40.5 -110.5s-62.167 -48.5 -105.5 -56.5l91 -188h-128l-85 175h-90zM687 1057l-29.001 -134.001h116c68 0 102 25.667 102 77c0 16.667 -6.16699 30.334 -18.5 41.001
s-30.166 16 -53.499 16h-117zM228.999 890.999c0 146 51 269.83 153 371.497s226 152.5 372 152.5c97.333 0 186.166 -22.833 266.499 -68.5s143.5 -108.667 189.5 -189s69 -169.166 69 -266.499c0 -95.333 -23.167 -183.166 -69.5 -263.499
s-109.833 -143.666 -190.5 -189.999s-169 -69.5 -265 -69.5c-97.333 0 -186.166 22.833 -266.499 68.5s-143.5 108.5 -189.5 188.5s-69 168.667 -69 266zM1165 890.996c0 116 -39.332 213 -117.999 291s-176.334 117 -293.001 117c-114 0 -210.833 -39.5 -290.5 -118.5
s-119.5 -175.5 -119.5 -289.5c0 -115.333 39 -212.166 117 -290.499s175 -117.5 291 -117.5c114.667 0 212.167 39.667 292.5 119s120.5 175.666 120.5 288.999z" />
    <glyph glyph-name="macron" unicode="&#xaf;" horiz-adv-x="1086" 
d="M1101 1299h-696l32 155h696z" />
    <glyph glyph-name="degree" unicode="&#xb0;" horiz-adv-x="815" 
d="M594 894c-80.667 0 -149.167 28.5 -205.5 85.5s-84.5 126.167 -84.5 207.5s28.167 150.5 84.5 207.5s124.833 85.5 205.5 85.5s149.334 -28.5 206.001 -85.5s85 -126.167 85 -207.5s-28.333 -150.5 -85 -207.5s-125.334 -85.5 -206.001 -85.5zM594 1041
c41.333 0 76.666 14.333 105.999 43s44 63 44 103c0 40.667 -14.667 75.167 -44 103.5s-64.666 42.5 -105.999 42.5c-40 0 -74.833 -14.333 -104.5 -43s-44.5 -63 -44.5 -103s14.833 -74.333 44.5 -103s64.5 -43 104.5 -43z" />
    <glyph glyph-name="plusminus" unicode="&#xb1;" horiz-adv-x="1360" 
d="M1140 94h-1010l36 182h1011zM848 657l-58 -267h-188l58 267h-411l35 174h411l59 266h188l-59 -266h412l-35 -174h-412z" />
    <glyph glyph-name="two.sups" unicode="&#xb2;" horiz-adv-x="877" 
d="M353 1538c7.33301 87.333 44.833 158.998 112.5 214.998s150.834 84 249.501 84c90.667 0 165.334 -24 224.001 -72s88 -108.667 88 -182c0 -55.333 -18.333 -107.166 -55 -155.499s-106.334 -111.5 -209.001 -189.5c-128 -99.333 -196.333 -152 -205 -158l-2 -11h388
l-35 -171h-673l32 155l344 269c85.333 66 141.666 114.833 168.999 146.5s41 63.167 41 94.5s-11.667 56.833 -35 76.5s-53.333 29.5 -90 29.5c-38.667 0 -72 -11.667 -100 -35s-45.667 -54.666 -53 -93.999v-2h-191z" />
    <glyph glyph-name="three.sups" unicode="&#xb3;" horiz-adv-x="895" 
d="M535 1293l29.999 151h119c45.333 0 82.666 11.833 111.999 35.5s44 53.834 44 90.501c0 30.667 -12.167 55.334 -36.5 74.001s-56.166 28 -95.499 28c-35.333 0 -66.5 -9.33301 -93.5 -28s-45.5 -43.334 -55.5 -74.001h-190
c16.667 81.333 57.334 146.166 122.001 194.499s142.667 72.5 234 72.5c92 0 167.667 -22.833 227 -68.5s89 -103.5 89 -173.5c0 -59.333 -20.333 -110.5 -61 -153.5s-92.334 -68.167 -155.001 -75.5l-1 -12c50.667 -11.333 89.834 -33.333 117.501 -66
s41.5 -73.667 41.5 -123c0 -85.333 -34.5 -155.333 -103.5 -210s-157.167 -82 -264.5 -82c-108.667 0 -196 29.5 -262 88.5s-93.667 132.167 -83 219.5h195c-0.666992 -40 12.833 -72.333 40.5 -97s64.5 -37 110.5 -37c48.667 0 87.834 12.5 117.501 37.5
s44.5 58.167 44.5 99.5c0 32 -13.333 58.167 -40 78.5s-61.334 30.5 -104.001 30.5h-99z" />
    <glyph glyph-name="acute" unicode="&#xb4;" horiz-adv-x="1085" 
d="M495 1271l324 344h252l-354 -344h-222z" />
    <glyph glyph-name="paragraph" unicode="&#xb6;" horiz-adv-x="1399" 
d="M790 -237l-216 -0.00195312l164 762c-122 4.66699 -220.833 43.667 -296.5 117s-113.5 166 -113.5 278c0 152.667 54.167 277.334 162.5 374.001s249.5 146.334 423.5 149.001h233zM945 -237.002l356 1680h216l-356 -1680h-216z" />
    <glyph glyph-name="periodcentered" unicode="&#xb7;" horiz-adv-x="663" 
d="M424 579c-46.667 0 -84.5 14.668 -113.5 44.001s-43.5 66.333 -43.5 111c0 46.667 14.5 85.167 43.5 115.5s66.833 45.5 113.5 45.5c46 0 83.333 -14.833 112 -44.5s43 -66.834 43 -111.501c0 -46.667 -14.333 -85 -43 -115s-66 -45 -112 -45z" />
    <glyph glyph-name="cedilla" unicode="&#xb8;" horiz-adv-x="1086" 
d="M268 -233l14 101.999l107 166h156l-105 -165c114.667 -15.333 172 -68.666 172 -159.999c0 -60 -23.5 -108.667 -70.5 -146s-107.833 -56 -182.5 -56c-66.667 0 -126.334 12 -179.001 36l25 119c42 -18 90.333 -27 145 -27c30.667 0 54.834 5.66699 72.501 17
s26.5 27 26.5 47c0 44.667 -42.333 67 -127 67h-54z" />
    <glyph glyph-name="one.sups" unicode="&#xb9;" horiz-adv-x="708" 
d="M443 898l151 705h-12l-254 -150l41 199l269 160h207l-194 -914h-208z" />
    <glyph glyph-name="ordmasculine" unicode="&#xba;" horiz-adv-x="1053" 
d="M710 1286c-78 0 -143.334 -34.168 -196.001 -102.501s-79 -153.166 -79 -254.499c0 -77.333 17.333 -137.833 52 -181.5s82.667 -65.5 144 -65.5c76.667 0 141.834 35.5 195.501 106.5s80.5 157.167 80.5 258.5c0 74 -17.667 132.333 -53 175s-83.333 64 -144 64z
M614.999 502.999c-120.667 0 -216.336 37.168 -287.003 111.501s-106 174.833 -106 301.5c0 156.667 48.333 287.5 145 392.5s217.334 157.5 362.001 157.5c120.667 0 215.834 -37 285.501 -111s104.5 -175 104.5 -303c0 -156.667 -48.167 -287.334 -144.5 -392.001
s-216.166 -157 -359.499 -157z" />
    <glyph glyph-name="guillemotright" unicode="&#xbb;" horiz-adv-x="1413" 
d="M601 593l-249 390h216l262 -414l-2 -8l-434 -413h-244l449 431zM1092 590l-248 393h217l262 -414l-2 -8l-432 -413h-247l447 429z" />
    <glyph glyph-name="onequarter" unicode="&#xbc;" horiz-adv-x="2135" 
d="M1673 0l32.999 153h-449l34 192c90.667 123.333 248.334 313 473.001 569h300l-126 -589h116l-34 -172h-117l-33 -153h-197zM1476 328l-2.00098 -10h270l94 437h-10c-135.333 -152.667 -252.666 -295 -351.999 -427zM456.998 529l151 705h-12l-254 -150l41 199l269 160
h207l-194 -914h-208zM531.998 0l516 757l450 686h210l-502 -733l-464 -710h-210z" />
    <glyph glyph-name="onehalf" unicode="&#xbd;" horiz-adv-x="2126" 
d="M1432 640c7.33301 87.333 44.833 158.998 112.5 214.998s150.834 84 249.501 84c90.667 0 165.334 -24 224.001 -72s88 -108.667 88 -182c0 -55.333 -18.333 -107.166 -55 -155.499s-106.334 -111.5 -209.001 -189.5c-128 -99.333 -196.333 -152 -205 -158l-2 -11h388
l-35 -171h-673l32 155l344 269c85.333 66 141.666 114.833 168.999 146.5s41 63.167 41 94.5s-11.667 56.833 -35 76.5s-53.333 29.5 -90 29.5c-38.667 0 -72 -11.667 -100 -35s-45.667 -54.666 -53 -93.999v-2h-191zM457 528.998l151 705h-12l-254 -150l41 199l269 160h207
l-194 -914h-208zM532 -0.00195312l516 757l450 686h210l-502 -733l-464 -710h-210z" />
    <glyph glyph-name="threequarters" unicode="&#xbe;" horiz-adv-x="2270" 
d="M477 924l29.999 151h119c45.333 0 82.666 11.833 111.999 35.5s44 53.834 44 90.501c0 30.667 -12.167 55.334 -36.5 74.001s-56.166 28 -95.499 28c-35.333 0 -66.5 -9.33301 -93.5 -28s-45.5 -43.334 -55.5 -74.001h-190c16.667 81.333 57.334 146.166 122.001 194.499
s142.667 72.5 234 72.5c92 0 167.667 -22.833 227 -68.5s89 -103.5 89 -173.5c0 -59.333 -20.333 -110.5 -61 -153.5s-92.334 -68.167 -155.001 -75.5l-1 -12c50.667 -11.333 89.834 -33.333 117.501 -66s41.5 -73.667 41.5 -123c0 -85.333 -34.5 -155.333 -103.5 -210
s-157.167 -82 -264.5 -82c-108.667 0 -196 29.5 -262 88.5s-93.667 132.167 -83 219.5h195c-0.666992 -40 12.833 -72.333 40.5 -97s64.5 -37 110.5 -37c48.667 0 87.834 12.5 117.501 37.5s44.5 58.167 44.5 99.5c0 32 -13.333 58.167 -40 78.5s-61.334 30.5 -104.001 30.5
h-99zM1808 0l32.999 153h-449l34 192c90.667 123.333 248.334 313 473.001 569h300l-126 -589h116l-34 -172h-117l-33 -153h-197zM1611 328l-2.00098 -10h270l94 437h-10c-135.333 -152.667 -252.666 -295 -351.999 -427zM666.997 0l516 757l450 686h210l-502 -733
l-464 -710h-210z" />
    <glyph glyph-name="questiondown" unicode="&#xbf;" horiz-adv-x="1082" 
d="M718 1134c45.333 0 82.5 -14 111.5 -42s43.5 -63.667 43.5 -107c0 -46 -14.5 -83.833 -43.5 -113.5s-66.167 -44.5 -111.5 -44.5s-82.5 14 -111.5 42s-43.5 64 -43.5 108c0 44.667 14.5 82 43.5 112s66.167 45 111.5 45zM736 37l210.001 0.00195312
c-20.667 -116 -72.5 -208.667 -155.5 -278s-189.833 -104 -320.5 -104c-128.667 0 -233.167 32.667 -313.5 98s-120.5 147 -120.5 245c0 84.667 26.167 162.167 78.5 232.5s122.166 125.166 209.499 164.499c73.333 32.667 125.333 64.167 156 94.5s50.667 70.5 60 120.5
l10 52h212l-16 -73c-16.667 -84.667 -44.5 -149.167 -83.5 -193.5s-98.5 -84.5 -178.5 -120.5c-76.667 -36 -132.167 -74.333 -166.5 -115s-51.5 -87.667 -51.5 -141c0 -48 19.333 -88.5 58 -121.5s91.667 -49.5 159 -49.5c62 0 115.333 16.667 160 50
s75.667 79.666 93 138.999z" />
    <glyph glyph-name="Agrave" unicode="&#xc0;" horiz-adv-x="1423" 
d="M1062 0l-50 383h-554l-215 -383h-237l836 1443h232l212 -1443h-224zM896 1179l-342 -608h440l-82 608h-16zM907 1888l181 -306h-213l-210 306h242z" />
    <glyph glyph-name="Aacute" unicode="&#xc1;" horiz-adv-x="1423" 
d="M1062 0l-50 383h-554l-215 -383h-237l836 1443h232l212 -1443h-224zM896 1179l-342 -608h440l-82 608h-16zM876 1582l362 306h258l-390 -306h-230z" />
    <glyph glyph-name="Acircumflex" unicode="&#xc2;" horiz-adv-x="1423" 
d="M1062 0l-50 383h-554l-215 -383h-237l836 1443h232l212 -1443h-224zM896 1179l-342 -608h440l-82 608h-16zM1158 1896l185 -314h-208l-100 188h-17l-179 -188h-231l316 314h234z" />
    <glyph glyph-name="Atilde" unicode="&#xc3;" horiz-adv-x="1423" 
d="M1062 0l-50 383h-554l-215 -383h-237l836 1443h232l212 -1443h-224zM896 1179l-342 -608h440l-82 608h-16zM1173 1576c-30.667 0 -59.5 5.33203 -86.5 15.999s-49.667 23.667 -68 39s-35.5 30.5 -51.5 45.5s-32.333 27.833 -49 38.5s-33 16 -49 16
c-57.333 0 -93.333 -37.333 -108 -112h-156c12.667 82 43.167 146.5 91.5 193.5s105.5 70.5 171.5 70.5c30.667 0 59.167 -5.33301 85.5 -16s48.833 -23.5 67.5 -38.5s36 -30.167 52 -45.5s32.333 -28.333 49 -39s33 -16 49 -16c57.333 0 93.333 37.333 108 112h156
c-12 -81.333 -42.167 -145.666 -90.5 -192.999s-105.5 -71 -171.5 -71z" />
    <glyph glyph-name="Adieresis" unicode="&#xc4;" horiz-adv-x="1423" 
d="M1062 0l-50 383h-554l-215 -383h-237l836 1443h232l212 -1443h-224zM896 1179l-342 -608h440l-82 608h-16zM801 1577c-37.333 0 -68.833 12.833 -94.5 38.5s-38.5 57.5 -38.5 95.5s12.833 70 38.5 96s57.167 39 94.5 39c38 0 69.833 -13 95.5 -39s38.5 -58 38.5 -96
s-12.833 -69.833 -38.5 -95.5s-57.5 -38.5 -95.5 -38.5zM1228 1577c-37.333 0 -68.833 12.833 -94.5 38.5s-38.5 57.5 -38.5 95.5s12.833 70 38.5 96s57.167 39 94.5 39c38 0 69.833 -13 95.5 -39s38.5 -58 38.5 -96s-12.833 -69.833 -38.5 -95.5s-57.5 -38.5 -95.5 -38.5z
" />
    <glyph glyph-name="Aring" unicode="&#xc5;" horiz-adv-x="1423" 
d="M1062 0l-50 383h-554l-215 -383h-237l836 1443h232l212 -1443h-224zM896 1179l-342 -608h440l-82 608h-16zM1035 1574c-66 0 -122.002 22.5 -168.002 67.5s-69 100.5 -69 166.5s22.833 121.333 68.5 166s101.834 67 168.501 67s122.834 -22.333 168.501 -67
s68.5 -100 68.5 -166s-23 -121.5 -69 -166.5s-102 -67.5 -168 -67.5zM1035 1693c33.333 0 61 10.833 83 32.5s33 49.167 33 82.5c0 32.667 -11 59.834 -33 81.501s-49.667 32.5 -83 32.5s-61 -10.833 -83 -32.5s-33 -48.834 -33 -81.501c0 -33.333 11 -60.833 33 -82.5
s49.667 -32.5 83 -32.5z" />
    <glyph glyph-name="AE" unicode="&#xc6;" horiz-adv-x="1999" 
d="M1197 1253h-141l-427 -647h429zM928 0l92 417h-505l-280 -417h-230l938 1443h1163l-42 -204h-655l-91 -415h619l-40 -195h-618l-95 -425h656l-41 -204h-871z" />
    <glyph glyph-name="Ccedilla" unicode="&#xc7;" horiz-adv-x="1490" 
d="M1523 966l-223 -0.00292969c0.666992 0.666992 1 3 1 7c-6.66699 89.333 -41.834 160.666 -105.501 213.999s-145.5 80 -245.5 80c-97.333 0 -186.166 -30 -266.499 -90s-143.666 -142.667 -189.999 -248s-69.5 -221.666 -69.5 -348.999
c0 -124.667 32.833 -223.334 98.5 -296.001s154.5 -109 266.5 -109c92 0 173.5 22 244.5 66s119.167 102.333 144.5 175h229c-31.333 -126.667 -96.833 -229.667 -196.5 -309s-221.5 -125.666 -365.5 -138.999l-63 -99c114.667 -15.333 172 -68.666 172 -159.999
c0 -60 -23.5 -108.667 -70.5 -146s-107.833 -56 -182.5 -56c-66.667 0 -126.334 12 -179.001 36l25 119c42 -18 90.333 -27 145 -27c30.667 0 54.834 5.66699 72.501 17s26.5 27 26.5 47c0 44.667 -42.333 67 -127 67h-54l14 102l65 101
c-151.333 16.667 -271.833 78 -361.5 184s-134.5 241.667 -134.5 407c0 131.333 19.5 253.833 58.5 367.5s92.5 210.834 160.5 291.501s149.833 144 245.5 190s198.5 69 308.5 69c159.333 0 292.166 -46.667 398.499 -140s159.5 -210 159.5 -350
c0 -9.33301 -0.333008 -16.666 -1 -21.999z" />
    <glyph glyph-name="Egrave" unicode="&#xc8;" horiz-adv-x="1239" 
d="M829 1888l181 -306h-213l-210 306h242zM1073 204l-40 -204h-918l307 1443h917l-41 -204h-690l-91 -408h654l-40 -194h-653l-96 -433h691z" />
    <glyph glyph-name="Eacute" unicode="&#xc9;" horiz-adv-x="1239" 
d="M798 1582l362 306h258l-390 -306h-230zM1073 204l-40 -204h-918l307 1443h917l-41 -204h-690l-91 -408h654l-40 -194h-653l-96 -433h691z" />
    <glyph glyph-name="Ecircumflex" unicode="&#xca;" horiz-adv-x="1239" 
d="M1080 1896l185 -314h-208l-100 188h-17l-179 -188h-231l316 314h234zM1073 204l-40 -204h-918l307 1443h917l-41 -204h-690l-91 -408h654l-40 -194h-653l-96 -433h691z" />
    <glyph glyph-name="Edieresis" unicode="&#xcb;" horiz-adv-x="1239" 
d="M723 1577c-37.333 0 -68.833 12.833 -94.5 38.5s-38.5 57.5 -38.5 95.5s12.833 70 38.5 96s57.167 39 94.5 39c38 0 69.833 -13 95.5 -39s38.5 -58 38.5 -96s-12.833 -69.833 -38.5 -95.5s-57.5 -38.5 -95.5 -38.5zM1150 1577c-37.333 0 -68.833 12.833 -94.5 38.5
s-38.5 57.5 -38.5 95.5s12.833 70 38.5 96s57.167 39 94.5 39c38 0 69.833 -13 95.5 -39s38.5 -58 38.5 -96s-12.833 -69.833 -38.5 -95.5s-57.5 -38.5 -95.5 -38.5zM1073 204l-40 -204h-918l307 1443h917l-41 -204h-690l-91 -408h654l-40 -194h-653l-96 -433h691z" />
    <glyph glyph-name="Igrave" unicode="&#xcc;" horiz-adv-x="587" 
d="M342 0h-227l307 1443h227zM485 1888l181 -306h-213l-210 306h242z" />
    <glyph glyph-name="Iacute" unicode="&#xcd;" horiz-adv-x="587" 
d="M342 0h-227l307 1443h227zM454 1582l362 306h258l-390 -306h-230z" />
    <glyph glyph-name="Icircumflex" unicode="&#xce;" horiz-adv-x="587" 
d="M342 0h-227l307 1443h227zM736 1896l185 -314h-208l-100 188h-17l-179 -188h-231l316 314h234z" />
    <glyph glyph-name="Idieresis" unicode="&#xcf;" horiz-adv-x="587" 
d="M342 0h-227l307 1443h227zM379 1577c-37.333 0 -68.833 12.833 -94.5 38.5s-38.5 57.5 -38.5 95.5s12.833 70 38.5 96s57.167 39 94.5 39c38 0 69.833 -13 95.5 -39s38.5 -58 38.5 -96s-12.833 -69.833 -38.5 -95.5s-57.5 -38.5 -95.5 -38.5zM806 1577
c-37.333 0 -68.833 12.833 -94.5 38.5s-38.5 57.5 -38.5 95.5s12.833 70 38.5 96s57.167 39 94.5 39c38 0 69.833 -13 95.5 -39s38.5 -58 38.5 -96s-12.833 -69.833 -38.5 -95.5s-57.5 -38.5 -95.5 -38.5z" />
    <glyph glyph-name="Eth" unicode="&#xd0;" horiz-adv-x="1497" 
d="M383 202l342 -0.000976562c150.667 0 275.5 57.333 374.5 172s148.5 260.334 148.5 437.001c0 134.667 -36.667 240 -110 316s-176 114 -308 114h-221l-89 -407h192l-39 -191h-194zM422 1443l442 -0.000976562c194 0 345 -54.167 453 -162.5s162 -258.166 162 -449.499
c0 -156.667 -32.5 -298.5 -97.5 -425.5s-154.667 -226.333 -269 -298s-241.833 -107.5 -382.5 -107.5h-614l136 643h-190l39 191h192z" />
    <glyph glyph-name="Ntilde" unicode="&#xd1;" horiz-adv-x="1539" 
d="M1226 1576c-30.667 0 -59.5 5.33203 -86.5 15.999s-49.667 23.667 -68 39s-35.5 30.5 -51.5 45.5s-32.333 27.833 -49 38.5s-33 16 -49 16c-57.333 0 -93.333 -37.333 -108 -112h-156c12.667 82 43.167 146.5 91.5 193.5s105.5 70.5 171.5 70.5
c30.667 0 59.167 -5.33301 85.5 -16s48.833 -23.5 67.5 -38.5s36 -30.167 52 -45.5s32.333 -28.333 49 -39s33 -16 49 -16c57.333 0 93.333 37.333 108 112h156c-12 -81.333 -42.167 -145.666 -90.5 -192.999s-105.5 -71 -171.5 -71zM337 -0.000976562h-222l307 1443h196
l514 -1055h17l229 1055h223l-307 -1443h-198l-514 1051h-17z" />
    <glyph glyph-name="Ograve" unicode="&#xd2;" horiz-adv-x="1593" 
d="M925 1886l181 -306h-213l-210 306h242zM793 -35c-115.333 0 -218.832 26.1641 -310.499 78.4971s-162.667 124.333 -213 216s-75.5 194.834 -75.5 309.501c0 173.333 34 329.333 102 468s161.667 246.834 281 324.501s253 116.5 401 116.5c116 0 219.5 -26 310.5 -78
s161.333 -123.833 211 -215.5s74.5 -195.167 74.5 -310.5c0 -130.667 -19.667 -252.5 -59 -365.5s-93.5 -209.167 -162.5 -288.5s-151.833 -141.666 -248.5 -186.999s-200.334 -68 -311.001 -68zM1341 854.997c0 122.667 -34.668 221.832 -104.001 297.499
s-160 113.5 -272 113.5c-100 0 -191.167 -29.667 -273.5 -89s-147 -140.833 -194 -244.5s-70.5 -218.834 -70.5 -345.501c0 -123.333 34.833 -222.666 104.5 -297.999s161.5 -113 275.5 -113c100.667 0 191.834 29.333 273.501 88s145.5 139.834 191.5 243.501
s69 219.5 69 347.5z" />
    <glyph glyph-name="Oacute" unicode="&#xd3;" horiz-adv-x="1593" 
d="M894 1580l362 306h258l-390 -306h-230zM793 -35c-115.333 0 -218.832 26.1641 -310.499 78.4971s-162.667 124.333 -213 216s-75.5 194.834 -75.5 309.501c0 173.333 34 329.333 102 468s161.667 246.834 281 324.501s253 116.5 401 116.5c116 0 219.5 -26 310.5 -78
s161.333 -123.833 211 -215.5s74.5 -195.167 74.5 -310.5c0 -130.667 -19.667 -252.5 -59 -365.5s-93.5 -209.167 -162.5 -288.5s-151.833 -141.666 -248.5 -186.999s-200.334 -68 -311.001 -68zM1341 854.997c0 122.667 -34.668 221.832 -104.001 297.499
s-160 113.5 -272 113.5c-100 0 -191.167 -29.667 -273.5 -89s-147 -140.833 -194 -244.5s-70.5 -218.834 -70.5 -345.501c0 -123.333 34.833 -222.666 104.5 -297.999s161.5 -113 275.5 -113c100.667 0 191.834 29.333 273.501 88s145.5 139.834 191.5 243.501
s69 219.5 69 347.5z" />
    <glyph glyph-name="Ocircumflex" unicode="&#xd4;" horiz-adv-x="1593" 
d="M1176 1894l185 -314h-208l-100 188h-17l-179 -188h-231l316 314h234zM793 -35c-115.333 0 -218.832 26.1641 -310.499 78.4971s-162.667 124.333 -213 216s-75.5 194.834 -75.5 309.501c0 173.333 34 329.333 102 468s161.667 246.834 281 324.501s253 116.5 401 116.5
c116 0 219.5 -26 310.5 -78s161.333 -123.833 211 -215.5s74.5 -195.167 74.5 -310.5c0 -130.667 -19.667 -252.5 -59 -365.5s-93.5 -209.167 -162.5 -288.5s-151.833 -141.666 -248.5 -186.999s-200.334 -68 -311.001 -68zM1341 854.997
c0 122.667 -34.668 221.832 -104.001 297.499s-160 113.5 -272 113.5c-100 0 -191.167 -29.667 -273.5 -89s-147 -140.833 -194 -244.5s-70.5 -218.834 -70.5 -345.501c0 -123.333 34.833 -222.666 104.5 -297.999s161.5 -113 275.5 -113
c100.667 0 191.834 29.333 273.501 88s145.5 139.834 191.5 243.501s69 219.5 69 347.5z" />
    <glyph glyph-name="Otilde" unicode="&#xd5;" horiz-adv-x="1593" 
d="M793 -35c-115.333 0 -218.832 26.1641 -310.499 78.4971s-162.667 124.333 -213 216s-75.5 194.834 -75.5 309.501c0 173.333 34 329.333 102 468s161.667 246.834 281 324.501s253 116.5 401 116.5c116 0 219.5 -26 310.5 -78s161.333 -123.833 211 -215.5
s74.5 -195.167 74.5 -310.5c0 -130.667 -19.667 -252.5 -59 -365.5s-93.5 -209.167 -162.5 -288.5s-151.833 -141.666 -248.5 -186.999s-200.334 -68 -311.001 -68zM1341 854.997c0 122.667 -34.668 221.832 -104.001 297.499s-160 113.5 -272 113.5
c-100 0 -191.167 -29.667 -273.5 -89s-147 -140.833 -194 -244.5s-70.5 -218.834 -70.5 -345.501c0 -123.333 34.833 -222.666 104.5 -297.999s161.5 -113 275.5 -113c100.667 0 191.834 29.333 273.501 88s145.5 139.834 191.5 243.501s69 219.5 69 347.5zM1191 1574
c-30.667 0 -59.5 5.33203 -86.5 15.999s-49.667 23.667 -68 39s-35.5 30.5 -51.5 45.5s-32.333 27.833 -49 38.5s-33 16 -49 16c-57.333 0 -93.333 -37.333 -108 -112h-156c12.667 82 43.167 146.5 91.5 193.5s105.5 70.5 171.5 70.5c30.667 0 59.167 -5.33301 85.5 -16
s48.833 -23.5 67.5 -38.5s36 -30.167 52 -45.5s32.333 -28.333 49 -39s33 -16 49 -16c57.333 0 93.333 37.333 108 112h156c-12 -81.333 -42.167 -145.666 -90.5 -192.999s-105.5 -71 -171.5 -71z" />
    <glyph glyph-name="Odieresis" unicode="&#xd6;" horiz-adv-x="1593" 
d="M819 1575c-37.333 0 -68.833 12.833 -94.5 38.5s-38.5 57.5 -38.5 95.5s12.833 70 38.5 96s57.167 39 94.5 39c38 0 69.833 -13 95.5 -39s38.5 -58 38.5 -96s-12.833 -69.833 -38.5 -95.5s-57.5 -38.5 -95.5 -38.5zM1246 1575c-37.333 0 -68.833 12.833 -94.5 38.5
s-38.5 57.5 -38.5 95.5s12.833 70 38.5 96s57.167 39 94.5 39c38 0 69.833 -13 95.5 -39s38.5 -58 38.5 -96s-12.833 -69.833 -38.5 -95.5s-57.5 -38.5 -95.5 -38.5zM793 -35c-115.333 0 -218.832 26.1641 -310.499 78.4971s-162.667 124.333 -213 216
s-75.5 194.834 -75.5 309.501c0 173.333 34 329.333 102 468s161.667 246.834 281 324.501s253 116.5 401 116.5c116 0 219.5 -26 310.5 -78s161.333 -123.833 211 -215.5s74.5 -195.167 74.5 -310.5c0 -130.667 -19.667 -252.5 -59 -365.5s-93.5 -209.167 -162.5 -288.5
s-151.833 -141.666 -248.5 -186.999s-200.334 -68 -311.001 -68zM1341 854.997c0 122.667 -34.668 221.832 -104.001 297.499s-160 113.5 -272 113.5c-100 0 -191.167 -29.667 -273.5 -89s-147 -140.833 -194 -244.5s-70.5 -218.834 -70.5 -345.501
c0 -123.333 34.833 -222.666 104.5 -297.999s161.5 -113 275.5 -113c100.667 0 191.834 29.333 273.501 88s145.5 139.834 191.5 243.501s69 219.5 69 347.5z" />
    <glyph glyph-name="multiply" unicode="&#xd7;" horiz-adv-x="1359" 
d="M949 130l-233 307l-368 -295l-112 155l368 295l-237 311l157 127l235 -306l369 295l112 -156l-368 -295l234 -311z" />
    <glyph glyph-name="Oslash" unicode="&#xd8;" horiz-adv-x="1566" 
d="M1255 1132l-654.001 -900.001c59.333 -37.333 128 -56 206 -56c100.667 0 191.834 29.333 273.501 88s145.5 139.834 191.5 243.501s69 219.5 69 347.5c0 110.667 -28.667 203 -86 277zM509.999 314.999l655 897.001c-57.333 36 -124 54 -200 54
c-100 0 -191.167 -29.667 -273.5 -89s-147 -140.833 -194 -244.5s-70.5 -218.834 -70.5 -345.501c0 -108 27.667 -198.667 83 -272zM1473 1432l-79.998 -110c58 -54.667 102.667 -120.334 134 -197.001s47 -160.334 47 -251.001c0 -130.667 -19.667 -252.5 -59 -365.5
s-93.5 -209.167 -162.5 -288.5s-151.833 -141.666 -248.5 -186.999s-200.334 -68 -311.001 -68c-120.667 0 -228.334 28.667 -323.001 86l-78 -107l-101 71l81 111c-56.667 54.667 -100.5 120 -131.5 196s-46.5 158.333 -46.5 247c0 173.333 34 329.333 102 468
s161.667 246.834 281 324.501s253 116.5 401 116.5c120 0 226.667 -28 320 -84l74 102z" />
    <glyph glyph-name="Ugrave" unicode="&#xd9;" horiz-adv-x="1538" 
d="M959 1888l181 -306h-213l-210 306h242zM750 -35c-163.333 0 -291.334 42.834 -384.001 128.501s-139.667 195.5 -141 329.5c-0.666992 38.667 3.66602 81 12.999 127l187 893h228l-186 -882c-8.66699 -43.333 -12.667 -83.333 -12 -120
c2.66699 -82.667 31.334 -147.5 86.001 -194.5s133.334 -70.5 236.001 -70.5c100 0 185 28.667 255 86s116.333 137 139 239l201 942h227l-210 -992c-33.333 -154.667 -104.333 -274.334 -213 -359.001s-250.667 -127 -426 -127z" />
    <glyph glyph-name="Uacute" unicode="&#xda;" horiz-adv-x="1538" 
d="M928 1582l362 306h258l-390 -306h-230zM750 -35c-163.333 0 -291.334 42.834 -384.001 128.501s-139.667 195.5 -141 329.5c-0.666992 38.667 3.66602 81 12.999 127l187 893h228l-186 -882c-8.66699 -43.333 -12.667 -83.333 -12 -120
c2.66699 -82.667 31.334 -147.5 86.001 -194.5s133.334 -70.5 236.001 -70.5c100 0 185 28.667 255 86s116.333 137 139 239l201 942h227l-210 -992c-33.333 -154.667 -104.333 -274.334 -213 -359.001s-250.667 -127 -426 -127z" />
    <glyph glyph-name="Ucircumflex" unicode="&#xdb;" horiz-adv-x="1538" 
d="M1210 1896l185 -314h-208l-100 188h-17l-179 -188h-231l316 314h234zM750 -35c-163.333 0 -291.334 42.834 -384.001 128.501s-139.667 195.5 -141 329.5c-0.666992 38.667 3.66602 81 12.999 127l187 893h228l-186 -882c-8.66699 -43.333 -12.667 -83.333 -12 -120
c2.66699 -82.667 31.334 -147.5 86.001 -194.5s133.334 -70.5 236.001 -70.5c100 0 185 28.667 255 86s116.333 137 139 239l201 942h227l-210 -992c-33.333 -154.667 -104.333 -274.334 -213 -359.001s-250.667 -127 -426 -127z" />
    <glyph glyph-name="Udieresis" unicode="&#xdc;" horiz-adv-x="1538" 
d="M853 1577c-37.333 0 -68.833 12.833 -94.5 38.5s-38.5 57.5 -38.5 95.5s12.833 70 38.5 96s57.167 39 94.5 39c38 0 69.833 -13 95.5 -39s38.5 -58 38.5 -96s-12.833 -69.833 -38.5 -95.5s-57.5 -38.5 -95.5 -38.5zM1280 1577c-37.333 0 -68.833 12.833 -94.5 38.5
s-38.5 57.5 -38.5 95.5s12.833 70 38.5 96s57.167 39 94.5 39c38 0 69.833 -13 95.5 -39s38.5 -58 38.5 -96s-12.833 -69.833 -38.5 -95.5s-57.5 -38.5 -95.5 -38.5zM750 -35c-163.333 0 -291.334 42.834 -384.001 128.501s-139.667 195.5 -141 329.5
c-0.666992 38.667 3.66602 81 12.999 127l187 893h228l-186 -882c-8.66699 -43.333 -12.667 -83.333 -12 -120c2.66699 -82.667 31.334 -147.5 86.001 -194.5s133.334 -70.5 236.001 -70.5c100 0 185 28.667 255 86s116.333 137 139 239l201 942h227l-210 -992
c-33.333 -154.667 -104.333 -274.334 -213 -359.001s-250.667 -127 -426 -127z" />
    <glyph glyph-name="Yacute" unicode="&#xdd;" horiz-adv-x="1383" 
d="M740 0h-227l126 582l-327 861h234l242 -631h17l497 631h251l-693 -881zM850 1582l362 306h258l-390 -306h-230z" />
    <glyph glyph-name="Thorn" unicode="&#xde;" horiz-adv-x="1317" 
d="M116 0l307 1443h223l-55 -251h310c118 0 214.5 -34.833 289.5 -104.5s112.5 -159.5 112.5 -269.5c0 -145.333 -52.167 -264.166 -156.5 -356.499s-239.833 -138.5 -406.5 -138.5h-331l-70 -323h-223zM551 992.999l-102 -472.001h274c109.333 0 195 24.333 257 73
s93 115.667 93 201c0 62.667 -20.833 111.334 -62.5 146.001s-102.5 52 -182.5 52h-277z" />
    <glyph glyph-name="germandbls" unicode="&#xdf;" horiz-adv-x="1362" 
d="M359 0l-216.004 -0.00195312l230 1079c23.333 110.667 77.333 197.834 162 261.501s189.334 95.5 314.001 95.5c123.333 0 225.333 -32.667 306 -98s121 -148 121 -248c0 -90.667 -29.833 -167.667 -89.5 -231s-136.5 -100.333 -230.5 -111l-4 -19
c94.667 -12.667 169.334 -46 224.001 -100s82 -122 82 -204c0 -130 -47.333 -236.333 -142 -319s-215.667 -124 -363 -124c-83.333 0 -157.666 12.333 -222.999 37l39 188c50.667 -22 110 -33 178 -33c83.333 0 153.5 24.333 210.5 73s85.5 108.667 85.5 180
c0 63.333 -25.667 113.5 -77 150.5s-120.333 55.5 -207 55.5h-72l41 202h77c70 0 129.833 21.167 179.5 63.5s74.5 93.833 74.5 154.5c0 56.667 -20.167 102.334 -60.5 137.001s-93.166 52 -158.499 52c-68.667 0 -126.167 -20.5 -172.5 -61.5s-77.833 -99.167 -94.5 -174.5
z" />
    <glyph glyph-name="agrave" unicode="&#xe0;" horiz-adv-x="1153" 
d="M506 161c73.333 0 138.499 21.167 195.499 63.5s92.833 95.5 107.5 159.5l25 112l-265 -12c-80 -3.33301 -142.5 -20.5 -187.5 -51.5s-67.5 -71.833 -67.5 -122.5c0 -43.333 17.833 -79 53.5 -107s81.834 -42 138.501 -42zM426.999 -18
c-94 0 -172.332 28.501 -234.999 85.501s-94 128.167 -94 213.5c0 108.667 41.167 194.667 123.5 258s199.166 97.666 350.499 102.999l295 12l15 71c4 20.667 6 36 6 46c0 47.333 -19 84.5 -57 111.5s-90.333 40.5 -157 40.5c-55.333 0 -102.166 -10.167 -140.499 -30.5
s-65.5 -49.833 -81.5 -88.5h-215c23.333 94 76 168.5 158 223.5s180.667 82.5 296 82.5c124 0 223.667 -28.5 299 -85.5s113 -132.5 113 -226.5c0 -30.667 -3 -60 -9 -88l-150 -710h-209l30 139h-17c-36 -48.667 -82.333 -87 -139 -115s-117.334 -42 -182.001 -42zM835 1271
h-216l-222 344h247z" />
    <glyph glyph-name="aacute" unicode="&#xe1;" horiz-adv-x="1153" 
d="M506 161c73.333 0 138.499 21.167 195.499 63.5s92.833 95.5 107.5 159.5l25 112l-265 -12c-80 -3.33301 -142.5 -20.5 -187.5 -51.5s-67.5 -71.833 -67.5 -122.5c0 -43.333 17.833 -79 53.5 -107s81.834 -42 138.501 -42zM426.999 -18
c-94 0 -172.332 28.501 -234.999 85.501s-94 128.167 -94 213.5c0 108.667 41.167 194.667 123.5 258s199.166 97.666 350.499 102.999l295 12l15 71c4 20.667 6 36 6 46c0 47.333 -19 84.5 -57 111.5s-90.333 40.5 -157 40.5c-55.333 0 -102.166 -10.167 -140.499 -30.5
s-65.5 -49.833 -81.5 -88.5h-215c23.333 94 76 168.5 158 223.5s180.667 82.5 296 82.5c124 0 223.667 -28.5 299 -85.5s113 -132.5 113 -226.5c0 -30.667 -3 -60 -9 -88l-150 -710h-209l30 139h-17c-36 -48.667 -82.333 -87 -139 -115s-117.334 -42 -182.001 -42zM636 1271
l324 344h252l-354 -344h-222z" />
    <glyph glyph-name="acircumflex" unicode="&#xe2;" horiz-adv-x="1153" 
d="M506 161c73.333 0 138.499 21.167 195.499 63.5s92.833 95.5 107.5 159.5l25 112l-265 -12c-80 -3.33301 -142.5 -20.5 -187.5 -51.5s-67.5 -71.833 -67.5 -122.5c0 -43.333 17.833 -79 53.5 -107s81.834 -42 138.501 -42zM426.999 -18
c-94 0 -172.332 28.501 -234.999 85.501s-94 128.167 -94 213.5c0 108.667 41.167 194.667 123.5 258s199.166 97.666 350.499 102.999l295 12l15 71c4 20.667 6 36 6 46c0 47.333 -19 84.5 -57 111.5s-90.333 40.5 -157 40.5c-55.333 0 -102.166 -10.167 -140.499 -30.5
s-65.5 -49.833 -81.5 -88.5h-215c23.333 94 76 168.5 158 223.5s180.667 82.5 296 82.5c124 0 223.667 -28.5 299 -85.5s113 -132.5 113 -226.5c0 -30.667 -3 -60 -9 -88l-150 -710h-209l30 139h-17c-36 -48.667 -82.333 -87 -139 -115s-117.334 -42 -182.001 -42zM916 1584
l207 -346h-210l-120 219h-17l-213 -219h-233l352 346h234z" />
    <glyph glyph-name="atilde" unicode="&#xe3;" horiz-adv-x="1153" 
d="M506 161c73.333 0 138.499 21.167 195.499 63.5s92.833 95.5 107.5 159.5l25 112l-265 -12c-80 -3.33301 -142.5 -20.5 -187.5 -51.5s-67.5 -71.833 -67.5 -122.5c0 -43.333 17.833 -79 53.5 -107s81.834 -42 138.501 -42zM426.999 -18
c-94 0 -172.332 28.501 -234.999 85.501s-94 128.167 -94 213.5c0 108.667 41.167 194.667 123.5 258s199.166 97.666 350.499 102.999l295 12l15 71c4 20.667 6 36 6 46c0 47.333 -19 84.5 -57 111.5s-90.333 40.5 -157 40.5c-55.333 0 -102.166 -10.167 -140.499 -30.5
s-65.5 -49.833 -81.5 -88.5h-215c23.333 94 76 168.5 158 223.5s180.667 82.5 296 82.5c124 0 223.667 -28.5 299 -85.5s113 -132.5 113 -226.5c0 -30.667 -3 -60 -9 -88l-150 -710h-209l30 139h-17c-36 -48.667 -82.333 -87 -139 -115s-117.334 -42 -182.001 -42zM936 1230
c-32 0 -61.335 6 -88.002 18s-48.667 26.667 -66 44s-33.666 34.5 -48.999 51.5s-31.166 31.5 -47.499 43.5s-32.833 18 -49.5 18c-55.333 0 -91 -44 -107 -132h-157c10 88.667 39.333 158.167 88 208.5s107.667 75.5 177 75.5c38.667 0 73.834 -9.16699 105.501 -27.5
s56.167 -38.333 73.5 -60s36.666 -41.667 57.999 -60s42.333 -27.5 63 -27.5c56 0 92 44 108 132h157c-10.667 -88 -40.167 -157.333 -88.5 -208s-107.5 -76 -177.5 -76z" />
    <glyph glyph-name="adieresis" unicode="&#xe4;" horiz-adv-x="1153" 
d="M506 161c73.333 0 138.499 21.167 195.499 63.5s92.833 95.5 107.5 159.5l25 112l-265 -12c-80 -3.33301 -142.5 -20.5 -187.5 -51.5s-67.5 -71.833 -67.5 -122.5c0 -43.333 17.833 -79 53.5 -107s81.834 -42 138.501 -42zM426.999 -18
c-94 0 -172.332 28.501 -234.999 85.501s-94 128.167 -94 213.5c0 108.667 41.167 194.667 123.5 258s199.166 97.666 350.499 102.999l295 12l15 71c4 20.667 6 36 6 46c0 47.333 -19 84.5 -57 111.5s-90.333 40.5 -157 40.5c-55.333 0 -102.166 -10.167 -140.499 -30.5
s-65.5 -49.833 -81.5 -88.5h-215c23.333 94 76 168.5 158 223.5s180.667 82.5 296 82.5c124 0 223.667 -28.5 299 -85.5s113 -132.5 113 -226.5c0 -30.667 -3 -60 -9 -88l-150 -710h-209l30 139h-17c-36 -48.667 -82.333 -87 -139 -115s-117.334 -42 -182.001 -42zM552 1238
c-37.333 0 -68.833 12.833 -94.5 38.5s-38.5 57.5 -38.5 95.5s12.833 70 38.5 96s57.167 39 94.5 39c38 0 69.833 -13 95.5 -39s38.5 -58 38.5 -96s-12.833 -69.833 -38.5 -95.5s-57.5 -38.5 -95.5 -38.5zM979 1238c-37.333 0 -68.833 12.833 -94.5 38.5
s-38.5 57.5 -38.5 95.5s12.833 70 38.5 96s57.167 39 94.5 39c38 0 69.833 -13 95.5 -39s38.5 -58 38.5 -96s-12.833 -69.833 -38.5 -95.5s-57.5 -38.5 -95.5 -38.5z" />
    <glyph glyph-name="aring" unicode="&#xe5;" horiz-adv-x="1153" 
d="M506 161c73.333 0 138.499 21.167 195.499 63.5s92.833 95.5 107.5 159.5l25 112l-265 -12c-80 -3.33301 -142.5 -20.5 -187.5 -51.5s-67.5 -71.833 -67.5 -122.5c0 -43.333 17.833 -79 53.5 -107s81.834 -42 138.501 -42zM426.999 -18
c-94 0 -172.332 28.501 -234.999 85.501s-94 128.167 -94 213.5c0 108.667 41.167 194.667 123.5 258s199.166 97.666 350.499 102.999l295 12l15 71c4 20.667 6 36 6 46c0 47.333 -19 84.5 -57 111.5s-90.333 40.5 -157 40.5c-55.333 0 -102.166 -10.167 -140.499 -30.5
s-65.5 -49.833 -81.5 -88.5h-215c23.333 94 76 168.5 158 223.5s180.667 82.5 296 82.5c124 0 223.667 -28.5 299 -85.5s113 -132.5 113 -226.5c0 -30.667 -3 -60 -9 -88l-150 -710h-209l30 139h-17c-36 -48.667 -82.333 -87 -139 -115s-117.334 -42 -182.001 -42zM800 1238
c-66 0 -122.002 22.5 -168.002 67.5s-69 100.5 -69 166.5s22.833 121.333 68.5 166s101.834 67 168.501 67s122.834 -22.333 168.501 -67s68.5 -100 68.5 -166s-23 -121.5 -69 -166.5s-102 -67.5 -168 -67.5zM799.998 1357c33.333 0 61 10.833 83 32.5s33 49.167 33 82.5
c0 32.667 -11 59.834 -33 81.501s-49.667 32.5 -83 32.5s-61 -10.833 -83 -32.5s-33 -48.834 -33 -81.501c0 -33.333 11 -60.833 33 -82.5s49.667 -32.5 83 -32.5z" />
    <glyph glyph-name="ae" unicode="&#xe6;" horiz-adv-x="1887" 
d="M1281 -21c-83.333 0 -161.171 20.498 -233.504 61.498s-122.833 94.833 -151.5 161.5h-16c-39.333 -63.333 -96.833 -116.333 -172.5 -159s-157.167 -64 -244.5 -64c-106.667 0 -194.167 29 -262.5 87s-102.5 130.333 -102.5 217c0 110.667 41 197.334 123 260.001
s199.333 96.667 352 102l294 12l16 68c3.33301 16.667 5 32 5 46c0 47.333 -18.833 84.5 -56.5 111.5s-89.834 40.5 -156.501 40.5c-115.333 0 -189.333 -39.667 -222 -119h-216c24 94.667 76.5 169.334 157.5 224.001s179.167 82 294.5 82c80 0 150 -14.167 210 -42.5
s104.333 -68.5 133 -120.5h17c94 108.667 215 163 363 163c120 0 220.833 -40.5 302.5 -121.5s122.834 -189.5 123.501 -325.5c0 -56 -5 -112.667 -15 -170h-774c-1.33301 -18.667 -2 -33.667 -2 -45c0 -48 7.33301 -90.5 22 -127.5s34.334 -66.333 59.001 -88
s51.834 -38 81.501 -49s61.167 -16.5 94.5 -16.5c122.667 0 206.334 42 251.001 126h218c-23.333 -93.333 -78.666 -169 -165.999 -227s-196 -87 -326 -87zM1075 650.998h547c1.33301 8 2 22.333 2 43c0 66.667 -20.333 122.167 -61 166.5s-97 66.5 -169 66.5
c-76 0 -142.333 -25 -199 -75s-96.667 -117 -120 -201zM505.995 157.998c74 0 139.5 21.5 196.5 64.5s92.833 96.833 107.5 161.5l25 112l-266 -12c-80 -3.33301 -142.5 -20.333 -187.5 -51s-67.5 -71.667 -67.5 -123c0 -44 18 -80.333 54 -109s82 -43 138 -43z" />
    <glyph glyph-name="ccedilla" unicode="&#xe7;" horiz-adv-x="1170" 
d="M1163 737l-211.999 -0.00195312c-4.66699 53.333 -29.167 96.833 -73.5 130.5s-98.5 50.5 -162.5 50.5c-100 0 -182.833 -43.5 -248.5 -130.5s-98.5 -195.5 -98.5 -325.5c0 -91.333 22.5 -162.5 67.5 -213.5s105.167 -76.5 180.5 -76.5c62.667 0 116.5 14.333 161.5 43
s76.833 69.334 95.5 122.001h215c-20 -101.333 -71.5 -184.833 -154.5 -250.5s-184.167 -101.167 -303.5 -106.5l-70 -111c114.667 -15.333 172 -68.666 172 -159.999c0 -60 -23.5 -108.667 -70.5 -146s-107.833 -56 -182.5 -56c-66.667 0 -126.334 12 -179.001 36l25 119
c42 -18 90.333 -27 145 -27c30.667 0 54.834 5.66699 72.501 17s26.5 27 26.5 47c0 44.667 -42.333 67 -127 67h-54l14 102l80 123c-103.333 23.333 -184.833 74.666 -244.5 153.999s-89.5 177.333 -89.5 294c0 126.667 24.667 241 74 343s118.5 182.167 207.5 240.5
s189.5 87.5 301.5 87.5c113.333 0 209.5 -31.5 288.5 -94.5s125.5 -140.5 139.5 -232.5c1.33301 -9.33301 2.66602 -24.666 3.99902 -45.999z" />
    <glyph glyph-name="egrave" unicode="&#xe8;" horiz-adv-x="1198" 
d="M833 1271h-216l-222 344h247zM605 -21c-86.667 0 -164.002 17.667 -232.002 53s-122.333 88.333 -163 159s-61 153.667 -61 249c0 199.333 53.333 360.833 160 484.5s244.667 185.5 414 185.5c122.667 0 224.834 -40.333 306.501 -121s122.834 -189.334 123.501 -326.001
c0 -52 -4.66699 -108.667 -14 -170h-775c-0.666992 -9.33301 -1 -24 -1 -44c0 -93.333 25 -163.666 75 -210.999s110.333 -71 181 -71c123.333 0 207.333 42 252 126h218c-24 -93.333 -79 -169 -165 -227s-192.333 -87 -319 -87zM389.998 651h547c2 12 3 26.333 3 43
c0 66.667 -20.5 122.167 -61.5 166.5s-97.5 66.5 -169.5 66.5c-76 0 -142.333 -25 -199 -75s-96.667 -117 -120 -201z" />
    <glyph glyph-name="eacute" unicode="&#xe9;" horiz-adv-x="1198" 
d="M634 1271l324 344h252l-354 -344h-222zM605 -21c-86.667 0 -164.002 17.667 -232.002 53s-122.333 88.333 -163 159s-61 153.667 -61 249c0 199.333 53.333 360.833 160 484.5s244.667 185.5 414 185.5c122.667 0 224.834 -40.333 306.501 -121
s122.834 -189.334 123.501 -326.001c0 -52 -4.66699 -108.667 -14 -170h-775c-0.666992 -9.33301 -1 -24 -1 -44c0 -93.333 25 -163.666 75 -210.999s110.333 -71 181 -71c123.333 0 207.333 42 252 126h218c-24 -93.333 -79 -169 -165 -227s-192.333 -87 -319 -87z
M389.998 651h547c2 12 3 26.333 3 43c0 66.667 -20.5 122.167 -61.5 166.5s-97.5 66.5 -169.5 66.5c-76 0 -142.333 -25 -199 -75s-96.667 -117 -120 -201z" />
    <glyph glyph-name="ecircumflex" unicode="&#xea;" horiz-adv-x="1198" 
d="M926 1584l207 -346h-210l-120 219h-17l-213 -219h-233l352 346h234zM605 -21c-86.667 0 -164.002 17.667 -232.002 53s-122.333 88.333 -163 159s-61 153.667 -61 249c0 199.333 53.333 360.833 160 484.5s244.667 185.5 414 185.5
c122.667 0 224.834 -40.333 306.501 -121s122.834 -189.334 123.501 -326.001c0 -52 -4.66699 -108.667 -14 -170h-775c-0.666992 -9.33301 -1 -24 -1 -44c0 -93.333 25 -163.666 75 -210.999s110.333 -71 181 -71c123.333 0 207.333 42 252 126h218
c-24 -93.333 -79 -169 -165 -227s-192.333 -87 -319 -87zM389.998 651h547c2 12 3 26.333 3 43c0 66.667 -20.5 122.167 -61.5 166.5s-97.5 66.5 -169.5 66.5c-76 0 -142.333 -25 -199 -75s-96.667 -117 -120 -201z" />
    <glyph glyph-name="edieresis" unicode="&#xeb;" horiz-adv-x="1198" 
d="M605 -21c-86.667 0 -164.002 17.667 -232.002 53s-122.333 88.333 -163 159s-61 153.667 -61 249c0 199.333 53.333 360.833 160 484.5s244.667 185.5 414 185.5c122.667 0 224.834 -40.333 306.501 -121s122.834 -189.334 123.501 -326.001
c0 -52 -4.66699 -108.667 -14 -170h-775c-0.666992 -9.33301 -1 -24 -1 -44c0 -93.333 25 -163.666 75 -210.999s110.333 -71 181 -71c123.333 0 207.333 42 252 126h218c-24 -93.333 -79 -169 -165 -227s-192.333 -87 -319 -87zM389.998 651h547c2 12 3 26.333 3 43
c0 66.667 -20.5 122.167 -61.5 166.5s-97.5 66.5 -169.5 66.5c-76 0 -142.333 -25 -199 -75s-96.667 -117 -120 -201zM561.998 1238c-37.333 0 -68.833 12.833 -94.5 38.5s-38.5 57.5 -38.5 95.5s12.833 70 38.5 96s57.167 39 94.5 39c38 0 69.833 -13 95.5 -39
s38.5 -58 38.5 -96s-12.833 -69.833 -38.5 -95.5s-57.5 -38.5 -95.5 -38.5zM988.998 1238c-37.333 0 -68.833 12.833 -94.5 38.5s-38.5 57.5 -38.5 95.5s12.833 70 38.5 96s57.167 39 94.5 39c38 0 69.833 -13 95.5 -39s38.5 -58 38.5 -96s-12.833 -69.833 -38.5 -95.5
s-57.5 -38.5 -95.5 -38.5z" />
    <glyph glyph-name="igrave" unicode="&#xec;" horiz-adv-x="546" 
d="M555 1271h-216l-222 344h247zM100 0l231 1089h215l-231 -1089h-215z" />
    <glyph glyph-name="iacute" unicode="&#xed;" horiz-adv-x="546" 
d="M356 1271l324 344h252l-354 -344h-222zM100 0l231 1089h215l-231 -1089h-215z" />
    <glyph glyph-name="icircumflex" unicode="&#xee;" horiz-adv-x="546" 
d="M648 1584l207 -346h-210l-120 219h-17l-213 -219h-233l352 346h234zM100 0l231 1089h215l-231 -1089h-215z" />
    <glyph glyph-name="idieresis" unicode="&#xef;" horiz-adv-x="546" 
d="M100 0l231 1089h215l-231 -1089h-215zM284 1238c-37.333 0 -68.833 12.833 -94.5 38.5s-38.5 57.5 -38.5 95.5s12.833 70 38.5 96s57.167 39 94.5 39c38 0 69.833 -13 95.5 -39s38.5 -58 38.5 -96s-12.833 -69.833 -38.5 -95.5s-57.5 -38.5 -95.5 -38.5zM711 1238
c-37.333 0 -68.833 12.833 -94.5 38.5s-38.5 57.5 -38.5 95.5s12.833 70 38.5 96s57.167 39 94.5 39c38 0 69.833 -13 95.5 -39s38.5 -58 38.5 -96s-12.833 -69.833 -38.5 -95.5s-57.5 -38.5 -95.5 -38.5z" />
    <glyph glyph-name="eth" unicode="&#xf0;" horiz-adv-x="1229" 
d="M604 -21c-136.667 0 -248.831 42.0029 -336.498 126.003s-131.5 189.667 -131.5 317c0 119.333 22.667 228.166 68 326.499s108.166 175.666 188.499 231.999s169.833 84.5 268.5 84.5c74.667 0 143.167 -16.833 205.5 -50.5s104.833 -76.834 127.5 -129.501l16 -1
c-4 111.333 -40 229.333 -108 354l-337 -101l-13 138l274 83c-29.333 39.333 -74.333 90 -135 152h241c35.333 -39.333 61.333 -70.333 78 -93l240 75l14 -139l-183 -56c85.333 -168 128 -337 128 -507c0 -114 -13.667 -219 -41 -315
c-42 -154.667 -112.833 -276 -212.5 -364s-216.834 -132 -351.501 -132zM972.003 608.003c0 79.333 -25.332 144.168 -75.999 194.501s-115.667 75.5 -195 75.5c-96 0 -176.5 -41.833 -241.5 -125.5s-97.5 -186.167 -97.5 -307.5c0 -82.667 23.167 -148.334 69.5 -197.001
s109.166 -73 188.499 -73c60 0 117.167 20.167 171.5 60.5s98 94 131 161s49.5 137.5 49.5 211.5z" />
    <glyph glyph-name="ntilde" unicode="&#xf1;" horiz-adv-x="1247" 
d="M998 1232c-32 0 -61.335 6 -88.002 18s-48.667 26.667 -66 44s-33.666 34.5 -48.999 51.5s-31.166 31.5 -47.499 43.5s-32.833 18 -49.5 18c-55.333 0 -91 -44 -107 -132h-157c10 88.667 39.333 158.167 88 208.5s107.667 75.5 177 75.5
c38.667 0 73.834 -9.16699 105.501 -27.5s56.167 -38.333 73.5 -60s36.666 -41.667 57.999 -60s42.333 -27.5 63 -27.5c56 0 92 44 108 132h157c-10.667 -88 -40.167 -157.333 -88.5 -208s-107.5 -76 -177.5 -76zM87.998 0l231.002 1093h209l-35 -167h17
c36.667 55.333 83.667 99.833 141 133.5s123.666 50.5 198.999 50.5c101.333 0 183.666 -31.167 246.999 -93.5s95 -138.5 95 -228.5c0 -40 -5 -82.333 -15 -127l-139 -661h-217l132 623c8 36 12 68 12 96c0 58.667 -19.667 106.167 -59 142.5s-92 54.5 -158 54.5
c-75.333 0 -140.5 -24 -195.5 -72s-90.833 -110 -107.5 -186l-140 -658h-217z" />
    <glyph glyph-name="ograve" unicode="&#xf2;" horiz-adv-x="1238" 
d="M850 1271h-216l-222 344h247zM374 456c0 -84.667 22.6689 -153.333 68.002 -206s107.333 -79 186 -79c90.667 0 170 43 238 129s102 192.333 102 319c0 94 -21.833 167.5 -65.5 220.5s-103.834 79.5 -180.501 79.5c-104.667 0 -188.834 -43.833 -252.501 -131.5
s-95.5 -198.167 -95.5 -331.5zM607.002 -20.999c-137.333 0 -248.168 42.6689 -332.501 128.002s-126.5 196.666 -126.5 333.999c0 91.333 13.833 177.666 41.5 258.999s66.5 152.333 116.5 213s112.333 108.667 187 144s156.334 53 245.001 53
c137.333 0 247.833 -42.667 331.5 -128s125.5 -196.333 125.5 -333c0 -120 -23.167 -230.5 -69.5 -331.5s-114.833 -182.667 -205.5 -245s-195 -93.5 -313 -93.5z" />
    <glyph glyph-name="oacute" unicode="&#xf3;" horiz-adv-x="1238" 
d="M651 1271l324 344h252l-354 -344h-222zM374 456c0 -84.667 22.6689 -153.333 68.002 -206s107.333 -79 186 -79c90.667 0 170 43 238 129s102 192.333 102 319c0 94 -21.833 167.5 -65.5 220.5s-103.834 79.5 -180.501 79.5c-104.667 0 -188.834 -43.833 -252.501 -131.5
s-95.5 -198.167 -95.5 -331.5zM607.002 -20.999c-137.333 0 -248.168 42.6689 -332.501 128.002s-126.5 196.666 -126.5 333.999c0 91.333 13.833 177.666 41.5 258.999s66.5 152.333 116.5 213s112.333 108.667 187 144s156.334 53 245.001 53
c137.333 0 247.833 -42.667 331.5 -128s125.5 -196.333 125.5 -333c0 -120 -23.167 -230.5 -69.5 -331.5s-114.833 -182.667 -205.5 -245s-195 -93.5 -313 -93.5z" />
    <glyph glyph-name="ocircumflex" unicode="&#xf4;" horiz-adv-x="1238" 
d="M943 1584l207 -346h-210l-120 219h-17l-213 -219h-233l352 346h234zM374 456c0 -84.667 22.6689 -153.333 68.002 -206s107.333 -79 186 -79c90.667 0 170 43 238 129s102 192.333 102 319c0 94 -21.833 167.5 -65.5 220.5s-103.834 79.5 -180.501 79.5
c-104.667 0 -188.834 -43.833 -252.501 -131.5s-95.5 -198.167 -95.5 -331.5zM607.002 -20.999c-137.333 0 -248.168 42.6689 -332.501 128.002s-126.5 196.666 -126.5 333.999c0 91.333 13.833 177.666 41.5 258.999s66.5 152.333 116.5 213s112.333 108.667 187 144
s156.334 53 245.001 53c137.333 0 247.833 -42.667 331.5 -128s125.5 -196.333 125.5 -333c0 -120 -23.167 -230.5 -69.5 -331.5s-114.833 -182.667 -205.5 -245s-195 -93.5 -313 -93.5z" />
    <glyph glyph-name="otilde" unicode="&#xf5;" horiz-adv-x="1238" 
d="M963 1230c-32 0 -61.335 6 -88.002 18s-48.667 26.667 -66 44s-33.666 34.5 -48.999 51.5s-31.166 31.5 -47.499 43.5s-32.833 18 -49.5 18c-55.333 0 -91 -44 -107 -132h-157c10 88.667 39.333 158.167 88 208.5s107.667 75.5 177 75.5
c38.667 0 73.834 -9.16699 105.501 -27.5s56.167 -38.333 73.5 -60s36.666 -41.667 57.999 -60s42.333 -27.5 63 -27.5c56 0 92 44 108 132h157c-10.667 -88 -40.167 -157.333 -88.5 -208s-107.5 -76 -177.5 -76zM373.998 456c0 -84.667 22.6689 -153.333 68.002 -206
s107.333 -79 186 -79c90.667 0 170 43 238 129s102 192.333 102 319c0 94 -21.833 167.5 -65.5 220.5s-103.834 79.5 -180.501 79.5c-104.667 0 -188.834 -43.833 -252.501 -131.5s-95.5 -198.167 -95.5 -331.5zM607 -20.999c-137.333 0 -248.168 42.6689 -332.501 128.002
s-126.5 196.666 -126.5 333.999c0 91.333 13.833 177.666 41.5 258.999s66.5 152.333 116.5 213s112.333 108.667 187 144s156.334 53 245.001 53c137.333 0 247.833 -42.667 331.5 -128s125.5 -196.333 125.5 -333c0 -120 -23.167 -230.5 -69.5 -331.5
s-114.833 -182.667 -205.5 -245s-195 -93.5 -313 -93.5z" />
    <glyph glyph-name="odieresis" unicode="&#xf6;" horiz-adv-x="1238" 
d="M579 1238c-37.333 0 -68.833 12.833 -94.5 38.5s-38.5 57.5 -38.5 95.5s12.833 70 38.5 96s57.167 39 94.5 39c38 0 69.833 -13 95.5 -39s38.5 -58 38.5 -96s-12.833 -69.833 -38.5 -95.5s-57.5 -38.5 -95.5 -38.5zM1006 1238c-37.333 0 -68.833 12.833 -94.5 38.5
s-38.5 57.5 -38.5 95.5s12.833 70 38.5 96s57.167 39 94.5 39c38 0 69.833 -13 95.5 -39s38.5 -58 38.5 -96s-12.833 -69.833 -38.5 -95.5s-57.5 -38.5 -95.5 -38.5zM374 456c0 -84.667 22.6689 -153.333 68.002 -206s107.333 -79 186 -79c90.667 0 170 43 238 129
s102 192.333 102 319c0 94 -21.833 167.5 -65.5 220.5s-103.834 79.5 -180.501 79.5c-104.667 0 -188.834 -43.833 -252.501 -131.5s-95.5 -198.167 -95.5 -331.5zM607.002 -20.999c-137.333 0 -248.168 42.6689 -332.501 128.002s-126.5 196.666 -126.5 333.999
c0 91.333 13.833 177.666 41.5 258.999s66.5 152.333 116.5 213s112.333 108.667 187 144s156.334 53 245.001 53c137.333 0 247.833 -42.667 331.5 -128s125.5 -196.333 125.5 -333c0 -120 -23.167 -230.5 -69.5 -331.5s-114.833 -182.667 -205.5 -245
s-195 -93.5 -313 -93.5z" />
    <glyph glyph-name="divide" unicode="&#xf7;" horiz-adv-x="1360" 
d="M1240 491h-1040l36 182h1041zM808 813c-40.667 0 -74.167 13.167 -100.5 39.5s-39.5 59.5 -39.5 99.5c0 41.333 13.167 75.5 39.5 102.5s59.833 40.5 100.5 40.5s74 -13.333 100 -40s39 -59.667 39 -99c0 -41.333 -13 -75.5 -39 -102.5s-59.333 -40.5 -100 -40.5zM652 68
c-40.667 0 -74.167 13.334 -100.5 40.001s-39.5 59.667 -39.5 99c0 41.333 13.167 75.666 39.5 102.999s59.833 41 100.5 41s74 -13.333 100 -40s39 -59.667 39 -99c0 -42 -13 -76.5 -39 -103.5s-59.333 -40.5 -100 -40.5z" />
    <glyph glyph-name="oslash" unicode="&#xf8;" horiz-adv-x="1243" 
d="M940 776l-474 -549c42.667 -37.333 96.667 -56 162 -56c90.667 0 170 43 238 129s102 192.333 102 319c0 60 -9.33301 112.333 -28 157zM400 319l475.001 548.001c-40.667 34.667 -91.667 52 -153 52c-104.667 0 -188.834 -43.833 -252.501 -131.5
s-95.5 -198.167 -95.5 -331.5c0 -50.667 8.66699 -96.334 26 -137.001zM1202 1080l-108.001 -124.999c67.333 -82 101 -184 101 -306c0 -120 -23.167 -230.5 -69.5 -331.5s-114.833 -182.667 -205.5 -245s-195 -93.5 -313 -93.5c-109.333 0 -203.333 28.333 -282 85
l-101 -117l-89 67l110 127c-64.667 81.333 -97 181.333 -97 300c0 91.333 13.833 177.666 41.5 258.999s66.5 152.333 116.5 213s112.333 108.667 187 144s156.334 53 245.001 53c108.667 0 201 -27.333 277 -82l99 114z" />
    <glyph glyph-name="ugrave" unicode="&#xf9;" horiz-adv-x="1247" 
d="M896 1271h-216l-222 344h247zM1260 1089l-229.998 -1089h-208l34 155h-17c-32 -53.333 -77.833 -96 -137.5 -128s-128.167 -48 -205.5 -48c-98.667 0 -179.334 29.5 -242.001 88.5s-94 135.167 -94 228.5c0 42 5 88.667 15 140l136 653h218l-131 -618
c-8.66699 -42 -13 -77.333 -13 -106c0 -62.667 17.667 -109.834 53 -141.501s86.666 -47.5 153.999 -47.5c78 0 145.5 24.667 202.5 74s94.167 113.666 111.5 192.999l138 646h216z" />
    <glyph glyph-name="uacute" unicode="&#xfa;" horiz-adv-x="1247" 
d="M697 1271l324 344h252l-354 -344h-222zM1260 1089l-229.998 -1089h-208l34 155h-17c-32 -53.333 -77.833 -96 -137.5 -128s-128.167 -48 -205.5 -48c-98.667 0 -179.334 29.5 -242.001 88.5s-94 135.167 -94 228.5c0 42 5 88.667 15 140l136 653h218l-131 -618
c-8.66699 -42 -13 -77.333 -13 -106c0 -62.667 17.667 -109.834 53 -141.501s86.666 -47.5 153.999 -47.5c78 0 145.5 24.667 202.5 74s94.167 113.666 111.5 192.999l138 646h216z" />
    <glyph glyph-name="ucircumflex" unicode="&#xfb;" horiz-adv-x="1247" 
d="M989 1584l207 -346h-210l-120 219h-17l-213 -219h-233l352 346h234zM1260 1089l-229.998 -1089h-208l34 155h-17c-32 -53.333 -77.833 -96 -137.5 -128s-128.167 -48 -205.5 -48c-98.667 0 -179.334 29.5 -242.001 88.5s-94 135.167 -94 228.5c0 42 5 88.667 15 140
l136 653h218l-131 -618c-8.66699 -42 -13 -77.333 -13 -106c0 -62.667 17.667 -109.834 53 -141.501s86.666 -47.5 153.999 -47.5c78 0 145.5 24.667 202.5 74s94.167 113.666 111.5 192.999l138 646h216z" />
    <glyph glyph-name="udieresis" unicode="&#xfc;" horiz-adv-x="1247" 
d="M1260 1089l-229.998 -1089h-208l34 155h-17c-32 -53.333 -77.833 -96 -137.5 -128s-128.167 -48 -205.5 -48c-98.667 0 -179.334 29.5 -242.001 88.5s-94 135.167 -94 228.5c0 42 5 88.667 15 140l136 653h218l-131 -618c-8.66699 -42 -13 -77.333 -13 -106
c0 -62.667 17.667 -109.834 53 -141.501s86.666 -47.5 153.999 -47.5c78 0 145.5 24.667 202.5 74s94.167 113.666 111.5 192.999l138 646h216zM625.002 1238c-37.333 0 -68.833 12.833 -94.5 38.5s-38.5 57.5 -38.5 95.5s12.833 70 38.5 96s57.167 39 94.5 39
c38 0 69.833 -13 95.5 -39s38.5 -58 38.5 -96s-12.833 -69.833 -38.5 -95.5s-57.5 -38.5 -95.5 -38.5zM1052 1238c-37.333 0 -68.833 12.833 -94.5 38.5s-38.5 57.5 -38.5 95.5s12.833 70 38.5 96s57.167 39 94.5 39c38 0 69.833 -13 95.5 -39s38.5 -58 38.5 -96
s-12.833 -69.833 -38.5 -95.5s-57.5 -38.5 -95.5 -38.5z" />
    <glyph glyph-name="yacute" unicode="&#xfd;" horiz-adv-x="1146" 
d="M148 -397c-38 0 -79.001 3 -123.001 9l33 185c20.667 -6 52.334 -9 95.001 -9c42 0 79.333 11.833 112 35.5s64.334 63.5 95.001 119.5l33 60l-164 1086h216l105 -842h17l448 842h233l-666 -1173c-64.667 -118 -129.334 -199.667 -194.001 -245s-144.667 -68 -240 -68z
M655.999 1271l324 344h252l-354 -344h-222z" />
    <glyph glyph-name="thorn" unicode="&#xfe;" horiz-adv-x="1288" 
d="M663 177c101.333 0 186.334 45.333 255.001 136s103 203.667 103 339c0 83.333 -21.333 148 -64 194s-101.334 69 -176.001 69c-102.667 0 -189.667 -45.5 -261 -136.5s-107 -201.5 -107 -331.5c0 -84 22.5 -150 67.5 -198s105.833 -72 182.5 -72zM356.001 199l-120 -552
h-216l397 1859h214l-119 -567h17c82 112.667 194 169 336 169c109.333 0 200 -39.167 272 -117.5s108 -179.166 108 -302.499c0 -98.667 -14.333 -191.834 -43 -279.501s-67.5 -162.667 -116.5 -225s-107.667 -111.5 -176 -147.5s-140.833 -54 -217.5 -54
c-78 0 -146 20 -204 60s-96.333 92.333 -115 157h-17z" />
    <glyph glyph-name="ydieresis" unicode="&#xff;" horiz-adv-x="1146" 
d="M148 -397c-38 0 -79.001 3 -123.001 9l33 185c20.667 -6 52.334 -9 95.001 -9c42 0 79.333 11.833 112 35.5s64.334 63.5 95.001 119.5l33 60l-164 1086h216l105 -842h17l448 842h233l-666 -1173c-64.667 -118 -129.334 -199.667 -194.001 -245s-144.667 -68 -240 -68z
M583.999 1238c-37.333 0 -68.833 12.833 -94.5 38.5s-38.5 57.5 -38.5 95.5s12.833 70 38.5 96s57.167 39 94.5 39c38 0 69.833 -13 95.5 -39s38.5 -58 38.5 -96s-12.833 -69.833 -38.5 -95.5s-57.5 -38.5 -95.5 -38.5zM1011 1238c-37.333 0 -68.833 12.833 -94.5 38.5
s-38.5 57.5 -38.5 95.5s12.833 70 38.5 96s57.167 39 94.5 39c38 0 69.833 -13 95.5 -39s38.5 -58 38.5 -96s-12.833 -69.833 -38.5 -95.5s-57.5 -38.5 -95.5 -38.5z" />
    <glyph glyph-name="Amacron" unicode="&#x100;" horiz-adv-x="1423" 
d="M1062 0l-50 383h-554l-215 -383h-237l836 1443h232l212 -1443h-224zM896 1179l-342 -608h440l-82 608h-16zM1346 1625h-699l32 156h699z" />
    <glyph glyph-name="amacron" unicode="&#x101;" horiz-adv-x="1153" 
d="M506 161c73.333 0 138.499 21.167 195.499 63.5s92.833 95.5 107.5 159.5l25 112l-265 -12c-80 -3.33301 -142.5 -20.5 -187.5 -51.5s-67.5 -71.833 -67.5 -122.5c0 -43.333 17.833 -79 53.5 -107s81.834 -42 138.501 -42zM426.999 -18
c-94 0 -172.332 28.501 -234.999 85.501s-94 128.167 -94 213.5c0 108.667 41.167 194.667 123.5 258s199.166 97.666 350.499 102.999l295 12l15 71c4 20.667 6 36 6 46c0 47.333 -19 84.5 -57 111.5s-90.333 40.5 -157 40.5c-55.333 0 -102.166 -10.167 -140.499 -30.5
s-65.5 -49.833 -81.5 -88.5h-215c23.333 94 76 168.5 158 223.5s180.667 82.5 296 82.5c124 0 223.667 -28.5 299 -85.5s113 -132.5 113 -226.5c0 -30.667 -3 -60 -9 -88l-150 -710h-209l30 139h-17c-36 -48.667 -82.333 -87 -139 -115s-117.334 -42 -182.001 -42z
M1099 1299h-696l32 155h696z" />
    <glyph glyph-name="Abreve" unicode="&#x102;" horiz-adv-x="1423" 
d="M1062 0l-50 383h-554l-215 -383h-237l836 1443h232l212 -1443h-224zM896 1179l-342 -608h440l-82 608h-16zM646 1872l0.00390625 19h170v-16c0 -43.333 18.167 -79.333 54.5 -108s81.5 -43 135.5 -43c55.333 0 101.666 14.667 138.999 44s62.666 70.333 75.999 123h172
c-16.667 -96 -60.334 -172.333 -131.001 -229s-157.334 -85 -260.001 -85c-105.333 0 -191 27.5 -257 82.5s-99 125.833 -99 212.5z" />
    <glyph glyph-name="abreve" unicode="&#x103;" horiz-adv-x="1153" 
d="M506 161c73.333 0 138.499 21.167 195.499 63.5s92.833 95.5 107.5 159.5l25 112l-265 -12c-80 -3.33301 -142.5 -20.5 -187.5 -51.5s-67.5 -71.833 -67.5 -122.5c0 -43.333 17.833 -79 53.5 -107s81.834 -42 138.501 -42zM426.999 -18
c-94 0 -172.332 28.501 -234.999 85.501s-94 128.167 -94 213.5c0 108.667 41.167 194.667 123.5 258s199.166 97.666 350.499 102.999l295 12l15 71c4 20.667 6 36 6 46c0 47.333 -19 84.5 -57 111.5s-90.333 40.5 -157 40.5c-55.333 0 -102.166 -10.167 -140.499 -30.5
s-65.5 -49.833 -81.5 -88.5h-215c23.333 94 76 168.5 158 223.5s180.667 82.5 296 82.5c124 0 223.667 -28.5 299 -85.5s113 -132.5 113 -226.5c0 -30.667 -3 -60 -9 -88l-150 -710h-209l30 139h-17c-36 -48.667 -82.333 -87 -139 -115s-117.334 -42 -182.001 -42zM402 1576
h171c-1.33301 -10.667 -2 -20.667 -2 -30c0 -48.667 17.5 -87.667 52.5 -117s81.5 -44 139.5 -44c64.667 0 116.667 16.333 156 49s63.666 80 72.999 142h174c-10 -102.667 -51.667 -184.667 -125 -246s-168.333 -92 -285 -92c-109.333 0 -196.166 27.667 -260.499 83
s-96.5 125.666 -96.5 210.999c0 14.667 1 29.334 3 44.001z" />
    <glyph glyph-name="Aogonek" unicode="&#x104;" horiz-adv-x="1423" 
d="M896 1179l-342 -608h440l-82 608h-16zM1224 -428c-28 -10 -61.668 -15.001 -101.001 -15.001c-72 0 -128.667 17.333 -170 52s-62 81.667 -62 141c0 102.667 62 191.667 186 267l1 5h-19l-47 361h-554l-215 -383h-237l836 1443h232l209 -1419
c-137.333 -70 -206 -145.333 -206 -226c0 -29.333 9.5 -51.666 28.5 -66.999s46.167 -23 81.5 -23c30.667 0 52.334 2.33301 65.001 7z" />
    <glyph glyph-name="aogonek" unicode="&#x105;" horiz-adv-x="1153" 
d="M781 -443c-76.667 0 -135.502 21.1699 -176.502 63.5029s-55.5 97.166 -43.5 164.499c7.33301 45.333 26.333 85.666 57 120.999s75 68.333 133 99l1 5h-13l26 129h-17c-36 -49.333 -82.5 -87.833 -139.5 -115.5s-117.5 -41.5 -181.5 -41.5
c-93.333 0 -171.5 28.667 -234.5 86s-94.5 128.333 -94.5 213c0 109.333 41.333 195.5 124 258.5s199.334 97.167 350.001 102.5l295 12l15 71c4 19.333 6 34.666 6 45.999c0 47.333 -19 84.5 -57 111.5s-90.333 40.5 -157 40.5c-55.333 0 -102.166 -10.167 -140.499 -30.5
s-65.5 -49.833 -81.5 -88.5h-215c23.333 94 76 168.5 158 223.5s180.667 82.5 296 82.5c124 0 223.667 -28.5 299 -85.5s113 -132.5 113 -226.5c0 -30.667 -3 -60 -9 -88l-145 -686c-124 -62.667 -192 -130.667 -204 -204c-6 -34.667 0.166992 -62 18.5 -82
s45.833 -30 82.5 -30c34 0 58 2.33301 72 7l-29 -143c-28.667 -10 -64.667 -15 -108 -15zM505.998 161.003c73.333 0 138.499 21 195.499 63s92.833 95.333 107.5 160l25 112l-265 -12c-80 -3.33301 -142.5 -20.333 -187.5 -51s-67.5 -71.667 -67.5 -123
c0 -44 17.833 -79.833 53.5 -107.5s81.834 -41.5 138.501 -41.5z" />
    <glyph glyph-name="Cacute" unicode="&#x106;" horiz-adv-x="1490" 
d="M877 1584l362 306h258l-390 -306h-230zM1300 966c0.666992 0.666992 1.00195 2.99902 1.00195 6.99902c-6.66699 89.333 -41.834 160.666 -105.501 213.999s-145.5 80 -245.5 80c-97.333 0 -186.166 -30 -266.499 -90s-143.666 -142.667 -189.999 -248
s-69.5 -221.666 -69.5 -348.999c0 -124.667 32.833 -223.334 98.5 -296.001s154.5 -109 266.5 -109c92 0 173.5 22 244.5 66s119.167 102.333 144.5 175h229c-34.667 -138.667 -109.334 -248.5 -224.001 -329.5s-253.334 -121.5 -416.001 -121.5
c-172.667 0 -311.5 54.167 -416.5 162.5s-157.5 252.5 -157.5 432.5c0 131.333 19.5 253.833 58.5 367.5s92.5 210.834 160.5 291.501s149.833 144 245.5 190s198.5 69 308.5 69c159.333 0 292.166 -46.667 398.499 -140s159.5 -210 159.5 -350
c0 -9.33301 -0.333008 -16.666 -1 -21.999h-223z" />
    <glyph glyph-name="cacute" unicode="&#x107;" horiz-adv-x="1172" 
d="M1163 737l-211.999 -0.00195312c-4.66699 53.333 -29.167 96.833 -73.5 130.5s-98.5 50.5 -162.5 50.5c-100 0 -182.833 -43.5 -248.5 -130.5s-98.5 -195.5 -98.5 -325.5c0 -91.333 22.5 -162.5 67.5 -213.5s105.167 -76.5 180.5 -76.5c62.667 0 116.5 14.333 161.5 43
s76.833 69.334 95.5 122.001h215c-21.333 -105.333 -76.5 -191.333 -165.5 -258s-196.5 -100 -322.5 -100c-136.667 0 -246.167 42 -328.5 126s-123.5 195.333 -123.5 334c0 126.667 24.667 241 74 343s118.5 182.167 207.5 240.5s189.5 87.5 301.5 87.5
c113.333 0 209.5 -31.5 288.5 -94.5s125.5 -140.5 139.5 -232.5c1.33301 -9.33301 2.66602 -24.666 3.99902 -45.999zM670.001 1271l324 344h252l-354 -344h-222z" />
    <glyph glyph-name="Ccircumflex" unicode="&#x108;" horiz-adv-x="1490" 
d="M1300 966c0.666992 0.666992 1.00195 2.99902 1.00195 6.99902c-6.66699 89.333 -41.834 160.666 -105.501 213.999s-145.5 80 -245.5 80c-97.333 0 -186.166 -30 -266.499 -90s-143.666 -142.667 -189.999 -248s-69.5 -221.666 -69.5 -348.999
c0 -124.667 32.833 -223.334 98.5 -296.001s154.5 -109 266.5 -109c92 0 173.5 22 244.5 66s119.167 102.333 144.5 175h229c-34.667 -138.667 -109.334 -248.5 -224.001 -329.5s-253.334 -121.5 -416.001 -121.5c-172.667 0 -311.5 54.167 -416.5 162.5
s-157.5 252.5 -157.5 432.5c0 131.333 19.5 253.833 58.5 367.5s92.5 210.834 160.5 291.501s149.833 144 245.5 190s198.5 69 308.5 69c159.333 0 292.166 -46.667 398.499 -140s159.5 -210 159.5 -350c0 -9.33301 -0.333008 -16.666 -1 -21.999h-223zM1159 1898l185 -314
h-208l-100 188h-17l-179 -188h-231l316 314h234z" />
    <glyph glyph-name="ccircumflex" unicode="&#x109;" horiz-adv-x="1172" 
d="M962 1584l207 -346h-210l-120 219h-17l-213 -219h-233l352 346h234zM1163 737l-211.999 -0.00195312c-4.66699 53.333 -29.167 96.833 -73.5 130.5s-98.5 50.5 -162.5 50.5c-100 0 -182.833 -43.5 -248.5 -130.5s-98.5 -195.5 -98.5 -325.5
c0 -91.333 22.5 -162.5 67.5 -213.5s105.167 -76.5 180.5 -76.5c62.667 0 116.5 14.333 161.5 43s76.833 69.334 95.5 122.001h215c-21.333 -105.333 -76.5 -191.333 -165.5 -258s-196.5 -100 -322.5 -100c-136.667 0 -246.167 42 -328.5 126s-123.5 195.333 -123.5 334
c0 126.667 24.667 241 74 343s118.5 182.167 207.5 240.5s189.5 87.5 301.5 87.5c113.333 0 209.5 -31.5 288.5 -94.5s125.5 -140.5 139.5 -232.5c1.33301 -9.33301 2.66602 -24.666 3.99902 -45.999z" />
    <glyph glyph-name="Cdotaccent" unicode="&#x10a;" horiz-adv-x="1490" 
d="M1017 1579c-38 0 -69.833 13.167 -95.5 39.5s-38.5 58.833 -38.5 97.5s12.833 71.167 38.5 97.5s57.5 39.5 95.5 39.5s69.833 -13.167 95.5 -39.5s38.5 -58.833 38.5 -97.5s-12.833 -71.167 -38.5 -97.5s-57.5 -39.5 -95.5 -39.5zM1300 966
c0.666992 0.666992 1.00195 2.99902 1.00195 6.99902c-6.66699 89.333 -41.834 160.666 -105.501 213.999s-145.5 80 -245.5 80c-97.333 0 -186.166 -30 -266.499 -90s-143.666 -142.667 -189.999 -248s-69.5 -221.666 -69.5 -348.999
c0 -124.667 32.833 -223.334 98.5 -296.001s154.5 -109 266.5 -109c92 0 173.5 22 244.5 66s119.167 102.333 144.5 175h229c-34.667 -138.667 -109.334 -248.5 -224.001 -329.5s-253.334 -121.5 -416.001 -121.5c-172.667 0 -311.5 54.167 -416.5 162.5
s-157.5 252.5 -157.5 432.5c0 131.333 19.5 253.833 58.5 367.5s92.5 210.834 160.5 291.501s149.833 144 245.5 190s198.5 69 308.5 69c159.333 0 292.166 -46.667 398.499 -140s159.5 -210 159.5 -350c0 -9.33301 -0.333008 -16.666 -1 -21.999h-223z" />
    <glyph glyph-name="cdotaccent" unicode="&#x10b;" horiz-adv-x="1172" 
d="M1163 737l-211.999 -0.00195312c-4.66699 53.333 -29.167 96.833 -73.5 130.5s-98.5 50.5 -162.5 50.5c-100 0 -182.833 -43.5 -248.5 -130.5s-98.5 -195.5 -98.5 -325.5c0 -91.333 22.5 -162.5 67.5 -213.5s105.167 -76.5 180.5 -76.5c62.667 0 116.5 14.333 161.5 43
s76.833 69.334 95.5 122.001h215c-21.333 -105.333 -76.5 -191.333 -165.5 -258s-196.5 -100 -322.5 -100c-136.667 0 -246.167 42 -328.5 126s-123.5 195.333 -123.5 334c0 126.667 24.667 241 74 343s118.5 182.167 207.5 240.5s189.5 87.5 301.5 87.5
c113.333 0 209.5 -31.5 288.5 -94.5s125.5 -140.5 139.5 -232.5c1.33301 -9.33301 2.66602 -24.666 3.99902 -45.999zM824.001 1281c-38.667 0 -71.667 14 -99 42s-41 62 -41 102s13.667 73.833 41 101.5s60.333 41.5 99 41.5c39.333 0 72.5 -13.833 99.5 -41.5
s40.5 -61.5 40.5 -101.5s-13.667 -74 -41 -102s-60.333 -42 -99 -42z" />
    <glyph glyph-name="Ccaron" unicode="&#x10c;" horiz-adv-x="1490" 
d="M1300 966c0.666992 0.666992 1.00195 2.99902 1.00195 6.99902c-6.66699 89.333 -41.834 160.666 -105.501 213.999s-145.5 80 -245.5 80c-97.333 0 -186.166 -30 -266.499 -90s-143.666 -142.667 -189.999 -248s-69.5 -221.666 -69.5 -348.999
c0 -124.667 32.833 -223.334 98.5 -296.001s154.5 -109 266.5 -109c92 0 173.5 22 244.5 66s119.167 102.333 144.5 175h229c-34.667 -138.667 -109.334 -248.5 -224.001 -329.5s-253.334 -121.5 -416.001 -121.5c-172.667 0 -311.5 54.167 -416.5 162.5
s-157.5 252.5 -157.5 432.5c0 131.333 19.5 253.833 58.5 367.5s92.5 210.834 160.5 291.501s149.833 144 245.5 190s198.5 69 308.5 69c159.333 0 292.166 -46.667 398.499 -140s159.5 -210 159.5 -350c0 -9.33301 -0.333008 -16.666 -1 -21.999h-223zM882.002 1584
l-185 314h208l101 -188h16l179 188h232l-317 -314h-234z" />
    <glyph glyph-name="ccaron" unicode="&#x10d;" horiz-adv-x="1172" 
d="M915 1238h-234l-206 346h208l120 -219h16l214 219h235zM1163 737l-211.999 -0.00195312c-4.66699 53.333 -29.167 96.833 -73.5 130.5s-98.5 50.5 -162.5 50.5c-100 0 -182.833 -43.5 -248.5 -130.5s-98.5 -195.5 -98.5 -325.5c0 -91.333 22.5 -162.5 67.5 -213.5
s105.167 -76.5 180.5 -76.5c62.667 0 116.5 14.333 161.5 43s76.833 69.334 95.5 122.001h215c-21.333 -105.333 -76.5 -191.333 -165.5 -258s-196.5 -100 -322.5 -100c-136.667 0 -246.167 42 -328.5 126s-123.5 195.333 -123.5 334c0 126.667 24.667 241 74 343
s118.5 182.167 207.5 240.5s189.5 87.5 301.5 87.5c113.333 0 209.5 -31.5 288.5 -94.5s125.5 -140.5 139.5 -232.5c1.33301 -9.33301 2.66602 -24.666 3.99902 -45.999z" />
    <glyph glyph-name="Dcaron" unicode="&#x10e;" horiz-adv-x="1504" 
d="M725 1582l-185 314h208l101 -188h16l179 188h232l-317 -314h-234zM422 1443l442 -0.000976562c194 0 345 -54.167 453 -162.5s162 -258.166 162 -449.499c0 -156.667 -32.5 -298.5 -97.5 -425.5s-154.667 -226.333 -269 -298s-241.833 -107.5 -382.5 -107.5h-614z
M609 1241l-226 -1039h342c150.667 0 275.5 57.333 374.5 172s148.5 260.334 148.5 437.001c0 134.667 -36.667 240 -110 316s-176 114 -308 114h-221z" />
    <glyph glyph-name="dcaron" unicode="&#x10f;" horiz-adv-x="1430" 
d="M1511 1514h199l-155 -496h-149zM533 -18c-111.333 0 -204 39.501 -278 118.501s-111 184.167 -111 315.5c0 130.667 24.667 249 74 355s116.5 188.5 201.5 247.5s178.833 88.5 281.5 88.5c78.667 0 147 -19.667 205 -59s96.333 -90.333 115 -153h17l131 619h218
l-322 -1514h-208l32 150h-17c-39.333 -52.667 -88.5 -93.834 -147.5 -123.501s-122.833 -44.5 -191.5 -44.5zM615 174.001c102.667 0 189.167 45.332 259.5 135.999s105.5 201.334 105.5 332.001c0 84 -22.667 150 -68 198s-106 72 -182 72
c-102.667 0 -188.667 -43.5 -258 -130.5s-104 -196.833 -104 -329.5c0 -83.333 22.833 -150.5 68.5 -201.5s105.167 -76.5 178.5 -76.5z" />
    <glyph glyph-name="Dcroat" unicode="&#x110;" horiz-adv-x="1476" 
d="M383 202l342 -0.000976562c150.667 0 275.5 57.333 374.5 172s148.5 260.334 148.5 437.001c0 134.667 -36.667 240 -110 316s-176 114 -308 114h-221l-89 -407h201l-39 -191h-203zM422 1443l442 -0.000976562c194 0 345 -54.167 453 -162.5s162 -258.166 162 -449.499
c0 -156.667 -32.5 -298.5 -97.5 -425.5s-154.667 -226.333 -269 -298s-241.833 -107.5 -382.5 -107.5h-614l136 643h-181l40 191h182z" />
    <glyph glyph-name="dcroat" unicode="&#x111;" horiz-adv-x="1289" 
d="M615 174c102.667 0 189.167 45.332 259.5 135.999s105.5 201.334 105.5 332.001c0 84 -22.667 150 -68 198s-106 72 -182 72c-102.667 0 -188.667 -43.5 -258 -130.5s-104 -196.833 -104 -329.5c0 -83.333 22.833 -150.5 68.5 -201.5s105.167 -76.5 178.5 -76.5z
M1509 1411l-28 -135.999h-145l-271 -1275h-208l32 150h-17c-39.333 -52.667 -88.5 -93.834 -147.5 -123.501s-122.833 -44.5 -191.5 -44.5c-111.333 0 -204 39.5 -278 118.5s-111 184.167 -111 315.5c0 130.667 24.667 249 74 355s116.5 188.5 201.5 247.5
s178.833 88.5 281.5 88.5c78.667 0 147 -19.667 205 -59s96.333 -90.333 115 -153h17l80 380h-211l28 136h212l22 103h218l-22 -103h144z" />
    <glyph glyph-name="Emacron" unicode="&#x112;" horiz-adv-x="1239" 
d="M1073 204l-40 -204h-918l307 1443h917l-41 -204h-690l-91 -408h654l-40 -194h-653l-96 -433h691zM1268 1625h-699l32 156h699z" />
    <glyph glyph-name="emacron" unicode="&#x113;" horiz-adv-x="1198" 
d="M605 -21c-86.667 0 -164.002 17.667 -232.002 53s-122.333 88.333 -163 159s-61 153.667 -61 249c0 199.333 53.333 360.833 160 484.5s244.667 185.5 414 185.5c122.667 0 224.834 -40.333 306.501 -121s122.834 -189.334 123.501 -326.001
c0 -52 -4.66699 -108.667 -14 -170h-775c-0.666992 -9.33301 -1 -24 -1 -44c0 -93.333 25 -163.666 75 -210.999s110.333 -71 181 -71c123.333 0 207.333 42 252 126h218c-24 -93.333 -79 -169 -165 -227s-192.333 -87 -319 -87zM389.998 651h547c2 12 3 26.333 3 43
c0 66.667 -20.5 122.167 -61.5 166.5s-97.5 66.5 -169.5 66.5c-76 0 -142.333 -25 -199 -75s-96.667 -117 -120 -201zM1109 1299h-696l32 155h696z" />
    <glyph glyph-name="Ebreve" unicode="&#x114;" horiz-adv-x="1239" 
d="M1073 204l-40 -204h-918l307 1443h917l-41 -204h-690l-91 -408h654l-40 -194h-653l-96 -433h691zM568 1872l0.00390625 19h170v-16c0 -43.333 18.167 -79.333 54.5 -108s81.5 -43 135.5 -43c55.333 0 101.666 14.667 138.999 44s62.666 70.333 75.999 123h172
c-16.667 -96 -60.334 -172.333 -131.001 -229s-157.334 -85 -260.001 -85c-105.333 0 -191 27.5 -257 82.5s-99 125.833 -99 212.5z" />
    <glyph glyph-name="ebreve" unicode="&#x115;" horiz-adv-x="1198" 
d="M605 -21c-86.667 0 -164.002 17.667 -232.002 53s-122.333 88.333 -163 159s-61 153.667 -61 249c0 199.333 53.333 360.833 160 484.5s244.667 185.5 414 185.5c122.667 0 224.834 -40.333 306.501 -121s122.834 -189.334 123.501 -326.001
c0 -52 -4.66699 -108.667 -14 -170h-775c-0.666992 -9.33301 -1 -24 -1 -44c0 -93.333 25 -163.666 75 -210.999s110.333 -71 181 -71c123.333 0 207.333 42 252 126h218c-24 -93.333 -79 -169 -165 -227s-192.333 -87 -319 -87zM389.998 651h547c2 12 3 26.333 3 43
c0 66.667 -20.5 122.167 -61.5 166.5s-97.5 66.5 -169.5 66.5c-76 0 -142.333 -25 -199 -75s-96.667 -117 -120 -201zM411.998 1576h171c-1.33301 -10.667 -2 -20.667 -2 -30c0 -48.667 17.5 -87.667 52.5 -117s81.5 -44 139.5 -44c64.667 0 116.667 16.333 156 49
s63.666 80 72.999 142h174c-10 -102.667 -51.667 -184.667 -125 -246s-168.333 -92 -285 -92c-109.333 0 -196.166 27.667 -260.499 83s-96.5 125.666 -96.5 210.999c0 14.667 1 29.334 3 44.001z" />
    <glyph glyph-name="Edotaccent" unicode="&#x116;" horiz-adv-x="1239" 
d="M938 1577c-38 0 -69.833 13.167 -95.5 39.5s-38.5 58.833 -38.5 97.5s12.833 71.167 38.5 97.5s57.5 39.5 95.5 39.5s69.833 -13.167 95.5 -39.5s38.5 -58.833 38.5 -97.5s-12.833 -71.167 -38.5 -97.5s-57.5 -39.5 -95.5 -39.5zM1073 204l-40 -204h-918l307 1443h917
l-41 -204h-690l-91 -408h654l-40 -194h-653l-96 -433h691z" />
    <glyph glyph-name="edotaccent" unicode="&#x117;" horiz-adv-x="1198" 
d="M788 1281c-38.667 0 -71.667 14 -99 42s-41 62 -41 102s13.667 73.833 41 101.5s60.333 41.5 99 41.5c39.333 0 72.5 -13.833 99.5 -41.5s40.5 -61.5 40.5 -101.5s-13.667 -74 -41 -102s-60.333 -42 -99 -42zM605 -21c-86.667 0 -164.002 17.667 -232.002 53
s-122.333 88.333 -163 159s-61 153.667 -61 249c0 199.333 53.333 360.833 160 484.5s244.667 185.5 414 185.5c122.667 0 224.834 -40.333 306.501 -121s122.834 -189.334 123.501 -326.001c0 -52 -4.66699 -108.667 -14 -170h-775c-0.666992 -9.33301 -1 -24 -1 -44
c0 -93.333 25 -163.666 75 -210.999s110.333 -71 181 -71c123.333 0 207.333 42 252 126h218c-24 -93.333 -79 -169 -165 -227s-192.333 -87 -319 -87zM389.998 651h547c2 12 3 26.333 3 43c0 66.667 -20.5 122.167 -61.5 166.5s-97.5 66.5 -169.5 66.5
c-76 0 -142.333 -25 -199 -75s-96.667 -117 -120 -201z" />
    <glyph glyph-name="Eogonek" unicode="&#x118;" horiz-adv-x="1239" 
d="M841 -443c-72 0 -128.667 17.3311 -170 51.998s-62 81.667 -62 141c0 92.667 50.333 174.334 151 245.001v5h-645l307 1443h917l-41 -204h-690l-91 -408h654l-40 -194h-653l-96 -433h691l-35 -165c-78 -29.333 -138 -64.833 -180 -106.5s-63 -86.5 -63 -134.5
c0 -27.333 10 -49.166 30 -65.499s46.333 -24.5 79 -24.5c30 0 52 2.33301 66 7l-28 -143c-28 -10 -61.667 -15 -101 -15z" />
    <glyph glyph-name="eogonek" unicode="&#x119;" horiz-adv-x="1203" 
d="M737 -443c-72.667 0 -130.502 17.667 -173.502 53s-64.5 80 -64.5 134c0 86.667 38.333 159.667 115 219l-1 16h-15c-135.333 2 -244 45 -326 129s-123 194.667 -123 332c0 198.667 53.167 360 159.5 484s244.5 186 414.5 186c126.667 0 229.834 -41.5 309.501 -124.5
s119.834 -190.5 120.501 -322.5c0 -54.667 -4.66699 -111.334 -14 -170.001h-775c-0.666992 -14 -1 -28.667 -1 -44c0 -85.333 23.333 -153.666 70 -204.999s108.667 -77 186 -77c123.333 0 207.333 42 252 126h218c-13.333 -50 -37.833 -96 -73.5 -138
s-90.167 -88 -163.5 -138c-112 -77.333 -168 -150 -168 -218c0 -30.667 10.667 -54.167 32 -70.5s52 -24.5 92 -24.5c21.333 0 36.333 1 45 3l-29 -140c-21.333 -6.66699 -50.333 -10 -87 -10zM389.998 651l547.001 -0.000976562c2 12 3 26.333 3 43
c0 69.333 -21.333 125.5 -64 168.5s-98.334 64.5 -167.001 64.5c-74.667 0 -140.5 -24.667 -197.5 -74s-97.5 -116.666 -121.5 -201.999z" />
    <glyph glyph-name="Ecaron" unicode="&#x11a;" horiz-adv-x="1239" 
d="M803 1582l-185 314h208l101 -188h16l179 188h232l-317 -314h-234zM1073 204l-40 -204h-918l307 1443h917l-41 -204h-690l-91 -408h654l-40 -194h-653l-96 -433h691z" />
    <glyph glyph-name="ecaron" unicode="&#x11b;" horiz-adv-x="1198" 
d="M879 1238h-234l-206 346h208l120 -219h16l214 219h235zM605 -21c-86.667 0 -164.002 17.667 -232.002 53s-122.333 88.333 -163 159s-61 153.667 -61 249c0 199.333 53.333 360.833 160 484.5s244.667 185.5 414 185.5c122.667 0 224.834 -40.333 306.501 -121
s122.834 -189.334 123.501 -326.001c0 -52 -4.66699 -108.667 -14 -170h-775c-0.666992 -9.33301 -1 -24 -1 -44c0 -93.333 25 -163.666 75 -210.999s110.333 -71 181 -71c123.333 0 207.333 42 252 126h218c-24 -93.333 -79 -169 -165 -227s-192.333 -87 -319 -87z
M389.998 651h547c2 12 3 26.333 3 43c0 66.667 -20.5 122.167 -61.5 166.5s-97.5 66.5 -169.5 66.5c-76 0 -142.333 -25 -199 -75s-96.667 -117 -120 -201z" />
    <glyph glyph-name="Gcircumflex" unicode="&#x11c;" horiz-adv-x="1542" 
d="M1156 1896l185 -314h-208l-100 188h-17l-179 -188h-231l316 314h234zM1506 747l-40 -191c-39.333 -192 -117.666 -338.5 -234.999 -439.5s-267.333 -151.5 -450 -151.5c-175.333 0 -316.833 55.167 -424.5 165.5s-161.5 255.833 -161.5 436.5
c0 174.667 33 331.334 99 470.001s157.667 246.834 275 324.501s249.666 116.5 396.999 116.5c153.333 0 282.833 -43.333 388.5 -130s162.167 -196 169.5 -328c0.666992 -5.33301 1 -17 1 -35h-223c-6 85.333 -41 153.666 -105 204.999s-146.333 77 -247 77
c-98 0 -187 -29.5 -267 -88.5s-142.833 -140.5 -188.5 -244.5s-68.5 -219.667 -68.5 -347c0 -126.667 34.167 -226.834 102.5 -300.501s161.5 -110.5 279.5 -110.5c107.333 0 200 31.167 278 93.5s127.667 144.833 149 247.5l9 42h-367l39 188h590z" />
    <glyph glyph-name="gcircumflex" unicode="&#x11d;" horiz-adv-x="1276" 
d="M957 1584l207 -346h-210l-120 219h-17l-213 -219h-233l352 346h234zM513 -415c-131.333 0 -239.666 30.665 -324.999 91.998s-130 137 -134 227h221c6.66699 -41.333 32.5 -75.5 77.5 -102.5s103.5 -40.5 175.5 -40.5c86 0 154.5 19.333 205.5 58
s84.5 92.334 100.5 161.001l46 197l-17 1c-76 -106.667 -184.333 -160 -325 -160c-111.333 0 -204 39.5 -278 118.5s-111 181.167 -111 306.5c0 126 23.667 239.833 71 341.5s112.166 180.834 194.499 237.501s173.833 85 274.5 85c76 0 145.167 -20 207.5 -60
s103.833 -91.333 124.5 -154h17l42 196h209l-245 -1138c-24 -114 -82.5 -203.5 -175.5 -268.5s-211.5 -97.5 -355.5 -97.5zM617 197.998c101.333 0 185.833 41.8311 253.5 125.498s101.5 189.834 101.5 318.501c0 82.667 -23 148.334 -69 197.001s-107.667 73 -185 73
c-100.667 0 -183.5 -40.333 -248.5 -121s-97.5 -186.334 -97.5 -317.001c0 -85.333 22 -152.666 66 -201.999s103.667 -74 179 -74z" />
    <glyph glyph-name="Gbreve" unicode="&#x11e;" horiz-adv-x="1542" 
d="M1506 747l-40 -191c-39.333 -192 -117.666 -338.5 -234.999 -439.5s-267.333 -151.5 -450 -151.5c-175.333 0 -316.833 55.167 -424.5 165.5s-161.5 255.833 -161.5 436.5c0 174.667 33 331.334 99 470.001s157.667 246.834 275 324.501s249.666 116.5 396.999 116.5
c153.333 0 282.833 -43.333 388.5 -130s162.167 -196 169.5 -328c0.666992 -5.33301 1 -17 1 -35h-223c-6 85.333 -41 153.666 -105 204.999s-146.333 77 -247 77c-98 0 -187 -29.5 -267 -88.5s-142.833 -140.5 -188.5 -244.5s-68.5 -219.667 -68.5 -347
c0 -126.667 34.167 -226.834 102.5 -300.501s161.5 -110.5 279.5 -110.5c107.333 0 200 31.167 278 93.5s127.667 144.833 149 247.5l9 42h-367l39 188h590zM644 1872l0.00390625 19h170v-16c0 -43.333 18.167 -79.333 54.5 -108s81.5 -43 135.5 -43
c55.333 0 101.666 14.667 138.999 44s62.666 70.333 75.999 123h172c-16.667 -96 -60.334 -172.333 -131.001 -229s-157.334 -85 -260.001 -85c-105.333 0 -191 27.5 -257 82.5s-99 125.833 -99 212.5z" />
    <glyph glyph-name="gbreve" unicode="&#x11f;" horiz-adv-x="1276" 
d="M443 1576h171c-1.33301 -10.667 -2 -20.667 -2 -30c0 -48.667 17.5 -87.667 52.5 -117s81.5 -44 139.5 -44c64.667 0 116.667 16.333 156 49s63.666 80 72.999 142h174c-10 -102.667 -51.667 -184.667 -125 -246s-168.333 -92 -285 -92
c-109.333 0 -196.166 27.667 -260.499 83s-96.5 125.666 -96.5 210.999c0 14.667 1 29.334 3 44.001zM513 -415c-131.333 0 -239.666 30.665 -324.999 91.998s-130 137 -134 227h221c6.66699 -41.333 32.5 -75.5 77.5 -102.5s103.5 -40.5 175.5 -40.5
c86 0 154.5 19.333 205.5 58s84.5 92.334 100.5 161.001l46 197l-17 1c-76 -106.667 -184.333 -160 -325 -160c-111.333 0 -204 39.5 -278 118.5s-111 181.167 -111 306.5c0 126 23.667 239.833 71 341.5s112.166 180.834 194.499 237.501s173.833 85 274.5 85
c76 0 145.167 -20 207.5 -60s103.833 -91.333 124.5 -154h17l42 196h209l-245 -1138c-24 -114 -82.5 -203.5 -175.5 -268.5s-211.5 -97.5 -355.5 -97.5zM617 197.998c101.333 0 185.833 41.8311 253.5 125.498s101.5 189.834 101.5 318.501
c0 82.667 -23 148.334 -69 197.001s-107.667 73 -185 73c-100.667 0 -183.5 -40.333 -248.5 -121s-97.5 -186.334 -97.5 -317.001c0 -85.333 22 -152.666 66 -201.999s103.667 -74 179 -74z" />
    <glyph glyph-name="Gdotaccent" unicode="&#x120;" horiz-adv-x="1542" 
d="M1014 1577c-38 0 -69.833 13.167 -95.5 39.5s-38.5 58.833 -38.5 97.5s12.833 71.167 38.5 97.5s57.5 39.5 95.5 39.5s69.833 -13.167 95.5 -39.5s38.5 -58.833 38.5 -97.5s-12.833 -71.167 -38.5 -97.5s-57.5 -39.5 -95.5 -39.5zM1506 747l-40 -191
c-39.333 -192 -117.666 -338.5 -234.999 -439.5s-267.333 -151.5 -450 -151.5c-175.333 0 -316.833 55.167 -424.5 165.5s-161.5 255.833 -161.5 436.5c0 174.667 33 331.334 99 470.001s157.667 246.834 275 324.501s249.666 116.5 396.999 116.5
c153.333 0 282.833 -43.333 388.5 -130s162.167 -196 169.5 -328c0.666992 -5.33301 1 -17 1 -35h-223c-6 85.333 -41 153.666 -105 204.999s-146.333 77 -247 77c-98 0 -187 -29.5 -267 -88.5s-142.833 -140.5 -188.5 -244.5s-68.5 -219.667 -68.5 -347
c0 -126.667 34.167 -226.834 102.5 -300.501s161.5 -110.5 279.5 -110.5c107.333 0 200 31.167 278 93.5s127.667 144.833 149 247.5l9 42h-367l39 188h590z" />
    <glyph glyph-name="gdotaccent" unicode="&#x121;" horiz-adv-x="1276" 
d="M819 1281c-38.667 0 -71.667 14 -99 42s-41 62 -41 102s13.667 73.833 41 101.5s60.333 41.5 99 41.5c39.333 0 72.5 -13.833 99.5 -41.5s40.5 -61.5 40.5 -101.5s-13.667 -74 -41 -102s-60.333 -42 -99 -42zM513 -415c-131.333 0 -239.666 30.665 -324.999 91.998
s-130 137 -134 227h221c6.66699 -41.333 32.5 -75.5 77.5 -102.5s103.5 -40.5 175.5 -40.5c86 0 154.5 19.333 205.5 58s84.5 92.334 100.5 161.001l46 197l-17 1c-76 -106.667 -184.333 -160 -325 -160c-111.333 0 -204 39.5 -278 118.5s-111 181.167 -111 306.5
c0 126 23.667 239.833 71 341.5s112.166 180.834 194.499 237.501s173.833 85 274.5 85c76 0 145.167 -20 207.5 -60s103.833 -91.333 124.5 -154h17l42 196h209l-245 -1138c-24 -114 -82.5 -203.5 -175.5 -268.5s-211.5 -97.5 -355.5 -97.5zM617 197.998
c101.333 0 185.833 41.8311 253.5 125.498s101.5 189.834 101.5 318.501c0 82.667 -23 148.334 -69 197.001s-107.667 73 -185 73c-100.667 0 -183.5 -40.333 -248.5 -121s-97.5 -186.334 -97.5 -317.001c0 -85.333 22 -152.666 66 -201.999s103.667 -74 179 -74z" />
    <glyph glyph-name="Gcommaaccent" unicode="&#x122;" horiz-adv-x="1542" 
d="M692 -514h-200l178 368h222zM1506 747l-40 -191c-39.333 -192 -117.666 -338.5 -234.999 -439.5s-267.333 -151.5 -450 -151.5c-175.333 0 -316.833 55.167 -424.5 165.5s-161.5 255.833 -161.5 436.5c0 174.667 33 331.334 99 470.001s157.667 246.834 275 324.501
s249.666 116.5 396.999 116.5c153.333 0 282.833 -43.333 388.5 -130s162.167 -196 169.5 -328c0.666992 -5.33301 1 -17 1 -35h-223c-6 85.333 -41 153.666 -105 204.999s-146.333 77 -247 77c-98 0 -187 -29.5 -267 -88.5s-142.833 -140.5 -188.5 -244.5
s-68.5 -219.667 -68.5 -347c0 -126.667 34.167 -226.834 102.5 -300.501s161.5 -110.5 279.5 -110.5c107.333 0 200 31.167 278 93.5s127.667 144.833 149 247.5l9 42h-367l39 188h590z" />
    <glyph glyph-name="gcommaaccent" unicode="&#x123;" horiz-adv-x="1277" 
d="M1090 1657h200l-178 -368h-222zM513 -415c-131.333 0 -239.666 30.665 -324.999 91.998s-130 137 -134 227h221c6.66699 -41.333 32.5 -75.5 77.5 -102.5s103.5 -40.5 175.5 -40.5c86 0 154.5 19.333 205.5 58s84.5 92.334 100.5 161.001l46 197l-17 1
c-76 -106.667 -184.333 -160 -325 -160c-111.333 0 -204 39.5 -278 118.5s-111 181.167 -111 306.5c0 126 23.667 239.833 71 341.5s112.166 180.834 194.499 237.501s173.833 85 274.5 85c76 0 145.167 -20 207.5 -60s103.833 -91.333 124.5 -154h17l42 196h209l-245 -1138
c-24 -114 -82.5 -203.5 -175.5 -268.5s-211.5 -97.5 -355.5 -97.5zM617 197.998c101.333 0 185.833 41.8311 253.5 125.498s101.5 189.834 101.5 318.501c0 82.667 -23 148.334 -69 197.001s-107.667 73 -185 73c-100.667 0 -183.5 -40.333 -248.5 -121
s-97.5 -186.334 -97.5 -317.001c0 -85.333 22 -152.666 66 -201.999s103.667 -74 179 -74z" />
    <glyph glyph-name="Hcircumflex" unicode="&#x124;" horiz-adv-x="1552" 
d="M1307 0h-229l137 633h-738l-136 -633h-226l307 1443h227l-130 -606h737l130 606h228zM1217 1896l185 -314h-208l-100 188h-17l-179 -188h-231l316 314h234z" />
    <glyph glyph-name="hcircumflex" unicode="&#x125;" horiz-adv-x="1267" 
d="M97 0l323.001 1510h217l-127 -584h17c82.667 122 195 183 337 183c102.667 0 185.834 -31.167 249.501 -93.5s95.5 -138.166 95.5 -227.499c0 -38 -4.66699 -80.333 -14 -127l-140 -661h-217l133 623c8 40 12 72 12 96c0 60 -20 107.833 -60 143.5s-94 53.5 -162 53.5
c-76.667 0 -142.834 -24 -198.501 -72s-91.834 -110 -108.501 -186l-140 -658h-217zM727.001 1963l185 -314h-208l-100 188h-17l-179 -188h-231l316 314h234z" />
    <glyph glyph-name="Hbar" unicode="&#x126;" horiz-adv-x="1503" 
d="M1233 837l49 229h-737l-49 -229h737zM1675 1237l-34 -171h-130l-227 -1066h-229l137 633h-738l-136 -633h-226l227 1066h-133l34 171h135l44 206h227l-44 -206h737l44 206h228l-44 -206h128z" />
    <glyph glyph-name="hbar" unicode="&#x127;" horiz-adv-x="1283" 
d="M510 926l17.001 -0.000976562c82.667 122 195 183 337 183c102.667 0 185.834 -31.167 249.501 -93.5s95.5 -138.166 95.5 -227.499c0 -38 -4.66699 -80.333 -14 -127l-140 -661h-217l133 623c8 40 12 72 12 96c0 60 -20 107.833 -60 143.5s-94 53.5 -162 53.5
c-76.667 0 -142.834 -24 -198.501 -72s-91.834 -110 -108.501 -186l-140 -658h-217l273 1275h-156l29 139h156l21 96h217l-21 -96h228l-29 -139h-229z" />
    <glyph glyph-name="Itilde" unicode="&#x128;" horiz-adv-x="587" 
d="M342 0h-227l307 1443h227zM751 1576c-30.667 0 -59.5 5.33203 -86.5 15.999s-49.667 23.667 -68 39s-35.5 30.5 -51.5 45.5s-32.333 27.833 -49 38.5s-33 16 -49 16c-57.333 0 -93.333 -37.333 -108 -112h-156c12.667 82 43.167 146.5 91.5 193.5s105.5 70.5 171.5 70.5
c30.667 0 59.167 -5.33301 85.5 -16s48.833 -23.5 67.5 -38.5s36 -30.167 52 -45.5s32.333 -28.333 49 -39s33 -16 49 -16c57.333 0 93.333 37.333 108 112h156c-12 -81.333 -42.167 -145.666 -90.5 -192.999s-105.5 -71 -171.5 -71z" />
    <glyph glyph-name="itilde" unicode="&#x129;" horiz-adv-x="546" 
d="M100 0l231 1089h215l-231 -1089h-215zM668 1230c-32 0 -61.335 6 -88.002 18s-48.667 26.667 -66 44s-33.666 34.5 -48.999 51.5s-31.166 31.5 -47.499 43.5s-32.833 18 -49.5 18c-55.333 0 -91 -44 -107 -132h-157c10 88.667 39.333 158.167 88 208.5
s107.667 75.5 177 75.5c38.667 0 73.834 -9.16699 105.501 -27.5s56.167 -38.333 73.5 -60s36.666 -41.667 57.999 -60s42.333 -27.5 63 -27.5c56 0 92 44 108 132h157c-10.667 -88 -40.167 -157.333 -88.5 -208s-107.5 -76 -177.5 -76z" />
    <glyph glyph-name="Imacron" unicode="&#x12a;" horiz-adv-x="587" 
d="M342 0h-227l307 1443h227zM924 1625h-699l32 156h699z" />
    <glyph glyph-name="imacron" unicode="&#x12b;" horiz-adv-x="546" 
d="M100 0l231 1089h215l-231 -1089h-215zM831 1299h-696l32 155h696z" />
    <glyph glyph-name="Ibreve" unicode="&#x12c;" horiz-adv-x="587" 
d="M342 0h-227l307 1443h227zM224 1872l0.00390625 19h170v-16c0 -43.333 18.167 -79.333 54.5 -108s81.5 -43 135.5 -43c55.333 0 101.666 14.667 138.999 44s62.666 70.333 75.999 123h172c-16.667 -96 -60.334 -172.333 -131.001 -229s-157.334 -85 -260.001 -85
c-105.333 0 -191 27.5 -257 82.5s-99 125.833 -99 212.5z" />
    <glyph glyph-name="ibreve" unicode="&#x12d;" horiz-adv-x="546" 
d="M100 0l231 1089h215l-231 -1089h-215zM134 1576h171c-1.33301 -10.667 -2 -20.667 -2 -30c0 -48.667 17.5 -87.667 52.5 -117s81.5 -44 139.5 -44c64.667 0 116.667 16.333 156 49s63.666 80 72.999 142h174c-10 -102.667 -51.667 -184.667 -125 -246
s-168.333 -92 -285 -92c-109.333 0 -196.166 27.667 -260.499 83s-96.5 125.666 -96.5 210.999c0 14.667 1 29.334 3 44.001z" />
    <glyph glyph-name="Iogonek" unicode="&#x12e;" horiz-adv-x="587" 
d="M422 1443l227 0.000976562l-299 -1404c-76.667 -36.667 -132.167 -73.334 -166.5 -110.001s-51.5 -77.667 -51.5 -123c0 -30.667 9.66699 -54.667 29 -72s46 -26 80 -26c30 0 52 2.33301 66 7l-29 -143c-28 -10 -61.333 -15 -100 -15
c-70.667 0 -127.167 18.167 -169.5 54.5s-63.5 84.833 -63.5 145.5c0 56.667 15.167 106.667 45.5 150s80.5 87.333 150.5 132l1 4h-18z" />
    <glyph glyph-name="iogonek" unicode="&#x12f;" horiz-adv-x="546" 
d="M508 1280c-39.333 0 -72.333 12.5 -99 37.5s-40 55.833 -40 92.5c0 37.333 13.333 68.833 40 94.5s59.667 38.5 99 38.5s72.333 -12.5 99 -37.5s40 -55.833 40 -92.5c0 -37.333 -13.333 -68.833 -40 -94.5s-59.667 -38.5 -99 -38.5zM156 -443
c-70.667 0 -127.167 18.167 -169.5 54.5s-63.5 84.833 -63.5 145.5c0 55.333 15.833 104.833 47.5 148.5s83.167 88.167 154.5 133.5l1 4h-18l223 1046h219l-224 -1050c-76 -36 -131 -72.5 -165 -109.5s-51 -78.167 -51 -123.5c0 -30.667 9.83301 -54.667 29.5 -72
s46.167 -26 79.5 -26c30 0 52 2.33301 66 7l-29 -143c-28 -10 -61.333 -15 -100 -15z" />
    <glyph glyph-name="Idotaccent" unicode="&#x130;" horiz-adv-x="587" 
d="M342 0h-227l307 1443h227zM593 1577c-38 0 -69.833 13.167 -95.5 39.5s-38.5 58.833 -38.5 97.5s12.833 71.167 38.5 97.5s57.5 39.5 95.5 39.5s69.833 -13.167 95.5 -39.5s38.5 -58.833 38.5 -97.5s-12.833 -71.167 -38.5 -97.5s-57.5 -39.5 -95.5 -39.5z" />
    <glyph glyph-name="dotlessi" unicode="&#x131;" horiz-adv-x="546" 
d="M100 0l231 1089h215l-231 -1089h-215z" />
    <glyph glyph-name="u0132" unicode="&#x132;" horiz-adv-x="1733" 
d="M342 0h-227l307 1443h227zM678 370h222v-4c1.33301 -57.333 20.5 -102.833 57.5 -136.5s86.833 -50.5 149.5 -50.5c128.667 0 210.667 81 246 243l218 1021h223l-225 -1063c-28 -134 -82.833 -236.667 -164.5 -308s-187.167 -107 -316.5 -107
c-124.667 0 -225.667 37 -303 111s-113 167.667 -107 281v13z" />
    <glyph glyph-name="u0133" unicode="&#x133;" horiz-adv-x="1092" 
d="M98 0l233 1089h218l-232 -1089h-219zM508 1280c-40 0 -73.167 12.5 -99.5 37.5s-39.5 55.833 -39.5 92.5c0 37.333 13.167 68.833 39.5 94.5s59.5 38.5 99.5 38.5s73.167 -12.5 99.5 -37.5s39.5 -55.833 39.5 -92.5c0 -37.333 -13.167 -68.833 -39.5 -94.5
s-59.5 -38.5 -99.5 -38.5zM1093 1089l-251 -1173c-42.667 -202 -165 -303 -367 -303c-38 0 -71 2.33301 -99 7l38 184c26.667 -2.66699 45.667 -4 57 -4c47.333 0 83.5 11 108.5 33s42.833 58.667 53.5 110l245 1146h215zM1054 1280c-40 0 -73.167 12.5 -99.5 37.5
s-39.5 55.833 -39.5 92.5c0 37.333 13.167 68.833 39.5 94.5s59.5 38.5 99.5 38.5s73.167 -12.5 99.5 -37.5s39.5 -55.833 39.5 -92.5c0 -37.333 -13.167 -68.833 -39.5 -94.5s-59.5 -38.5 -99.5 -38.5z" />
    <glyph glyph-name="Jcircumflex" unicode="&#x134;" horiz-adv-x="1148" 
d="M92 370h222v-4c1.33301 -57.333 20.5 -102.833 57.5 -136.5s86.833 -50.5 149.5 -50.5c128.667 0 210.667 81 246 243l218 1021h223l-225 -1063c-28 -134 -82.833 -236.667 -164.5 -308s-187.167 -107 -316.5 -107c-124.667 0 -225.667 37 -303 111
s-113 167.667 -107 281v13zM1296 1896l185 -314h-208l-100 188h-17l-179 -188h-231l316 314h234z" />
    <glyph glyph-name="jcircumflex" unicode="&#x135;" horiz-adv-x="546" 
d="M547 1089l-251 -1173c-42.667 -202 -165 -303 -367 -303c-38 0 -71 2.33301 -99 7l38 184c26.667 -2.66699 45.667 -4 57 -4c47.333 0 83.5 11 108.5 33s42.833 58.667 53.5 110l245 1146h215zM649 1584l207 -346h-210l-120 219h-17l-213 -219h-233l352 346h234z" />
    <glyph glyph-name="Kcommaaccent" unicode="&#x136;" horiz-adv-x="1387" 
d="M338 0h-223l307 1443h223l-145 -672h17l731 672h279l-690 -643l425 -800h-257l-349 657l-216 -194zM552 -514h-200l178 368h222z" />
    <glyph glyph-name="kcommaaccent" unicode="&#x137;" horiz-adv-x="1152" 
d="M470 660l510 429h268l-552 -472l350 -617h-244l-280 490l-123 -94l-85 -396h-217l322 1514h216l-182 -854h17zM451 -514h-200l178 368h222z" />
    <glyph glyph-name="Lacute" unicode="&#x139;" horiz-adv-x="1184" 
d="M453 1582l362 306h258l-390 -306h-230zM1058 206l-42 -206h-901l307 1443h227l-266 -1237h675z" />
    <glyph glyph-name="lacute" unicode="&#x13a;" horiz-adv-x="545" 
d="M446 1652l362 306h258l-390 -306h-230zM97 0l322 1514h218l-321 -1514h-219z" />
    <glyph glyph-name="Lcommaaccent" unicode="&#x13b;" horiz-adv-x="1184" 
d="M462 -514h-200l178 368h222zM1058 206l-42 -206h-901l307 1443h227l-266 -1237h675z" />
    <glyph glyph-name="lcommaaccent" unicode="&#x13c;" horiz-adv-x="545" 
d="M104 -514h-200l178 368h222zM97 0l322 1514h218l-321 -1514h-219z" />
    <glyph glyph-name="Lcaron" unicode="&#x13d;" horiz-adv-x="1184" 
d="M857 1443h197l-155 -495h-147zM1058 206l-42 -206h-901l307 1443h227l-266 -1237h675z" />
    <glyph glyph-name="lcaron" unicode="&#x13e;" horiz-adv-x="686" 
d="M763 1514h199l-155 -496h-149zM97 0l322 1514h218l-321 -1514h-219z" />
    <glyph glyph-name="Lslash" unicode="&#x141;" horiz-adv-x="1154" 
d="M393 206h675l-42 -206h-901l148 696l-180 -79l34 170l183 80l122 576h227l-100 -466l292 129l-34 -171l-295 -130z" />
    <glyph glyph-name="lslash" unicode="&#x142;" horiz-adv-x="544" 
d="M659 1036l-35 -170l-138 -64l-170 -802h-219l146 689l-132 -62l34 170l135 63l139 654h218l-115 -542z" />
    <glyph glyph-name="Nacute" unicode="&#x143;" horiz-adv-x="1539" 
d="M929 1582l362 306h258l-390 -306h-230zM337 0h-222l307 1443h196l514 -1055h17l229 1055h223l-307 -1443h-198l-514 1051h-17z" />
    <glyph glyph-name="nacute" unicode="&#x144;" horiz-adv-x="1247" 
d="M686 1273l324 344h252l-354 -344h-222zM88 0l231.002 1093h209l-35 -167h17c36.667 55.333 83.667 99.833 141 133.5s123.666 50.5 198.999 50.5c101.333 0 183.666 -31.167 246.999 -93.5s95 -138.5 95 -228.5c0 -40 -5 -82.333 -15 -127l-139 -661h-217l132 623
c8 36 12 68 12 96c0 58.667 -19.667 106.167 -59 142.5s-92 54.5 -158 54.5c-75.333 0 -140.5 -24 -195.5 -72s-90.833 -110 -107.5 -186l-140 -658h-217z" />
    <glyph glyph-name="Ncommaaccent" unicode="&#x145;" horiz-adv-x="1539" 
d="M609 -514h-200l178 368h222zM337 0h-222l307 1443h196l514 -1055h17l229 1055h223l-307 -1443h-198l-514 1051h-17z" />
    <glyph glyph-name="ncommaaccent" unicode="&#x146;" horiz-adv-x="1247" 
d="M459 -514h-200l178 368h222zM88 0l231.002 1093h209l-35 -167h17c36.667 55.333 83.667 99.833 141 133.5s123.666 50.5 198.999 50.5c101.333 0 183.666 -31.167 246.999 -93.5s95 -138.5 95 -228.5c0 -40 -5 -82.333 -15 -127l-139 -661h-217l132 623c8 36 12 68 12 96
c0 58.667 -19.667 106.167 -59 142.5s-92 54.5 -158 54.5c-75.333 0 -140.5 -24 -195.5 -72s-90.833 -110 -107.5 -186l-140 -658h-217z" />
    <glyph glyph-name="Ncaron" unicode="&#x147;" horiz-adv-x="1539" 
d="M934 1582l-185 314h208l101 -188h16l179 188h232l-317 -314h-234zM337 0h-222l307 1443h196l514 -1055h17l229 1055h223l-307 -1443h-198l-514 1051h-17z" />
    <glyph glyph-name="ncaron" unicode="&#x148;" horiz-adv-x="1247" 
d="M931 1240h-234l-206 346h208l120 -219h16l214 219h235zM88 0l231.002 1093h209l-35 -167h17c36.667 55.333 83.667 99.833 141 133.5s123.666 50.5 198.999 50.5c101.333 0 183.666 -31.167 246.999 -93.5s95 -138.5 95 -228.5c0 -40 -5 -82.333 -15 -127l-139 -661h-217
l132 623c8 36 12 68 12 96c0 58.667 -19.667 106.167 -59 142.5s-92 54.5 -158 54.5c-75.333 0 -140.5 -24 -195.5 -72s-90.833 -110 -107.5 -186l-140 -658h-217z" />
    <glyph glyph-name="Omacron" unicode="&#x14c;" horiz-adv-x="1593" 
d="M793 -35c-115.333 0 -218.832 26.1641 -310.499 78.4971s-162.667 124.333 -213 216s-75.5 194.834 -75.5 309.501c0 173.333 34 329.333 102 468s161.667 246.834 281 324.501s253 116.5 401 116.5c116 0 219.5 -26 310.5 -78s161.333 -123.833 211 -215.5
s74.5 -195.167 74.5 -310.5c0 -130.667 -19.667 -252.5 -59 -365.5s-93.5 -209.167 -162.5 -288.5s-151.833 -141.666 -248.5 -186.999s-200.334 -68 -311.001 -68zM1341 854.997c0 122.667 -34.668 221.832 -104.001 297.499s-160 113.5 -272 113.5
c-100 0 -191.167 -29.667 -273.5 -89s-147 -140.833 -194 -244.5s-70.5 -218.834 -70.5 -345.501c0 -123.333 34.833 -222.666 104.5 -297.999s161.5 -113 275.5 -113c100.667 0 191.834 29.333 273.501 88s145.5 139.834 191.5 243.501s69 219.5 69 347.5zM1364 1623h-699
l32 156h699z" />
    <glyph glyph-name="omacron" unicode="&#x14d;" horiz-adv-x="1238" 
d="M1126 1299h-696l32 155h696zM374 456c0 -84.667 22.6689 -153.333 68.002 -206s107.333 -79 186 -79c90.667 0 170 43 238 129s102 192.333 102 319c0 94 -21.833 167.5 -65.5 220.5s-103.834 79.5 -180.501 79.5c-104.667 0 -188.834 -43.833 -252.501 -131.5
s-95.5 -198.167 -95.5 -331.5zM607.002 -20.999c-137.333 0 -248.168 42.6689 -332.501 128.002s-126.5 196.666 -126.5 333.999c0 91.333 13.833 177.666 41.5 258.999s66.5 152.333 116.5 213s112.333 108.667 187 144s156.334 53 245.001 53
c137.333 0 247.833 -42.667 331.5 -128s125.5 -196.333 125.5 -333c0 -120 -23.167 -230.5 -69.5 -331.5s-114.833 -182.667 -205.5 -245s-195 -93.5 -313 -93.5z" />
    <glyph glyph-name="Obreve" unicode="&#x14e;" horiz-adv-x="1593" 
d="M793 -35c-115.333 0 -218.832 26.1641 -310.499 78.4971s-162.667 124.333 -213 216s-75.5 194.834 -75.5 309.501c0 173.333 34 329.333 102 468s161.667 246.834 281 324.501s253 116.5 401 116.5c116 0 219.5 -26 310.5 -78s161.333 -123.833 211 -215.5
s74.5 -195.167 74.5 -310.5c0 -130.667 -19.667 -252.5 -59 -365.5s-93.5 -209.167 -162.5 -288.5s-151.833 -141.666 -248.5 -186.999s-200.334 -68 -311.001 -68zM1341 854.997c0 122.667 -34.668 221.832 -104.001 297.499s-160 113.5 -272 113.5
c-100 0 -191.167 -29.667 -273.5 -89s-147 -140.833 -194 -244.5s-70.5 -218.834 -70.5 -345.501c0 -123.333 34.833 -222.666 104.5 -297.999s161.5 -113 275.5 -113c100.667 0 191.834 29.333 273.501 88s145.5 139.834 191.5 243.501s69 219.5 69 347.5zM664 1870
l0.00390625 19h170v-16c0 -43.333 18.167 -79.333 54.5 -108s81.5 -43 135.5 -43c55.333 0 101.666 14.667 138.999 44s62.666 70.333 75.999 123h172c-16.667 -96 -60.334 -172.333 -131.001 -229s-157.334 -85 -260.001 -85c-105.333 0 -191 27.5 -257 82.5
s-99 125.833 -99 212.5z" />
    <glyph glyph-name="obreve" unicode="&#x14f;" horiz-adv-x="1238" 
d="M429 1576h171c-1.33301 -10.667 -2 -20.667 -2 -30c0 -48.667 17.5 -87.667 52.5 -117s81.5 -44 139.5 -44c64.667 0 116.667 16.333 156 49s63.666 80 72.999 142h174c-10 -102.667 -51.667 -184.667 -125 -246s-168.333 -92 -285 -92
c-109.333 0 -196.166 27.667 -260.499 83s-96.5 125.666 -96.5 210.999c0 14.667 1 29.334 3 44.001zM374 456c0 -84.667 22.6689 -153.333 68.002 -206s107.333 -79 186 -79c90.667 0 170 43 238 129s102 192.333 102 319c0 94 -21.833 167.5 -65.5 220.5
s-103.834 79.5 -180.501 79.5c-104.667 0 -188.834 -43.833 -252.501 -131.5s-95.5 -198.167 -95.5 -331.5zM607.002 -20.999c-137.333 0 -248.168 42.6689 -332.501 128.002s-126.5 196.666 -126.5 333.999c0 91.333 13.833 177.666 41.5 258.999s66.5 152.333 116.5 213
s112.333 108.667 187 144s156.334 53 245.001 53c137.333 0 247.833 -42.667 331.5 -128s125.5 -196.333 125.5 -333c0 -120 -23.167 -230.5 -69.5 -331.5s-114.833 -182.667 -205.5 -245s-195 -93.5 -313 -93.5z" />
    <glyph glyph-name="Ohungarumlaut" unicode="&#x150;" horiz-adv-x="1593" 
d="M1080 1580l354 306h242l-377 -306h-219zM658 1580l354 306h241l-376 -306h-219zM793 -35c-115.333 0 -218.832 26.1641 -310.499 78.4971s-162.667 124.333 -213 216s-75.5 194.834 -75.5 309.501c0 173.333 34 329.333 102 468s161.667 246.834 281 324.501
s253 116.5 401 116.5c116 0 219.5 -26 310.5 -78s161.333 -123.833 211 -215.5s74.5 -195.167 74.5 -310.5c0 -130.667 -19.667 -252.5 -59 -365.5s-93.5 -209.167 -162.5 -288.5s-151.833 -141.666 -248.5 -186.999s-200.334 -68 -311.001 -68zM1341 854.997
c0 122.667 -34.668 221.832 -104.001 297.499s-160 113.5 -272 113.5c-100 0 -191.167 -29.667 -273.5 -89s-147 -140.833 -194 -244.5s-70.5 -218.834 -70.5 -345.501c0 -123.333 34.833 -222.666 104.5 -297.999s161.5 -113 275.5 -113
c100.667 0 191.834 29.333 273.501 88s145.5 139.834 191.5 243.501s69 219.5 69 347.5z" />
    <glyph glyph-name="ohungarumlaut" unicode="&#x151;" horiz-adv-x="1238" 
d="M877 1271l311 344h228l-339 -344h-200zM464 1271l311 344h228l-339 -344h-200zM374 456c0 -84.667 22.6689 -153.333 68.002 -206s107.333 -79 186 -79c90.667 0 170 43 238 129s102 192.333 102 319c0 94 -21.833 167.5 -65.5 220.5s-103.834 79.5 -180.501 79.5
c-104.667 0 -188.834 -43.833 -252.501 -131.5s-95.5 -198.167 -95.5 -331.5zM607.002 -20.999c-137.333 0 -248.168 42.6689 -332.501 128.002s-126.5 196.666 -126.5 333.999c0 91.333 13.833 177.666 41.5 258.999s66.5 152.333 116.5 213s112.333 108.667 187 144
s156.334 53 245.001 53c137.333 0 247.833 -42.667 331.5 -128s125.5 -196.333 125.5 -333c0 -120 -23.167 -230.5 -69.5 -331.5s-114.833 -182.667 -205.5 -245s-195 -93.5 -313 -93.5z" />
    <glyph glyph-name="OE" unicode="&#x152;" horiz-adv-x="2320" 
d="M1344 856c0 123.333 -34.833 222.832 -104.5 298.499s-160.5 113.5 -272.5 113.5c-100 0 -191.333 -29.667 -274 -89s-147.5 -141.166 -194.5 -245.499s-70.5 -219.833 -70.5 -346.5c0 -124 34.833 -223.667 104.5 -299s161.5 -113 275.5 -113
c101.333 0 192.833 29.5 274.5 88.5s145.667 140.5 192 244.5s69.5 220 69.5 348zM1210 -0.000976562l26.999 122.999h-15c-50 -48.667 -111.833 -87.167 -185.5 -115.5s-154.167 -42.5 -241.5 -42.5c-174 0 -317.5 56.667 -430.5 170s-169.5 258 -169.5 434
c0 129.333 19.833 250.333 59.5 363s94.167 208.834 163.5 288.501s152.5 142.5 249.5 188.5s201.167 69 312.5 69c106 0 200.333 -23.833 283 -71.5s145.334 -110.5 188.001 -188.5l17 1l49 224h898l-42 -204h-690l-91 -408h654l-40 -194h-652l-96 -433h690l-40 -204h-898z
" />
    <glyph glyph-name="oe" unicode="&#x153;" horiz-adv-x="2012" 
d="M1414 -21c-84 0 -158.503 17.832 -223.503 53.499s-116.167 86.834 -153.5 153.501h-16c-102 -138 -240.667 -207 -416 -207c-136.667 0 -247 42.333 -331 127s-126 196 -126 334c0 128.667 25.167 244 75.5 346s120.333 181.5 210 238.5s190.834 85.5 303.501 85.5
c84 0 157.833 -18.5 221.5 -55.5s112.5 -89.833 146.5 -158.5h17c96.667 142.667 233.334 214 410.001 214c126.667 0 229.834 -41.5 309.501 -124.5s119.834 -190.5 120.501 -322.5c0 -58 -5 -114.667 -15 -170h-774c-1.33301 -26.667 -2 -41.667 -2 -45
c0 -86 23.333 -154.333 70 -205s109 -76 187 -76c122.667 0 206.334 42 251.001 126h219c-24.667 -95.333 -80.834 -171.5 -168.501 -228.5s-192.834 -85.5 -315.501 -85.5zM1199 650.999l547 -0.000976562c1.33301 8 2 22.333 2 43c0 69.333 -21.167 125.5 -63.5 168.5
s-97.833 64.5 -166.5 64.5c-75.333 0 -141.5 -24.667 -198.5 -74s-97.167 -116.666 -120.5 -201.999zM373.997 455.998c0 -86.667 23.1689 -155.999 69.502 -207.999s107.833 -78 184.5 -78c93.333 0 173.333 44 240 132s100 193.667 100 317
c0 93.333 -21.833 166.666 -65.5 219.999s-103.834 80 -180.501 80c-102.667 0 -186.334 -43.167 -251.001 -129.5s-97 -197.5 -97 -333.5z" />
    <glyph glyph-name="Racute" unicode="&#x154;" horiz-adv-x="1367" 
d="M751 1582l362 306h258l-390 -306h-230zM115 0l307 1443h524c132 0 238.167 -36.167 318.5 -108.5s120.5 -167.5 120.5 -285.5c0 -110 -34.167 -207.667 -102.5 -293s-159.5 -143.666 -273.5 -174.999l204 -581h-243l-182 550h-328l-118 -550h-227zM609 1246l-111 -505
h318c99.333 0 180.333 26.833 243 80.5s94 122.5 94 206.5c0 67.333 -21 120.5 -63 159.5s-99.333 58.5 -172 58.5h-309z" />
    <glyph glyph-name="racute" unicode="&#x155;" horiz-adv-x="804" 
d="M499 1271l324 344h252l-354 -344h-222zM81 0l232.001 1089h208l-30 -143h17c67.333 107.333 161.666 161 282.999 161c59.333 0 103.333 -6 132 -18l-45 -210c-42.667 13.333 -91.667 20 -147 20c-81.333 0 -146.5 -22.333 -195.5 -67s-83.833 -113.667 -104.5 -207
l-133 -625h-217z" />
    <glyph glyph-name="Rcommaaccent" unicode="&#x156;" horiz-adv-x="1367" 
d="M115 0l307 1443h524c132 0 238.167 -36.167 318.5 -108.5s120.5 -167.5 120.5 -285.5c0 -110 -34.167 -207.667 -102.5 -293s-159.5 -143.666 -273.5 -174.999l204 -581h-243l-182 550h-328l-118 -550h-227zM609 1246l-111 -505h318c99.333 0 180.333 26.833 243 80.5
s94 122.5 94 206.5c0 67.333 -21 120.5 -63 159.5s-99.333 58.5 -172 58.5h-309zM549 -514.001h-200l178 368h222z" />
    <glyph glyph-name="rcommaaccent" unicode="&#x157;" horiz-adv-x="804" 
d="M81 0l232.001 1089h208l-30 -143h17c67.333 107.333 161.666 161 282.999 161c59.333 0 103.333 -6 132 -18l-45 -210c-42.667 13.333 -91.667 20 -147 20c-81.333 0 -146.5 -22.333 -195.5 -67s-83.833 -113.667 -104.5 -207l-133 -625h-217zM94.001 -514h-200l178 368
h222z" />
    <glyph glyph-name="Rcaron" unicode="&#x158;" horiz-adv-x="1367" 
d="M115 0l307 1443h524c132 0 238.167 -36.167 318.5 -108.5s120.5 -167.5 120.5 -285.5c0 -110 -34.167 -207.667 -102.5 -293s-159.5 -143.666 -273.5 -174.999l204 -581h-243l-182 550h-328l-118 -550h-227zM609 1246l-111 -505h318c99.333 0 180.333 26.833 243 80.5
s94 122.5 94 206.5c0 67.333 -21 120.5 -63 159.5s-99.333 58.5 -172 58.5h-309zM756 1582l-185 314h208l101 -188h16l179 188h232l-317 -314h-234z" />
    <glyph glyph-name="rcaron" unicode="&#x159;" horiz-adv-x="804" 
d="M744 1238h-234l-206 346h208l120 -219h16l214 219h235zM81 0l232.001 1089h208l-30 -143h17c67.333 107.333 161.666 161 282.999 161c59.333 0 103.333 -6 132 -18l-45 -210c-42.667 13.333 -91.667 20 -147 20c-81.333 0 -146.5 -22.333 -195.5 -67
s-83.833 -113.667 -104.5 -207l-133 -625h-217z" />
    <glyph glyph-name="Sacute" unicode="&#x15a;" horiz-adv-x="1307" 
d="M774 1582l362 306h258l-390 -306h-230zM115 405h221.002c14.667 -73.333 53.5 -131.833 116.5 -175.5s139.833 -65.5 230.5 -65.5c93.333 0 168.666 20.833 225.999 62.5s86 96.167 86 163.5c0 52 -19 95.667 -57 131s-101 67.333 -189 96l-142 48
c-101.333 34 -179.833 84.167 -235.5 150.5s-83.5 143.166 -83.5 230.499c0 124 50.333 227 151 309s227 123 379 123c144.667 0 265.5 -40.167 362.5 -120.5s150.167 -184.166 159.5 -311.499h-219c-15.333 72 -50.833 129 -106.5 171s-124.834 63 -207.501 63
s-151.167 -19.833 -205.5 -59.5s-81.5 -89.834 -81.5 -150.501c0 -46 17.667 -86.333 53 -121s90.333 -64.667 165 -90l137 -47c120 -41.333 208.667 -93.666 266 -156.999s86 -141.333 86 -234c0 -136 -52 -246 -156 -330s-239.333 -126 -406 -126
c-154 0 -280.333 39.167 -379 117.5s-155.667 185.833 -171 322.5z" />
    <glyph glyph-name="sacute" unicode="&#x15b;" horiz-adv-x="1087" 
d="M92 301h215.002c12 -44 38.833 -79.667 80.5 -107s93.167 -41 154.5 -41c67.333 0 122 13.5 164 40.5s63 62.167 63 105.5c0 29.333 -9.66699 54.5 -29 75.5s-52 38.833 -98 53.5l-167 56c-86 28.667 -149.833 66.167 -191.5 112.5s-62.5 105.166 -62.5 176.499
c0 100 39.667 181.167 119 243.5s180.666 93.5 303.999 93.5c120 0 217.667 -28 293 -84s119 -131 131 -225h-206c-9.33301 41.333 -33.666 74 -72.999 98s-88.333 36 -147 36c-60.667 0 -110.667 -13.167 -150 -39.5s-59 -59.833 -59 -100.5c0 -56.667 47 -100 141 -130
l157 -54c90 -29.333 155.333 -67.166 196 -113.499s61 -105.5 61 -177.5c0 -100 -42.167 -181.833 -126.5 -245.5s-192.5 -95.5 -324.5 -95.5c-126.667 0 -230.834 29.667 -312.501 89s-125.834 137 -132.501 233zM574.002 1271l324 344h252l-354 -344h-222z" />
    <glyph glyph-name="Scircumflex" unicode="&#x15c;" horiz-adv-x="1307" 
d="M115 405h221.002c14.667 -73.333 53.5 -131.833 116.5 -175.5s139.833 -65.5 230.5 -65.5c93.333 0 168.666 20.833 225.999 62.5s86 96.167 86 163.5c0 52 -19 95.667 -57 131s-101 67.333 -189 96l-142 48c-101.333 34 -179.833 84.167 -235.5 150.5
s-83.5 143.166 -83.5 230.499c0 124 50.333 227 151 309s227 123 379 123c144.667 0 265.5 -40.167 362.5 -120.5s150.167 -184.166 159.5 -311.499h-219c-15.333 72 -50.833 129 -106.5 171s-124.834 63 -207.501 63s-151.167 -19.833 -205.5 -59.5
s-81.5 -89.834 -81.5 -150.501c0 -46 17.667 -86.333 53 -121s90.333 -64.667 165 -90l137 -47c120 -41.333 208.667 -93.666 266 -156.999s86 -141.333 86 -234c0 -136 -52 -246 -156 -330s-239.333 -126 -406 -126c-154 0 -280.333 39.167 -379 117.5
s-155.667 185.833 -171 322.5zM1056 1896l185 -314h-208l-100 188h-17l-179 -188h-231l316 314h234z" />
    <glyph glyph-name="scircumflex" unicode="&#x15d;" horiz-adv-x="1087" 
d="M866 1584l207 -346h-210l-120 219h-17l-213 -219h-233l352 346h234zM92 301h215.002c12 -44 38.833 -79.667 80.5 -107s93.167 -41 154.5 -41c67.333 0 122 13.5 164 40.5s63 62.167 63 105.5c0 29.333 -9.66699 54.5 -29 75.5s-52 38.833 -98 53.5l-167 56
c-86 28.667 -149.833 66.167 -191.5 112.5s-62.5 105.166 -62.5 176.499c0 100 39.667 181.167 119 243.5s180.666 93.5 303.999 93.5c120 0 217.667 -28 293 -84s119 -131 131 -225h-206c-9.33301 41.333 -33.666 74 -72.999 98s-88.333 36 -147 36
c-60.667 0 -110.667 -13.167 -150 -39.5s-59 -59.833 -59 -100.5c0 -56.667 47 -100 141 -130l157 -54c90 -29.333 155.333 -67.166 196 -113.499s61 -105.5 61 -177.5c0 -100 -42.167 -181.833 -126.5 -245.5s-192.5 -95.5 -324.5 -95.5
c-126.667 0 -230.834 29.667 -312.501 89s-125.834 137 -132.501 233z" />
    <glyph glyph-name="Scedilla" unicode="&#x15e;" horiz-adv-x="1307" 
d="M738 859l137.001 -47.002c120 -41.333 208.667 -93.666 266 -156.999s86 -141.333 86 -234c0 -125.333 -44.833 -229.166 -134.5 -311.499s-208.5 -129.5 -356.5 -141.5l-63 -99c114.667 -15.333 172 -68.666 172 -159.999c0 -60 -23.5 -108.667 -70.5 -146
s-107.833 -56 -182.5 -56c-66.667 0 -126.334 12 -179.001 36l25 119c42 -18 90.333 -27 145 -27c30.667 0 54.834 5.66699 72.501 17s26.5 27 26.5 47c0 44.667 -42.333 67 -127 67h-54l14 102l65 101c-131.333 14 -238.166 59.333 -320.499 136s-130.5 176.667 -144.5 300
h221c14.667 -73.333 53.5 -131.833 116.5 -175.5s139.833 -65.5 230.5 -65.5c93.333 0 168.666 20.833 225.999 62.5s86 96.167 86 163.5c0 52 -19 95.667 -57 131s-101 67.333 -189 96l-142 48c-101.333 34 -179.833 84.167 -235.5 150.5s-83.5 143.166 -83.5 230.499
c0 124 50.333 227 151 309s227 123 379 123c144.667 0 265.5 -40.167 362.5 -120.5s150.167 -184.166 159.5 -311.499h-219c-15.333 72 -50.833 129 -106.5 171s-124.834 63 -207.501 63s-151.167 -19.833 -205.5 -59.5s-81.5 -89.834 -81.5 -150.501
c0 -46 17.667 -86.333 53 -121s90.333 -64.667 165 -90z" />
    <glyph glyph-name="scedilla" unicode="&#x15f;" horiz-adv-x="1087" 
d="M574 665l156.999 -54.001c90 -29.333 155.333 -67.166 196 -113.499s61 -105.5 61 -177.5c0 -92.667 -36.667 -170 -110 -232s-169 -97.667 -287 -107l-71 -112c114.667 -15.333 172 -68.666 172 -159.999c0 -60 -23.5 -108.667 -70.5 -146s-107.833 -56 -182.5 -56
c-66.667 0 -126.334 12 -179.001 36l25 119c42 -18 90.333 -27 145 -27c30.667 0 54.834 5.66699 72.501 17s26.5 27 26.5 47c0 44.667 -42.333 67 -127 67h-54l14 102l76 118c-100.667 14.667 -182.167 50.167 -244.5 106.5s-96.166 125.833 -101.499 208.5h215
c12 -44 38.833 -79.667 80.5 -107s93.167 -41 154.5 -41c67.333 0 122 13.5 164 40.5s63 62.167 63 105.5c0 29.333 -9.66699 54.5 -29 75.5s-52 38.833 -98 53.5l-167 56c-86 28.667 -149.833 66.167 -191.5 112.5s-62.5 105.166 -62.5 176.499
c0 100 39.667 181.167 119 243.5s180.666 93.5 303.999 93.5c120 0 217.667 -28 293 -84s119 -131 131 -225h-206c-9.33301 41.333 -33.666 74 -72.999 98s-88.333 36 -147 36c-60.667 0 -110.667 -13.167 -150 -39.5s-59 -59.833 -59 -100.5c0 -56.667 47 -100 141 -130z
" />
    <glyph glyph-name="Scaron" unicode="&#x160;" horiz-adv-x="1307" 
d="M115 405h221.002c14.667 -73.333 53.5 -131.833 116.5 -175.5s139.833 -65.5 230.5 -65.5c93.333 0 168.666 20.833 225.999 62.5s86 96.167 86 163.5c0 52 -19 95.667 -57 131s-101 67.333 -189 96l-142 48c-101.333 34 -179.833 84.167 -235.5 150.5
s-83.5 143.166 -83.5 230.499c0 124 50.333 227 151 309s227 123 379 123c144.667 0 265.5 -40.167 362.5 -120.5s150.167 -184.166 159.5 -311.499h-219c-15.333 72 -50.833 129 -106.5 171s-124.834 63 -207.501 63s-151.167 -19.833 -205.5 -59.5
s-81.5 -89.834 -81.5 -150.501c0 -46 17.667 -86.333 53 -121s90.333 -64.667 165 -90l137 -47c120 -41.333 208.667 -93.666 266 -156.999s86 -141.333 86 -234c0 -136 -52 -246 -156 -330s-239.333 -126 -406 -126c-154 0 -280.333 39.167 -379 117.5
s-155.667 185.833 -171 322.5zM779.002 1582l-185 314h208l101 -188h16l179 188h232l-317 -314h-234z" />
    <glyph glyph-name="scaron" unicode="&#x161;" horiz-adv-x="1087" 
d="M819 1238h-234l-206 346h208l120 -219h16l214 219h235zM92 301h215.002c12 -44 38.833 -79.667 80.5 -107s93.167 -41 154.5 -41c67.333 0 122 13.5 164 40.5s63 62.167 63 105.5c0 29.333 -9.66699 54.5 -29 75.5s-52 38.833 -98 53.5l-167 56
c-86 28.667 -149.833 66.167 -191.5 112.5s-62.5 105.166 -62.5 176.499c0 100 39.667 181.167 119 243.5s180.666 93.5 303.999 93.5c120 0 217.667 -28 293 -84s119 -131 131 -225h-206c-9.33301 41.333 -33.666 74 -72.999 98s-88.333 36 -147 36
c-60.667 0 -110.667 -13.167 -150 -39.5s-59 -59.833 -59 -100.5c0 -56.667 47 -100 141 -130l157 -54c90 -29.333 155.333 -67.166 196 -113.499s61 -105.5 61 -177.5c0 -100 -42.167 -181.833 -126.5 -245.5s-192.5 -95.5 -324.5 -95.5
c-126.667 0 -230.834 29.667 -312.501 89s-125.834 137 -132.501 233z" />
    <glyph glyph-name="Tcedilla" unicode="&#x162;" horiz-adv-x="1318" 
d="M332 1443l1131 -0.000976562l-41 -204h-452l-265 -1239h-36l-83 -131c114.667 -15.333 172 -68.666 172 -159.999c0 -60 -23.5 -108.667 -70.5 -146s-107.833 -56 -182.5 -56c-66.667 0 -126.334 12 -179.001 36l25 119c42 -18 90.333 -27 145 -27
c30.667 0 54.834 5.66699 72.501 17s26.5 27 26.5 47c0 44.667 -42.333 67 -127 67h-54l14 102l85 132h-36l266 1239h-452z" />
    <glyph glyph-name="tcedilla" unicode="&#x163;" horiz-adv-x="781" 
d="M576 899l-116 -535c-7.33301 -32.667 -11 -60 -11 -82c0 -72 47.333 -108 142 -108c22 0 43 1 63 3l-37 -179c-35.333 -5.33301 -69.666 -8 -102.999 -8c-12.667 0 -30.334 0.666992 -53.001 2l-79 -123c114.667 -15.333 172 -68.666 172 -159.999
c0 -60 -23.5 -108.667 -70.5 -146s-107.833 -56 -182.5 -56c-66.667 0 -126.334 12 -179.001 36l25 119c42 -18 90.333 -27 145 -27c30.667 0 54.834 5.66699 72.501 17s26.5 27 26.5 47c0 44.667 -42.333 67 -127 67h-54l14 102l104 161c-72 37.333 -108 99.333 -108 186
c0 27.333 3.66699 58.666 11 93.999l128 590h-179l37 181h179l56 269h217l-57 -269h244l-36 -181h-244z" />
    <glyph glyph-name="Tcaron" unicode="&#x164;" horiz-adv-x="1318" 
d="M826 1582l-185 314h208l101 -188h16l179 188h232l-317 -314h-234zM705 0h-228l266 1239h-452l41 204h1131l-41 -204h-452z" />
    <glyph glyph-name="tcaron" unicode="&#x165;" horiz-adv-x="781" 
d="M938 1232h-149l105 495h199zM514 -10c-92 0 -164.001 19.1689 -216.001 57.502s-78 94.166 -78 167.499c0 27.333 3.66699 58.666 11 93.999l128 590h-179l37 181h179l56 269h217l-57 -269h244l-36 -181h-244l-116 -535c-7.33301 -32.667 -11 -60 -11 -82
c0 -72 47.333 -108 142 -108c22 0 43 1 63 3l-37 -179c-35.333 -5.33301 -69.666 -8 -102.999 -8z" />
    <glyph glyph-name="Tbar" unicode="&#x166;" horiz-adv-x="1317" 
d="M1422 1239h-452l-95 -443h297l-35 -175h-299l-133 -621h-228l133 621h-291l35 175h294l95 443h-452l41 204h1131z" />
    <glyph glyph-name="tbar" unicode="&#x167;" horiz-adv-x="776" 
d="M820 899l-244.001 0.00195312l-55 -254h231l-32 -151h-232l-28 -130c-7.33301 -32.667 -11 -60 -11 -82c0 -72 47.333 -108 142 -108c22 0 43 1 63 3l-37 -179c-35.333 -5.33301 -69.666 -8 -102.999 -8c-92 0 -164 19.167 -216 57.5s-78 94.166 -78 167.499
c0 27.333 3.66699 58.666 11 93.999l40 185h-178l32 151h179l55 254h-179l37 181h179l56 269h217l-57 -269h244z" />
    <glyph glyph-name="Utilde" unicode="&#x168;" horiz-adv-x="1538" 
d="M750 -35c-163.333 0 -291.334 42.834 -384.001 128.501s-139.667 195.5 -141 329.5c-0.666992 38.667 3.66602 81 12.999 127l187 893h228l-186 -882c-8.66699 -43.333 -12.667 -83.333 -12 -120c2.66699 -82.667 31.334 -147.5 86.001 -194.5
s133.334 -70.5 236.001 -70.5c100 0 185 28.667 255 86s116.333 137 139 239l201 942h227l-210 -992c-33.333 -154.667 -104.333 -274.334 -213 -359.001s-250.667 -127 -426 -127zM1225 1576c-30.667 0 -59.5 5.33203 -86.5 15.999s-49.667 23.667 -68 39
s-35.5 30.5 -51.5 45.5s-32.333 27.833 -49 38.5s-33 16 -49 16c-57.333 0 -93.333 -37.333 -108 -112h-156c12.667 82 43.167 146.5 91.5 193.5s105.5 70.5 171.5 70.5c30.667 0 59.167 -5.33301 85.5 -16s48.833 -23.5 67.5 -38.5s36 -30.167 52 -45.5
s32.333 -28.333 49 -39s33 -16 49 -16c57.333 0 93.333 37.333 108 112h156c-12 -81.333 -42.167 -145.666 -90.5 -192.999s-105.5 -71 -171.5 -71z" />
    <glyph glyph-name="utilde" unicode="&#x169;" horiz-adv-x="1247" 
d="M1260 1089l-229.998 -1089h-208l34 155h-17c-32 -53.333 -77.833 -96 -137.5 -128s-128.167 -48 -205.5 -48c-98.667 0 -179.334 29.5 -242.001 88.5s-94 135.167 -94 228.5c0 42 5 88.667 15 140l136 653h218l-131 -618c-8.66699 -42 -13 -77.333 -13 -106
c0 -62.667 17.667 -109.834 53 -141.501s86.666 -47.5 153.999 -47.5c78 0 145.5 24.667 202.5 74s94.167 113.666 111.5 192.999l138 646h216zM1009 1230c-32 0 -61.335 6 -88.002 18s-48.667 26.667 -66 44s-33.666 34.5 -48.999 51.5s-31.166 31.5 -47.499 43.5
s-32.833 18 -49.5 18c-55.333 0 -91 -44 -107 -132h-157c10 88.667 39.333 158.167 88 208.5s107.667 75.5 177 75.5c38.667 0 73.834 -9.16699 105.501 -27.5s56.167 -38.333 73.5 -60s36.666 -41.667 57.999 -60s42.333 -27.5 63 -27.5c56 0 92 44 108 132h157
c-10.667 -88 -40.167 -157.333 -88.5 -208s-107.5 -76 -177.5 -76z" />
    <glyph glyph-name="Umacron" unicode="&#x16a;" horiz-adv-x="1538" 
d="M750 -35c-163.333 0 -291.334 42.834 -384.001 128.501s-139.667 195.5 -141 329.5c-0.666992 38.667 3.66602 81 12.999 127l187 893h228l-186 -882c-8.66699 -43.333 -12.667 -83.333 -12 -120c2.66699 -82.667 31.334 -147.5 86.001 -194.5
s133.334 -70.5 236.001 -70.5c100 0 185 28.667 255 86s116.333 137 139 239l201 942h227l-210 -992c-33.333 -154.667 -104.333 -274.334 -213 -359.001s-250.667 -127 -426 -127zM1398 1625h-699l32 156h699z" />
    <glyph glyph-name="umacron" unicode="&#x16b;" horiz-adv-x="1247" 
d="M1260 1089l-229.998 -1089h-208l34 155h-17c-32 -53.333 -77.833 -96 -137.5 -128s-128.167 -48 -205.5 -48c-98.667 0 -179.334 29.5 -242.001 88.5s-94 135.167 -94 228.5c0 42 5 88.667 15 140l136 653h218l-131 -618c-8.66699 -42 -13 -77.333 -13 -106
c0 -62.667 17.667 -109.834 53 -141.501s86.666 -47.5 153.999 -47.5c78 0 145.5 24.667 202.5 74s94.167 113.666 111.5 192.999l138 646h216zM1172 1299h-696l32 155h696z" />
    <glyph glyph-name="Ubreve" unicode="&#x16c;" horiz-adv-x="1538" 
d="M750 -35c-163.333 0 -291.334 42.834 -384.001 128.501s-139.667 195.5 -141 329.5c-0.666992 38.667 3.66602 81 12.999 127l187 893h228l-186 -882c-8.66699 -43.333 -12.667 -83.333 -12 -120c2.66699 -82.667 31.334 -147.5 86.001 -194.5
s133.334 -70.5 236.001 -70.5c100 0 185 28.667 255 86s116.333 137 139 239l201 942h227l-210 -992c-33.333 -154.667 -104.333 -274.334 -213 -359.001s-250.667 -127 -426 -127zM697.999 1872l0.00390625 19h170v-16c0 -43.333 18.167 -79.333 54.5 -108
s81.5 -43 135.5 -43c55.333 0 101.666 14.667 138.999 44s62.666 70.333 75.999 123h172c-16.667 -96 -60.334 -172.333 -131.001 -229s-157.334 -85 -260.001 -85c-105.333 0 -191 27.5 -257 82.5s-99 125.833 -99 212.5z" />
    <glyph glyph-name="ubreve" unicode="&#x16d;" horiz-adv-x="1247" 
d="M1260 1089l-229.998 -1089h-208l34 155h-17c-32 -53.333 -77.833 -96 -137.5 -128s-128.167 -48 -205.5 -48c-98.667 0 -179.334 29.5 -242.001 88.5s-94 135.167 -94 228.5c0 42 5 88.667 15 140l136 653h218l-131 -618c-8.66699 -42 -13 -77.333 -13 -106
c0 -62.667 17.667 -109.834 53 -141.501s86.666 -47.5 153.999 -47.5c78 0 145.5 24.667 202.5 74s94.167 113.666 111.5 192.999l138 646h216zM475.002 1576h171c-1.33301 -10.667 -2 -20.667 -2 -30c0 -48.667 17.5 -87.667 52.5 -117s81.5 -44 139.5 -44
c64.667 0 116.667 16.333 156 49s63.666 80 72.999 142h174c-10 -102.667 -51.667 -184.667 -125 -246s-168.333 -92 -285 -92c-109.333 0 -196.166 27.667 -260.499 83s-96.5 125.666 -96.5 210.999c0 14.667 1 29.334 3 44.001z" />
    <glyph glyph-name="Uring" unicode="&#x16e;" horiz-adv-x="1538" 
d="M1087 1574c-66 0 -122.002 22.5 -168.002 67.5s-69 100.5 -69 166.5s22.833 121.333 68.5 166s101.834 67 168.501 67s122.834 -22.333 168.501 -67s68.5 -100 68.5 -166s-23 -121.5 -69 -166.5s-102 -67.5 -168 -67.5zM1087 1693c33.333 0 61 10.833 83 32.5
s33 49.167 33 82.5c0 32.667 -11 59.834 -33 81.501s-49.667 32.5 -83 32.5s-61 -10.833 -83 -32.5s-33 -48.834 -33 -81.501c0 -33.333 11 -60.833 33 -82.5s49.667 -32.5 83 -32.5zM749.998 -35c-163.333 0 -291.334 42.834 -384.001 128.501s-139.667 195.5 -141 329.5
c-0.666992 38.667 3.66602 81 12.999 127l187 893h228l-186 -882c-8.66699 -43.333 -12.667 -83.333 -12 -120c2.66699 -82.667 31.334 -147.5 86.001 -194.5s133.334 -70.5 236.001 -70.5c100 0 185 28.667 255 86s116.333 137 139 239l201 942h227l-210 -992
c-33.333 -154.667 -104.333 -274.334 -213 -359.001s-250.667 -127 -426 -127z" />
    <glyph glyph-name="uring" unicode="&#x16f;" horiz-adv-x="1247" 
d="M1260 1089l-229.998 -1089h-208l34 155h-17c-32 -53.333 -77.833 -96 -137.5 -128s-128.167 -48 -205.5 -48c-98.667 0 -179.334 29.5 -242.001 88.5s-94 135.167 -94 228.5c0 42 5 88.667 15 140l136 653h218l-131 -618c-8.66699 -42 -13 -77.333 -13 -106
c0 -62.667 17.667 -109.834 53 -141.501s86.666 -47.5 153.999 -47.5c78 0 145.5 24.667 202.5 74s94.167 113.666 111.5 192.999l138 646h216zM861.002 1238c-66 0 -122.002 22.5 -168.002 67.5s-69 100.5 -69 166.5s22.833 121.333 68.5 166s101.834 67 168.501 67
s122.834 -22.333 168.501 -67s68.5 -100 68.5 -166s-23 -121.5 -69 -166.5s-102 -67.5 -168 -67.5zM861 1357c33.333 0 61 10.833 83 32.5s33 49.167 33 82.5c0 32.667 -11 59.834 -33 81.501s-49.667 32.5 -83 32.5s-61 -10.833 -83 -32.5s-33 -48.834 -33 -81.501
c0 -33.333 11 -60.833 33 -82.5s49.667 -32.5 83 -32.5z" />
    <glyph glyph-name="Uhungarumlaut" unicode="&#x170;" horiz-adv-x="1538" 
d="M750 -35c-163.333 0 -291.334 42.834 -384.001 128.501s-139.667 195.5 -141 329.5c-0.666992 38.667 3.66602 81 12.999 127l187 893h228l-186 -882c-8.66699 -43.333 -12.667 -83.333 -12 -120c2.66699 -82.667 31.334 -147.5 86.001 -194.5
s133.334 -70.5 236.001 -70.5c100 0 185 28.667 255 86s116.333 137 139 239l201 942h227l-210 -992c-33.333 -154.667 -104.333 -274.334 -213 -359.001s-250.667 -127 -426 -127zM1115 1582l354 306h242l-377 -306h-219zM692.999 1582l354 306h241l-376 -306h-219z" />
    <glyph glyph-name="uhungarumlaut" unicode="&#x171;" horiz-adv-x="1247" 
d="M923 1271l311 344h228l-339 -344h-200zM510 1271l311 344h228l-339 -344h-200zM1260 1089l-229.998 -1089h-208l34 155h-17c-32 -53.333 -77.833 -96 -137.5 -128s-128.167 -48 -205.5 -48c-98.667 0 -179.334 29.5 -242.001 88.5s-94 135.167 -94 228.5
c0 42 5 88.667 15 140l136 653h218l-131 -618c-8.66699 -42 -13 -77.333 -13 -106c0 -62.667 17.667 -109.834 53 -141.501s86.666 -47.5 153.999 -47.5c78 0 145.5 24.667 202.5 74s94.167 113.666 111.5 192.999l138 646h216z" />
    <glyph glyph-name="Uogonek" unicode="&#x172;" horiz-adv-x="1538" 
d="M962 -443c-74.667 0 -132.834 17.665 -174.501 52.998s-62.5 84.333 -62.5 147c0 33.333 9.33301 67.666 28 102.999s44.334 67 77.001 95l2 17c-14 -3.33301 -42 -5 -84 -5c-158 0.666992 -284.667 42.334 -380 125.001s-143 192.667 -143 330
c0 46.667 4.33301 89.334 13 128.001l187 893h228l-186 -882c-8 -36.667 -12 -76.667 -12 -120c0 -84 28.5 -149.167 85.5 -195.5s135.833 -69.5 236.5 -69.5c100 0 185.167 29 255.5 87s116.5 137.333 138.5 238l201 942h227l-210 -992
c-40 -186 -136.333 -321.667 -289 -407c-53.333 -32 -98.5 -70.667 -135.5 -116s-55.5 -88 -55.5 -128c0 -31.333 10.667 -55.166 32 -71.499s52.333 -24.5 93 -24.5c21.333 0 36 1 44 3l-29 -140c-21.333 -6.66699 -50.333 -10 -87 -10z" />
    <glyph glyph-name="uogonek" unicode="&#x173;" horiz-adv-x="1247" 
d="M867 -443c-68 0 -122.5 17.167 -163.5 51.5s-61.5 80.166 -61.5 137.499c0 104.667 65 190.667 195 258v5h-13l32 146h-17c-33.333 -55.333 -80.333 -98.5 -141 -129.5s-128 -46.5 -202 -46.5c-98.667 0 -179.334 29.667 -242.001 89s-94 135.333 -94 228
c0 38.667 5 85.334 15 140.001l136 653h218l-131 -618c-8.66699 -44.667 -13 -80 -13 -106c0 -62 17.5 -109 52.5 -141s86.5 -48 154.5 -48c77.333 0 144.833 24.333 202.5 73s94.834 113.334 111.501 194.001l138 646h216l-225 -1065
c-137.333 -68.667 -206 -144.334 -206 -227.001c0 -28 9.16699 -49.833 27.5 -65.5s43.5 -23.5 75.5 -23.5c34.667 0 58.667 2.33301 72 7l-29 -143c-31.333 -10 -67.333 -15 -108 -15z" />
    <glyph glyph-name="Wcircumflex" unicode="&#x174;" horiz-adv-x="2013" 
d="M1447 1896l185 -314h-208l-100 188h-17l-179 -188h-231l316 314h234zM1157 1059l-527 -1059h-216l-83 1443h214l43 -1105h14l539 1105h192l81 -1105h14l506 1105h231l-689 -1443h-218l-88 1059h-13z" />
    <glyph glyph-name="wcircumflex" unicode="&#x175;" horiz-adv-x="1640" 
d="M1190 1584l207 -346h-210l-120 219h-17l-213 -219h-233l352 346h234zM1740 1089l-531 -1089h-224l-57 797h-17l-391 -797h-221l-68 1089h202l34 -824h16l391 824h214l46 -831h16l374 831h216z" />
    <glyph glyph-name="Ycircumflex" unicode="&#x176;" horiz-adv-x="1383" 
d="M740 0h-227l126 582l-327 861h234l242 -631h17l497 631h251l-693 -881zM1132 1896l185 -314h-208l-100 188h-17l-179 -188h-231l316 314h234z" />
    <glyph glyph-name="ycircumflex" unicode="&#x177;" horiz-adv-x="1146" 
d="M148 -397c-38 0 -79.001 3 -123.001 9l33 185c20.667 -6 52.334 -9 95.001 -9c42 0 79.333 11.833 112 35.5s64.334 63.5 95.001 119.5l33 60l-164 1086h216l105 -842h17l448 842h233l-666 -1173c-64.667 -118 -129.334 -199.667 -194.001 -245s-144.667 -68 -240 -68z
M947.999 1584l207 -346h-210l-120 219h-17l-213 -219h-233l352 346h234z" />
    <glyph glyph-name="Ydieresis" unicode="&#x178;" horiz-adv-x="1383" 
d="M740 0h-227l126 582l-327 861h234l242 -631h17l497 631h251l-693 -881zM775 1577c-37.333 0 -68.833 12.833 -94.5 38.5s-38.5 57.5 -38.5 95.5s12.833 70 38.5 96s57.167 39 94.5 39c38 0 69.833 -13 95.5 -39s38.5 -58 38.5 -96s-12.833 -69.833 -38.5 -95.5
s-57.5 -38.5 -95.5 -38.5zM1202 1577c-37.333 0 -68.833 12.833 -94.5 38.5s-38.5 57.5 -38.5 95.5s12.833 70 38.5 96s57.167 39 94.5 39c38 0 69.833 -13 95.5 -39s38.5 -58 38.5 -96s-12.833 -69.833 -38.5 -95.5s-57.5 -38.5 -95.5 -38.5z" />
    <glyph glyph-name="Zacute" unicode="&#x179;" horiz-adv-x="1365" 
d="M836 1582l362 306h258l-390 -306h-230zM76 0l32 161l1000 1061l3 17h-746l41 204h1041l-32 -161l-998 -1061l-2 -17h785l-41 -204h-1083z" />
    <glyph glyph-name="zacute" unicode="&#x17a;" horiz-adv-x="1124" 
d="M645 1271l324 344h252l-354 -344h-222zM66 0l30 146l737 744l2 17h-571l38 182h852l-34 -157l-719 -733l-3 -17h567l-37 -182h-862z" />
    <glyph glyph-name="Zdotaccent" unicode="&#x17b;" horiz-adv-x="1365" 
d="M976 1577c-38 0 -69.833 13.167 -95.5 39.5s-38.5 58.833 -38.5 97.5s12.833 71.167 38.5 97.5s57.5 39.5 95.5 39.5s69.833 -13.167 95.5 -39.5s38.5 -58.833 38.5 -97.5s-12.833 -71.167 -38.5 -97.5s-57.5 -39.5 -95.5 -39.5zM76 0l32 161l1000 1061l3 17h-746l41 204
h1041l-32 -161l-998 -1061l-2 -17h785l-41 -204h-1083z" />
    <glyph glyph-name="zdotaccent" unicode="&#x17c;" horiz-adv-x="1124" 
d="M799 1281c-38.667 0 -71.667 14 -99 42s-41 62 -41 102s13.667 73.833 41 101.5s60.333 41.5 99 41.5c39.333 0 72.5 -13.833 99.5 -41.5s40.5 -61.5 40.5 -101.5s-13.667 -74 -41 -102s-60.333 -42 -99 -42zM66 0l30 146l737 744l2 17h-571l38 182h852l-34 -157
l-719 -733l-3 -17h567l-37 -182h-862z" />
    <glyph glyph-name="Zcaron" unicode="&#x17d;" horiz-adv-x="1365" 
d="M76 0l32 161l1000 1061l3 17h-746l41 204h1041l-32 -161l-998 -1061l-2 -17h785l-41 -204h-1083zM841 1582l-185 314h208l101 -188h16l179 188h232l-317 -314h-234z" />
    <glyph glyph-name="zcaron" unicode="&#x17e;" horiz-adv-x="1124" 
d="M890 1238h-234l-206 346h208l120 -219h16l214 219h235zM66 0l30 146l737 744l2 17h-571l38 182h852l-34 -157l-719 -733l-3 -17h567l-37 -182h-862z" />
    <glyph glyph-name="florin" unicode="&#x192;" horiz-adv-x="1360" 
d="M255 -20c-60 0 -133.336 13.667 -220.003 41l42 194c60.667 -26 125.334 -39 194.001 -39c64.667 0 116.834 14.833 156.501 44.5s71.834 78.5 96.501 146.5l125 334h-332l36 176h357l77 210c90 253.333 257.333 380 502 380c79.333 0 150 -11.667 212 -35l-41 -187
c-54 19.333 -115.333 29 -184 29c-72 0 -129.333 -16.833 -172 -50.5s-77 -86.167 -103 -157.5l-70 -189h358l-36 -176h-384l-129 -348c-46.667 -130.667 -108.5 -225.5 -185.5 -284.5s-176.833 -88.5 -299.5 -88.5z" />
    <glyph glyph-name="Ohorn" unicode="&#x1a0;" horiz-adv-x="1675" 
d="M793 -35c-174 0 -317.007 57.334 -429.007 172.001s-168 261.334 -168 440.001c0 127.333 20 246.833 60 358.5s94.667 207.167 164 286.5s152.5 142 249.5 188s200.833 69 311.5 69c58.667 0 113.334 -6.5 164.001 -19.5s92 -28.833 124 -47.5s60.5 -37.167 85.5 -55.5
l65.5 -47c18.667 -13 34.334 -19.5 47.001 -19.5c44.667 0 79.334 10.333 104.001 31s42.334 55.667 53.001 105l37 173h184l-49 -231c-16 -74.667 -45.667 -130.834 -89 -168.501s-94.666 -56.5 -153.999 -56.5c-9.33301 0 -22.666 2.33301 -39.999 7l-2 -16
c43.333 -79.333 65 -168 65 -266c0 -171.333 -33.667 -325.833 -101 -463.5s-160.666 -245.334 -279.999 -323.001s-253.333 -116.5 -402 -116.5zM1343.99 852.001c0 124 -34.5 224.165 -103.5 300.498s-159.833 114.5 -272.5 114.5c-100 0 -191.333 -29.667 -274 -89
s-147.5 -140.666 -194.5 -243.999s-70.5 -217.666 -70.5 -342.999c0 -124.667 34.833 -225 104.5 -301s161.167 -114 274.5 -114c100.667 0 192 29.333 274 88s146.167 139.667 192.5 243s69.5 218.333 69.5 345z" />
    <glyph glyph-name="ohorn" unicode="&#x1a1;" horiz-adv-x="1398" 
d="M372 456c0 -84.667 22.6689 -153.333 68.002 -206s107.333 -79 186 -79c90.667 0 170 43 238 129s102 192.333 102 319c0 94 -21.833 167.5 -65.5 220.5s-103.834 79.5 -180.501 79.5c-104.667 0 -188.834 -43.833 -252.501 -131.5s-95.5 -198.167 -95.5 -331.5z
M1194 649.001c0 -89.333 -13.667 -174.5 -41 -255.5s-65.833 -152.167 -115.5 -213.5s-111.834 -110.166 -186.501 -146.499s-156.334 -54.5 -245.001 -54.5c-137.333 0 -248.333 42.667 -333 128s-127 196.666 -127 333.999c0 91.333 13.833 177.666 41.5 258.999
s66.5 152.333 116.5 213s112.333 108.667 187 144s156.334 53 245.001 53c55.333 0 106 -7.83301 152 -23.5s81.167 -32.667 105.5 -51s48.833 -35.333 73.5 -51s46.334 -23.5 65.001 -23.5c77.333 0 126.333 46.333 147 139l36 173h184l-49 -234
c-16 -74 -45.5 -129.667 -88.5 -167s-94.5 -56 -154.5 -56c-10 0 -22.667 2.33301 -38 7l-2 -14c18 -51.333 27 -104.666 27 -159.999z" />
    <glyph glyph-name="Uhorn" unicode="&#x1af;" horiz-adv-x="1785" 
d="M1819 1601h183.998l-48 -224c-18 -85.333 -53 -149.666 -105 -192.999s-116 -65 -192 -65c-50.667 0 -91 9.66699 -121 29l-148 -697c-33.333 -154.667 -104.333 -274.334 -213 -359.001s-250.667 -127 -426 -127c-163.333 0 -291.333 42.833 -384 128.5
s-139.667 195.5 -141 329.5c-0.666992 38.667 3.66602 81 12.999 127l187 893h228l-186 -882c-8.66699 -43.333 -12.667 -83.333 -12 -120c2.66699 -82.667 31.334 -147.5 86.001 -194.5s133.334 -70.5 236.001 -70.5c100 0 185 28.667 255 86s116.333 137 139 239l201 942
h227l-27 -129c20 -14.667 45.333 -22 76 -22c37.333 0 66.333 10.167 87 30.5s36.334 55.5 47.001 105.5z" />
    <glyph glyph-name="uhorn" unicode="&#x1b0;" horiz-adv-x="1500" 
d="M1471 1295l184.001 0.000976562l-48 -224c-18 -85.333 -53 -149.666 -105 -192.999s-116 -65 -192 -65c-40.667 0 -75.334 6.66699 -104.001 20l-176 -833h-208l34 155h-17c-32 -53.333 -77.833 -96 -137.5 -128s-128.167 -48 -205.5 -48
c-98.667 0 -179.334 29.5 -242.001 88.5s-94 135.167 -94 228.5c0 42 5 88.667 15 140l136 653h218l-131 -618c-8.66699 -42 -13 -77.333 -13 -106c0 -62.667 17.667 -109.834 53 -141.501s86.666 -47.5 153.999 -47.5c78 0 145.5 24.667 202.5 74
s94.167 113.666 111.5 192.999l138 646h216l-19 -91c16.667 -8 36.334 -12 59.001 -12c37.333 0 66.333 10.167 87 30.5s36.334 55.5 47.001 105.5z" />
    <glyph glyph-name="u01C4" unicode="&#x1c4;" horiz-adv-x="2874" 
d="M422 1443l442 -0.000976562c194 0 345 -54.167 453 -162.5s162 -258.166 162 -449.499c0 -156.667 -32.5 -298.5 -97.5 -425.5s-154.667 -226.333 -269 -298s-241.833 -107.5 -382.5 -107.5h-614zM609 1241l-226 -1039h342c150.667 0 275.5 57.333 374.5 172
s148.5 260.334 148.5 437.001c0 134.667 -36.667 240 -110 316s-176 114 -308 114h-221zM1584 -0.00195312l32 161l1000 1061l3 17h-746l41 204h1041l-32 -161l-998 -1061l-2 -17h785l-41 -204h-1083zM2349 1582l-185 314h208l101 -188h16l179 188h232l-317 -314h-234z" />
    <glyph glyph-name="u01C5" unicode="&#x1c5;" horiz-adv-x="2632" 
d="M422 1443l442 -0.000976562c194 0 345 -54.167 453 -162.5s162 -258.166 162 -449.499c0 -156.667 -32.5 -298.5 -97.5 -425.5s-154.667 -226.333 -269 -298s-241.833 -107.5 -382.5 -107.5h-614zM609 1241l-226 -1039h342c150.667 0 275.5 57.333 374.5 172
s148.5 260.334 148.5 437.001c0 134.667 -36.667 240 -110 316s-176 114 -308 114h-221zM2398 1238h-234l-206 346h208l120 -219h16l214 219h235zM1574 -0.00195312l30 146l737 744l2 17h-571l38 182h852l-34 -157l-719 -733l-3 -17h567l-37 -182h-862z" />
    <glyph glyph-name="u01C6" unicode="&#x1c6;" horiz-adv-x="2410" 
d="M533 -18c-111.333 0 -204 39.501 -278 118.501s-111 184.167 -111 315.5c0 130.667 24.667 249 74 355s116.5 188.5 201.5 247.5s178.833 88.5 281.5 88.5c78.667 0 147 -19.667 205 -59s96.333 -90.333 115 -153h17l131 619h218l-322 -1514h-208l32 150h-17
c-39.333 -52.667 -88.5 -93.834 -147.5 -123.501s-122.833 -44.5 -191.5 -44.5zM615 174.001c102.667 0 189.167 45.332 259.5 135.999s105.5 201.334 105.5 332.001c0 84 -22.667 150 -68 198s-106 72 -182 72c-102.667 0 -188.667 -43.5 -258 -130.5
s-104 -196.833 -104 -329.5c0 -83.333 22.833 -150.5 68.5 -201.5s105.167 -76.5 178.5 -76.5zM2176 1238h-234l-206 346h208l120 -219h16l214 219h235zM1352 0l30 146l737 744l2 17h-571l38 182h852l-34 -157l-719 -733l-3 -17h567l-37 -182h-862z" />
    <glyph glyph-name="u01C7" unicode="&#x1c7;" horiz-adv-x="2331" 
d="M1275 370h222v-4c1.33301 -57.333 20.5 -102.833 57.5 -136.5s86.833 -50.5 149.5 -50.5c129.333 0 211.333 81 246 243l218 1021h223l-225 -1063c-28 -134 -82.833 -236.667 -164.5 -308s-187.167 -107 -316.5 -107c-124.667 0 -225.667 37 -303 111
s-113 167.667 -107 281v13zM1058 206l-42 -206h-901l307 1443h227l-266 -1237h675z" />
    <glyph glyph-name="u01C8" unicode="&#x1c8;" horiz-adv-x="1729" 
d="M1730 1089l-251 -1173c-42.667 -202 -165 -303 -367 -303c-38 0 -71 2.33301 -99 7l38 184c26.667 -2.66699 45.667 -4 57 -4c47.333 0 83.5 11 108.5 33s42.833 58.667 53.5 110l245 1146h215zM1691 1280c-40 0 -73.167 12.5 -99.5 37.5s-39.5 55.833 -39.5 92.5
c0 37.333 13.167 68.833 39.5 94.5s59.5 38.5 99.5 38.5s73.167 -12.5 99.5 -37.5s39.5 -55.833 39.5 -92.5c0 -37.333 -13.167 -68.833 -39.5 -94.5s-59.5 -38.5 -99.5 -38.5zM1058 206l-42 -206h-901l307 1443h227l-266 -1237h675z" />
    <glyph glyph-name="u01C9" unicode="&#x1c9;" horiz-adv-x="1090" 
d="M1091 1089l-251 -1173c-42.667 -202 -165 -303 -367 -303c-38 0 -71 2.33301 -99 7l38 184c26.667 -2.66699 45.667 -4 57 -4c47.333 0 83.5 11 108.5 33s42.833 58.667 53.5 110l245 1146h215zM1052 1280c-40 0 -73.167 12.5 -99.5 37.5s-39.5 55.833 -39.5 92.5
c0 37.333 13.167 68.833 39.5 94.5s59.5 38.5 99.5 38.5s73.167 -12.5 99.5 -37.5s39.5 -55.833 39.5 -92.5c0 -37.333 -13.167 -68.833 -39.5 -94.5s-59.5 -38.5 -99.5 -38.5zM97 0l322 1514h218l-321 -1514h-219z" />
    <glyph glyph-name="u01CA" unicode="&#x1ca;" horiz-adv-x="2687" 
d="M1631 370h222v-4c1.33301 -57.333 20.5 -102.833 57.5 -136.5s86.833 -50.5 149.5 -50.5c129.333 0 211.333 81 246 243l218 1021h223l-225 -1063c-28 -134 -82.833 -236.667 -164.5 -308s-187.167 -107 -316.5 -107c-124.667 0 -225.667 37 -303 111
s-113 167.667 -107 281v13zM337 0h-222l307 1443h196l514 -1055h17l229 1055h223l-307 -1443h-198l-514 1051h-17z" />
    <glyph glyph-name="u01CB" unicode="&#x1cb;" horiz-adv-x="2085" 
d="M2086 1089l-251 -1173c-42.667 -202 -165 -303 -367 -303c-38 0 -71 2.33301 -99 7l38 184c26.667 -2.66699 45.667 -4 57 -4c47.333 0 83.5 11 108.5 33s42.833 58.667 53.5 110l245 1146h215zM2047 1280c-40 0 -73.167 12.5 -99.5 37.5s-39.5 55.833 -39.5 92.5
c0 37.333 13.167 68.833 39.5 94.5s59.5 38.5 99.5 38.5s73.167 -12.5 99.5 -37.5s39.5 -55.833 39.5 -92.5c0 -37.333 -13.167 -68.833 -39.5 -94.5s-59.5 -38.5 -99.5 -38.5zM337 0h-222l307 1443h196l514 -1055h17l229 1055h223l-307 -1443h-198l-514 1051h-17z" />
    <glyph glyph-name="u01CC" unicode="&#x1cc;" horiz-adv-x="1798" 
d="M1799 1089l-251 -1173c-42.667 -202 -165 -303 -367 -303c-38 0 -71 2.33301 -99 7l38 184c26.667 -2.66699 45.667 -4 57 -4c47.333 0 83.5 11 108.5 33s42.833 58.667 53.5 110l245 1146h215zM1760 1280c-40 0 -73.167 12.5 -99.5 37.5s-39.5 55.833 -39.5 92.5
c0 37.333 13.167 68.833 39.5 94.5s59.5 38.5 99.5 38.5s73.167 -12.5 99.5 -37.5s39.5 -55.833 39.5 -92.5c0 -37.333 -13.167 -68.833 -39.5 -94.5s-59.5 -38.5 -99.5 -38.5zM88 0l231.002 1093h209l-35 -167h17c36.667 55.333 83.667 99.833 141 133.5
s123.666 50.5 198.999 50.5c101.333 0 183.666 -31.167 246.999 -93.5s95 -138.5 95 -228.5c0 -40 -5 -82.333 -15 -127l-139 -661h-217l132 623c8 36 12 68 12 96c0 58.667 -19.667 106.167 -59 142.5s-92 54.5 -158 54.5c-75.333 0 -140.5 -24 -195.5 -72
s-90.833 -110 -107.5 -186l-140 -658h-217z" />
    <glyph glyph-name="Acaron" unicode="&#x1cd;" horiz-adv-x="1423" 
d="M1062 0l-50 383h-554l-215 -383h-237l836 1443h232l212 -1443h-224zM896 1179l-342 -608h440l-82 608h-16zM881 1582l-185 314h208l101 -188h16l179 188h232l-317 -314h-234z" />
    <glyph glyph-name="acaron" unicode="&#x1ce;" horiz-adv-x="1153" 
d="M506 161c73.333 0 138.499 21.167 195.499 63.5s92.833 95.5 107.5 159.5l25 112l-265 -12c-80 -3.33301 -142.5 -20.5 -187.5 -51.5s-67.5 -71.833 -67.5 -122.5c0 -43.333 17.833 -79 53.5 -107s81.834 -42 138.501 -42zM426.999 -18
c-94 0 -172.332 28.501 -234.999 85.501s-94 128.167 -94 213.5c0 108.667 41.167 194.667 123.5 258s199.166 97.666 350.499 102.999l295 12l15 71c4 20.667 6 36 6 46c0 47.333 -19 84.5 -57 111.5s-90.333 40.5 -157 40.5c-55.333 0 -102.166 -10.167 -140.499 -30.5
s-65.5 -49.833 -81.5 -88.5h-215c23.333 94 76 168.5 158 223.5s180.667 82.5 296 82.5c124 0 223.667 -28.5 299 -85.5s113 -132.5 113 -226.5c0 -30.667 -3 -60 -9 -88l-150 -710h-209l30 139h-17c-36 -48.667 -82.333 -87 -139 -115s-117.334 -42 -182.001 -42zM869 1238
h-234l-206 346h208l120 -219h16l214 219h235z" />
    <glyph glyph-name="Icaron" unicode="&#x1cf;" horiz-adv-x="587" 
d="M342 0h-227l307 1443h227zM459 1582l-185 314h208l101 -188h16l179 188h232l-317 -314h-234z" />
    <glyph glyph-name="icaron" unicode="&#x1d0;" horiz-adv-x="546" 
d="M601 1238h-234l-206 346h208l120 -219h16l214 219h235zM100 0l231 1089h215l-231 -1089h-215z" />
    <glyph glyph-name="Ocaron" unicode="&#x1d1;" horiz-adv-x="1593" 
d="M899 1580l-185 314h208l101 -188h16l179 188h232l-317 -314h-234zM793 -35c-115.333 0 -218.832 26.1641 -310.499 78.4971s-162.667 124.333 -213 216s-75.5 194.834 -75.5 309.501c0 173.333 34 329.333 102 468s161.667 246.834 281 324.501s253 116.5 401 116.5
c116 0 219.5 -26 310.5 -78s161.333 -123.833 211 -215.5s74.5 -195.167 74.5 -310.5c0 -130.667 -19.667 -252.5 -59 -365.5s-93.5 -209.167 -162.5 -288.5s-151.833 -141.666 -248.5 -186.999s-200.334 -68 -311.001 -68zM1341 854.997
c0 122.667 -34.668 221.832 -104.001 297.499s-160 113.5 -272 113.5c-100 0 -191.167 -29.667 -273.5 -89s-147 -140.833 -194 -244.5s-70.5 -218.834 -70.5 -345.501c0 -123.333 34.833 -222.666 104.5 -297.999s161.5 -113 275.5 -113
c100.667 0 191.834 29.333 273.501 88s145.5 139.834 191.5 243.501s69 219.5 69 347.5z" />
    <glyph glyph-name="ocaron" unicode="&#x1d2;" horiz-adv-x="1238" 
d="M896 1238h-234l-206 346h208l120 -219h16l214 219h235zM374 456c0 -84.667 22.6689 -153.333 68.002 -206s107.333 -79 186 -79c90.667 0 170 43 238 129s102 192.333 102 319c0 94 -21.833 167.5 -65.5 220.5s-103.834 79.5 -180.501 79.5
c-104.667 0 -188.834 -43.833 -252.501 -131.5s-95.5 -198.167 -95.5 -331.5zM607.002 -20.999c-137.333 0 -248.168 42.6689 -332.501 128.002s-126.5 196.666 -126.5 333.999c0 91.333 13.833 177.666 41.5 258.999s66.5 152.333 116.5 213s112.333 108.667 187 144
s156.334 53 245.001 53c137.333 0 247.833 -42.667 331.5 -128s125.5 -196.333 125.5 -333c0 -120 -23.167 -230.5 -69.5 -331.5s-114.833 -182.667 -205.5 -245s-195 -93.5 -313 -93.5z" />
    <glyph glyph-name="Ucaron" unicode="&#x1d3;" horiz-adv-x="1538" 
d="M933 1582l-185 314h208l101 -188h16l179 188h232l-317 -314h-234zM750 -35c-163.333 0 -291.334 42.834 -384.001 128.501s-139.667 195.5 -141 329.5c-0.666992 38.667 3.66602 81 12.999 127l187 893h228l-186 -882c-8.66699 -43.333 -12.667 -83.333 -12 -120
c2.66699 -82.667 31.334 -147.5 86.001 -194.5s133.334 -70.5 236.001 -70.5c100 0 185 28.667 255 86s116.333 137 139 239l201 942h227l-210 -992c-33.333 -154.667 -104.333 -274.334 -213 -359.001s-250.667 -127 -426 -127z" />
    <glyph glyph-name="ucaron" unicode="&#x1d4;" horiz-adv-x="1247" 
d="M942 1238h-234l-206 346h208l120 -219h16l214 219h235zM1260 1089l-229.998 -1089h-208l34 155h-17c-32 -53.333 -77.833 -96 -137.5 -128s-128.167 -48 -205.5 -48c-98.667 0 -179.334 29.5 -242.001 88.5s-94 135.167 -94 228.5c0 42 5 88.667 15 140l136 653h218
l-131 -618c-8.66699 -42 -13 -77.333 -13 -106c0 -62.667 17.667 -109.834 53 -141.501s86.666 -47.5 153.999 -47.5c78 0 145.5 24.667 202.5 74s94.167 113.666 111.5 192.999l138 646h216z" />
    <glyph glyph-name="Udieresismacron" unicode="&#x1d5;" horiz-adv-x="1538" 
d="M750 -35c-163.333 0 -291.334 42.834 -384.001 128.501s-139.667 195.5 -141 329.5c-0.666992 38.667 3.66602 81 12.999 127l187 893h228l-186 -882c-8.66699 -43.333 -12.667 -83.333 -12 -120c2.66699 -82.667 31.334 -147.5 86.001 -194.5
s133.334 -70.5 236.001 -70.5c100 0 185 28.667 255 86s116.333 137 139 239l201 942h227l-210 -992c-33.333 -154.667 -104.333 -274.334 -213 -359.001s-250.667 -127 -426 -127zM767.999 1960l31 147h700l-31 -147h-700zM854.999 1577c-36.667 0 -67.5 12.5 -92.5 37.5
s-37.5 56.167 -37.5 93.5s12.5 68.666 37.5 93.999s55.833 38 92.5 38s67.5 -12.667 92.5 -38s37.5 -56.666 37.5 -93.999c0 -36.667 -12.5 -67.667 -37.5 -93s-55.833 -38 -92.5 -38zM1282 1577c-36.667 0 -67.5 12.5 -92.5 37.5s-37.5 56.167 -37.5 93.5
s12.5 68.666 37.5 93.999s55.833 38 92.5 38s67.5 -12.667 92.5 -38s37.5 -56.666 37.5 -93.999s-12.5 -68.5 -37.5 -93.5s-55.833 -37.5 -92.5 -37.5z" />
    <glyph glyph-name="udieresismacron" unicode="&#x1d6;" horiz-adv-x="1247" 
d="M1260 1089l-229.998 -1089h-208l34 155h-17c-32 -53.333 -77.833 -96 -137.5 -128s-128.167 -48 -205.5 -48c-98.667 0 -179.334 29.5 -242.001 88.5s-94 135.167 -94 228.5c0 42 5 88.667 15 140l136 653h218l-131 -618c-8.66699 -42 -13 -77.333 -13 -106
c0 -62.667 17.667 -109.834 53 -141.501s86.666 -47.5 153.999 -47.5c78 0 145.5 24.667 202.5 74s94.167 113.666 111.5 192.999l138 646h216zM628.002 1238c-36 0 -66.167 12.5 -90.5 37.5s-36.5 55.5 -36.5 91.5c0 36.667 12.167 67.5 36.5 92.5s54.5 37.5 90.5 37.5
s66.167 -12.5 90.5 -37.5s36.5 -55.833 36.5 -92.5c0 -36 -12.167 -66.5 -36.5 -91.5s-54.5 -37.5 -90.5 -37.5zM1046 1238c-36 0 -66.167 12.5 -90.5 37.5s-36.5 55.5 -36.5 91.5c0 36.667 12.167 67.5 36.5 92.5s54.5 37.5 90.5 37.5s66.167 -12.5 90.5 -37.5
s36.5 -55.833 36.5 -92.5c0 -36 -12.167 -66.5 -36.5 -91.5s-54.5 -37.5 -90.5 -37.5zM1245 1645h-696l32 155h696z" />
    <glyph glyph-name="Udieresisacute" unicode="&#x1d7;" horiz-adv-x="1538" 
d="M969 1901l255 231h250l-306 -231h-199zM853 1577c-37.333 0 -68.833 12.833 -94.5 38.5s-38.5 57.5 -38.5 95.5s12.833 70 38.5 96s57.167 39 94.5 39c38 0 69.833 -13 95.5 -39s38.5 -58 38.5 -96s-12.833 -69.833 -38.5 -95.5s-57.5 -38.5 -95.5 -38.5zM1280 1577
c-37.333 0 -68.833 12.833 -94.5 38.5s-38.5 57.5 -38.5 95.5s12.833 70 38.5 96s57.167 39 94.5 39c38 0 69.833 -13 95.5 -39s38.5 -58 38.5 -96s-12.833 -69.833 -38.5 -95.5s-57.5 -38.5 -95.5 -38.5zM750 -35c-163.333 0 -291.334 42.834 -384.001 128.501
s-139.667 195.5 -141 329.5c-0.666992 38.667 3.66602 81 12.999 127l187 893h228l-186 -882c-8.66699 -43.333 -12.667 -83.333 -12 -120c2.66699 -82.667 31.334 -147.5 86.001 -194.5s133.334 -70.5 236.001 -70.5c100 0 185 28.667 255 86s116.333 137 139 239l201 942
h227l-210 -992c-33.333 -154.667 -104.333 -274.334 -213 -359.001s-250.667 -127 -426 -127z" />
    <glyph glyph-name="udieresisacute" unicode="&#x1d8;" horiz-adv-x="1247" 
d="M747 1611l260 299h228l-293 -299h-195zM625 1241c-37.333 0 -68.833 12.833 -94.5 38.5s-38.5 57.5 -38.5 95.5s12.833 70 38.5 96s57.167 39 94.5 39c38 0 69.833 -13 95.5 -39s38.5 -58 38.5 -96s-12.833 -69.833 -38.5 -95.5s-57.5 -38.5 -95.5 -38.5zM1052 1241
c-37.333 0 -68.833 12.833 -94.5 38.5s-38.5 57.5 -38.5 95.5s12.833 70 38.5 96s57.167 39 94.5 39c38 0 69.833 -13 95.5 -39s38.5 -58 38.5 -96s-12.833 -69.833 -38.5 -95.5s-57.5 -38.5 -95.5 -38.5zM1260 1089l-229.998 -1089h-208l34 155h-17
c-32 -53.333 -77.833 -96 -137.5 -128s-128.167 -48 -205.5 -48c-98.667 0 -179.334 29.5 -242.001 88.5s-94 135.167 -94 228.5c0 42 5 88.667 15 140l136 653h218l-131 -618c-8.66699 -42 -13 -77.333 -13 -106c0 -62.667 17.667 -109.834 53 -141.501
s86.666 -47.5 153.999 -47.5c78 0 145.5 24.667 202.5 74s94.167 113.666 111.5 192.999l138 646h216z" />
    <glyph glyph-name="Udieresiscaron" unicode="&#x1d9;" horiz-adv-x="1538" 
d="M851 1570c-36.667 0 -67.334 12.5 -92.001 37.5s-37 55.5 -37 91.5c0 36.667 12.333 67.334 37 92.001s55.334 37 92.001 37s67.334 -12.333 92.001 -37s37 -55.334 37 -92.001c0 -36 -12.333 -66.5 -37 -91.5s-55.334 -37.5 -92.001 -37.5zM1278 1570
c-36.667 0 -67.334 12.5 -92.001 37.5s-37 55.5 -37 91.5c0 36.667 12.333 67.334 37 92.001s55.334 37 92.001 37s67.334 -12.333 92.001 -37s37 -55.334 37 -92.001c0 -36 -12.333 -66.5 -37 -91.5s-55.334 -37.5 -92.001 -37.5zM996 1883l-234 262h230l125 -150h17
l186 150h253l-343 -262h-234zM750 -35c-163.333 0 -291.334 42.834 -384.001 128.501s-139.667 195.5 -141 329.5c-0.666992 38.667 3.66602 81 12.999 127l187 893h228l-186 -882c-8.66699 -43.333 -12.667 -83.333 -12 -120c2.66699 -82.667 31.334 -147.5 86.001 -194.5
s133.334 -70.5 236.001 -70.5c100 0 185 28.667 255 86s116.333 137 139 239l201 942h227l-210 -992c-33.333 -154.667 -104.333 -274.334 -213 -359.001s-250.667 -127 -426 -127z" />
    <glyph glyph-name="udieresiscaron" unicode="&#x1da;" horiz-adv-x="1247" 
d="M629 1238c-36 0 -66.333 12.5 -91 37.5s-37 55.5 -37 91.5c0 36.667 12.167 67.5 36.5 92.5s54.833 37.5 91.5 37.5c36 0 66.167 -12.5 90.5 -37.5s36.5 -55.833 36.5 -92.5c0 -36 -12.167 -66.5 -36.5 -91.5s-54.5 -37.5 -90.5 -37.5zM1046 1238
c-36 0 -66.167 12.5 -90.5 37.5s-36.5 55.5 -36.5 91.5c0 36.667 12.167 67.5 36.5 92.5s54.5 37.5 90.5 37.5c36.667 0 67.167 -12.5 91.5 -37.5s36.5 -55.833 36.5 -92.5c0 -36 -12.333 -66.5 -37 -91.5s-55 -37.5 -91 -37.5zM738 1595l-197 331h207l111 -204h17l197 204
h235l-336 -331h-234zM1260 1089l-229.998 -1089h-208l34 155h-17c-32 -53.333 -77.833 -96 -137.5 -128s-128.167 -48 -205.5 -48c-98.667 0 -179.334 29.5 -242.001 88.5s-94 135.167 -94 228.5c0 42 5 88.667 15 140l136 653h218l-131 -618
c-8.66699 -42 -13 -77.333 -13 -106c0 -62.667 17.667 -109.834 53 -141.501s86.666 -47.5 153.999 -47.5c78 0 145.5 24.667 202.5 74s94.167 113.666 111.5 192.999l138 646h216z" />
    <glyph glyph-name="Udieresisgrave" unicode="&#x1db;" horiz-adv-x="1538" 
d="M1174 1901h-199l-210 231h251zM853 1577c-37.333 0 -68.833 12.833 -94.5 38.5s-38.5 57.5 -38.5 95.5s12.833 70 38.5 96s57.167 39 94.5 39c38 0 69.833 -13 95.5 -39s38.5 -58 38.5 -96s-12.833 -69.833 -38.5 -95.5s-57.5 -38.5 -95.5 -38.5zM1280 1577
c-37.333 0 -68.833 12.833 -94.5 38.5s-38.5 57.5 -38.5 95.5s12.833 70 38.5 96s57.167 39 94.5 39c38 0 69.833 -13 95.5 -39s38.5 -58 38.5 -96s-12.833 -69.833 -38.5 -95.5s-57.5 -38.5 -95.5 -38.5zM750 -35c-163.333 0 -291.334 42.834 -384.001 128.501
s-139.667 195.5 -141 329.5c-0.666992 38.667 3.66602 81 12.999 127l187 893h228l-186 -882c-8.66699 -43.333 -12.667 -83.333 -12 -120c2.66699 -82.667 31.334 -147.5 86.001 -194.5s133.334 -70.5 236.001 -70.5c100 0 185 28.667 255 86s116.333 137 139 239l201 942
h227l-210 -992c-33.333 -154.667 -104.333 -274.334 -213 -359.001s-250.667 -127 -426 -127z" />
    <glyph glyph-name="udieresisgrave" unicode="&#x1dc;" horiz-adv-x="1247" 
d="M949 1611h-195l-164 299h228zM625 1241c-37.333 0 -68.833 12.833 -94.5 38.5s-38.5 57.5 -38.5 95.5s12.833 70 38.5 96s57.167 39 94.5 39c38 0 69.833 -13 95.5 -39s38.5 -58 38.5 -96s-12.833 -69.833 -38.5 -95.5s-57.5 -38.5 -95.5 -38.5zM1052 1241
c-37.333 0 -68.833 12.833 -94.5 38.5s-38.5 57.5 -38.5 95.5s12.833 70 38.5 96s57.167 39 94.5 39c38 0 69.833 -13 95.5 -39s38.5 -58 38.5 -96s-12.833 -69.833 -38.5 -95.5s-57.5 -38.5 -95.5 -38.5zM1260 1089l-229.998 -1089h-208l34 155h-17
c-32 -53.333 -77.833 -96 -137.5 -128s-128.167 -48 -205.5 -48c-98.667 0 -179.334 29.5 -242.001 88.5s-94 135.167 -94 228.5c0 42 5 88.667 15 140l136 653h218l-131 -618c-8.66699 -42 -13 -77.333 -13 -106c0 -62.667 17.667 -109.834 53 -141.501
s86.666 -47.5 153.999 -47.5c78 0 145.5 24.667 202.5 74s94.167 113.666 111.5 192.999l138 646h216z" />
    <glyph glyph-name="Adieresismacron" unicode="&#x1de;" horiz-adv-x="1423" 
d="M1062 0l-50 383h-554l-215 -383h-237l836 1443h232l212 -1443h-224zM896 1179l-342 -608h440l-82 608h-16zM716 1960l31 147h700l-31 -147h-700zM803 1577c-36.667 0 -67.5 12.5 -92.5 37.5s-37.5 56.167 -37.5 93.5s12.5 68.666 37.5 93.999s55.833 38 92.5 38
s67.5 -12.667 92.5 -38s37.5 -56.666 37.5 -93.999c0 -36.667 -12.5 -67.667 -37.5 -93s-55.833 -38 -92.5 -38zM1230 1577c-36.667 0 -67.5 12.5 -92.5 37.5s-37.5 56.167 -37.5 93.5s12.5 68.666 37.5 93.999s55.833 38 92.5 38s67.5 -12.667 92.5 -38
s37.5 -56.666 37.5 -93.999s-12.5 -68.5 -37.5 -93.5s-55.833 -37.5 -92.5 -37.5z" />
    <glyph glyph-name="adieresismacron" unicode="&#x1df;" horiz-adv-x="1153" 
d="M506 161c73.333 0 138.499 21.167 195.499 63.5s92.833 95.5 107.5 159.5l25 112l-265 -12c-80 -3.33301 -142.5 -20.5 -187.5 -51.5s-67.5 -71.833 -67.5 -122.5c0 -43.333 17.833 -79 53.5 -107s81.834 -42 138.501 -42zM426.999 -18
c-94 0 -172.332 28.501 -234.999 85.501s-94 128.167 -94 213.5c0 108.667 41.167 194.667 123.5 258s199.166 97.666 350.499 102.999l295 12l15 71c4 20.667 6 36 6 46c0 47.333 -19 84.5 -57 111.5s-90.333 40.5 -157 40.5c-55.333 0 -102.166 -10.167 -140.499 -30.5
s-65.5 -49.833 -81.5 -88.5h-215c23.333 94 76 168.5 158 223.5s180.667 82.5 296 82.5c124 0 223.667 -28.5 299 -85.5s113 -132.5 113 -226.5c0 -30.667 -3 -60 -9 -88l-150 -710h-209l30 139h-17c-36 -48.667 -82.333 -87 -139 -115s-117.334 -42 -182.001 -42zM555 1238
c-36 0 -66.167 12.5 -90.5 37.5s-36.5 55.5 -36.5 91.5c0 36.667 12.167 67.5 36.5 92.5s54.5 37.5 90.5 37.5s66.167 -12.5 90.5 -37.5s36.5 -55.833 36.5 -92.5c0 -36 -12.167 -66.5 -36.5 -91.5s-54.5 -37.5 -90.5 -37.5zM973 1238c-36 0 -66.167 12.5 -90.5 37.5
s-36.5 55.5 -36.5 91.5c0 36.667 12.167 67.5 36.5 92.5s54.5 37.5 90.5 37.5s66.167 -12.5 90.5 -37.5s36.5 -55.833 36.5 -92.5c0 -36 -12.167 -66.5 -36.5 -91.5s-54.5 -37.5 -90.5 -37.5zM1172 1645h-696l32 155h696z" />
    <glyph glyph-name="Adotmacron" unicode="&#x1e0;" horiz-adv-x="1423" 
d="M1062 0l-50 383h-554l-215 -383h-237l836 1443h232l212 -1443h-224zM896 1179l-342 -608h440l-82 608h-16zM1416 1960h-700l31 147h700zM1014 1576c-37.333 0 -68.666 12.667 -93.999 38s-38 56.666 -38 93.999s12.667 68.666 38 93.999s56.666 38 93.999 38
s68.666 -12.667 93.999 -38s38 -56.666 38 -93.999s-12.667 -68.666 -38 -93.999s-56.666 -38 -93.999 -38z" />
    <glyph glyph-name="adotmacron" unicode="&#x1e1;" horiz-adv-x="1153" 
d="M506 161c73.333 0 138.499 21.167 195.499 63.5s92.833 95.5 107.5 159.5l25 112l-265 -12c-80 -3.33301 -142.5 -20.5 -187.5 -51.5s-67.5 -71.833 -67.5 -122.5c0 -43.333 17.833 -79 53.5 -107s81.834 -42 138.501 -42zM426.999 -18
c-94 0 -172.332 28.501 -234.999 85.501s-94 128.167 -94 213.5c0 108.667 41.167 194.667 123.5 258s199.166 97.666 350.499 102.999l295 12l15 71c4 20.667 6 36 6 46c0 47.333 -19 84.5 -57 111.5s-90.333 40.5 -157 40.5c-55.333 0 -102.166 -10.167 -140.499 -30.5
s-65.5 -49.833 -81.5 -88.5h-215c23.333 94 76 168.5 158 223.5s180.667 82.5 296 82.5c124 0 223.667 -28.5 299 -85.5s113 -132.5 113 -226.5c0 -30.667 -3 -60 -9 -88l-150 -710h-209l30 139h-17c-36 -48.667 -82.333 -87 -139 -115s-117.334 -42 -182.001 -42zM762 1238
c-36.667 0 -67.5 12.667 -92.5 38s-37.5 56.666 -37.5 93.999s12.5 68.833 37.5 94.5s55.833 38.5 92.5 38.5c37.333 0 68.5 -12.833 93.5 -38.5s37.5 -57.167 37.5 -94.5s-12.5 -68.666 -37.5 -93.999s-56.167 -38 -93.5 -38zM1172 1645h-696l32 155h696z" />
    <glyph glyph-name="AEmacron" unicode="&#x1e2;" horiz-adv-x="1999" 
d="M1197 1253h-141l-427 -647h429zM928 0l92 417h-505l-280 -417h-230l938 1443h1163l-42 -204h-655l-91 -415h619l-40 -195h-618l-95 -425h656l-41 -204h-871zM1846 1625h-699l32 156h699z" />
    <glyph glyph-name="aemacron" unicode="&#x1e3;" horiz-adv-x="1893" 
d="M1281 -21c-83.333 0 -161.171 20.498 -233.504 61.498s-122.833 94.833 -151.5 161.5h-16c-39.333 -63.333 -96.833 -116.333 -172.5 -159s-157.167 -64 -244.5 -64c-106.667 0 -194.167 29 -262.5 87s-102.5 130.333 -102.5 217c0 110.667 41 197.334 123 260.001
s199.333 96.667 352 102l294 12l16 68c3.33301 16.667 5 32 5 46c0 47.333 -18.833 84.5 -56.5 111.5s-89.834 40.5 -156.501 40.5c-115.333 0 -189.333 -39.667 -222 -119h-216c24 94.667 76.5 169.334 157.5 224.001s179.167 82 294.5 82c80 0 150 -14.167 210 -42.5
s104.333 -68.5 133 -120.5h17c94 108.667 215 163 363 163c120 0 220.833 -40.5 302.5 -121.5s122.834 -189.5 123.501 -325.5c0 -56 -5 -112.667 -15 -170h-774c-1.33301 -18.667 -2 -33.667 -2 -45c0 -48 7.33301 -90.5 22 -127.5s34.334 -66.333 59.001 -88
s51.834 -38 81.501 -49s61.167 -16.5 94.5 -16.5c122.667 0 206.334 42 251.001 126h218c-23.333 -93.333 -78.666 -169 -165.999 -227s-196 -87 -326 -87zM1075 650.998h547c1.33301 8 2 22.333 2 43c0 66.667 -20.333 122.167 -61 166.5s-97 66.5 -169 66.5
c-76 0 -142.333 -25 -199 -75s-96.667 -117 -120 -201zM505.995 157.998c74 0 139.5 21.5 196.5 64.5s92.833 96.833 107.5 161.5l25 112l-266 -12c-80 -3.33301 -142.5 -20.333 -187.5 -51s-67.5 -71.667 -67.5 -123c0 -44 18 -80.333 54 -109s82 -43 138 -43zM1437 1299
h-696l32 155h696z" />
    <glyph glyph-name="Gcaron" unicode="&#x1e6;" horiz-adv-x="1542" 
d="M879 1582l-185 314h208l101 -188h16l179 188h232l-317 -314h-234zM1506 747l-40 -191c-39.333 -192 -117.666 -338.5 -234.999 -439.5s-267.333 -151.5 -450 -151.5c-175.333 0 -316.833 55.167 -424.5 165.5s-161.5 255.833 -161.5 436.5
c0 174.667 33 331.334 99 470.001s157.667 246.834 275 324.501s249.666 116.5 396.999 116.5c153.333 0 282.833 -43.333 388.5 -130s162.167 -196 169.5 -328c0.666992 -5.33301 1 -17 1 -35h-223c-6 85.333 -41 153.666 -105 204.999s-146.333 77 -247 77
c-98 0 -187 -29.5 -267 -88.5s-142.833 -140.5 -188.5 -244.5s-68.5 -219.667 -68.5 -347c0 -126.667 34.167 -226.834 102.5 -300.501s161.5 -110.5 279.5 -110.5c107.333 0 200 31.167 278 93.5s127.667 144.833 149 247.5l9 42h-367l39 188h590z" />
    <glyph glyph-name="gcaron" unicode="&#x1e7;" horiz-adv-x="1276" 
d="M910 1238h-234l-206 346h208l120 -219h16l214 219h235zM513 -415c-131.333 0 -239.666 30.665 -324.999 91.998s-130 137 -134 227h221c6.66699 -41.333 32.5 -75.5 77.5 -102.5s103.5 -40.5 175.5 -40.5c86 0 154.5 19.333 205.5 58s84.5 92.334 100.5 161.001l46 197
l-17 1c-76 -106.667 -184.333 -160 -325 -160c-111.333 0 -204 39.5 -278 118.5s-111 181.167 -111 306.5c0 126 23.667 239.833 71 341.5s112.166 180.834 194.499 237.501s173.833 85 274.5 85c76 0 145.167 -20 207.5 -60s103.833 -91.333 124.5 -154h17l42 196h209
l-245 -1138c-24 -114 -82.5 -203.5 -175.5 -268.5s-211.5 -97.5 -355.5 -97.5zM617 197.998c101.333 0 185.833 41.8311 253.5 125.498s101.5 189.834 101.5 318.501c0 82.667 -23 148.334 -69 197.001s-107.667 73 -185 73c-100.667 0 -183.5 -40.333 -248.5 -121
s-97.5 -186.334 -97.5 -317.001c0 -85.333 22 -152.666 66 -201.999s103.667 -74 179 -74z" />
    <glyph glyph-name="Kcaron" unicode="&#x1e8;" horiz-adv-x="1387" 
d="M338 0h-223l307 1443h223l-145 -672h17l731 672h279l-690 -643l425 -800h-257l-349 657l-216 -194zM833 1582l-185 314h208l101 -188h16l179 188h232l-317 -314h-234z" />
    <glyph glyph-name="kcaron" unicode="&#x1e9;" horiz-adv-x="1152" 
d="M470 660l510 429h268l-552 -472l350 -617h-244l-280 490l-123 -94l-85 -396h-217l322 1514h216l-182 -854h17zM405 1653l-185 314h208l101 -188h16l179 188h232l-317 -314h-234z" />
    <glyph glyph-name="Oogonek" unicode="&#x1ea;" horiz-adv-x="1596" 
d="M986 -443c-74 0 -132.002 17.665 -174.002 52.998s-63 84.333 -63 147c0 35.333 9.16699 70.333 27.5 105s43.5 65 75.5 91l-1 17c-12.667 -2.66699 -34.334 -4 -65.001 -4c-112.667 1.33301 -214 27.833 -304 79.5s-160.333 123.334 -211 215.001s-76 194.5 -76 308.5
c0 172.667 33.833 328.334 101.5 467.001s161.334 247.167 281.001 325.5s253.834 117.5 402.501 117.5c174 0 316.833 -56.5 428.5 -169.5s167.5 -257.833 167.5 -434.5c0 -346 -136.667 -616.333 -410 -811c-81.333 -60 -140.5 -109.833 -177.5 -149.5
s-55.5 -77.834 -55.5 -114.501c0 -31.333 10.667 -55.166 32 -71.499s52.333 -24.5 93 -24.5c21.333 0 36 1 44 3l-28 -140c-21.333 -6.66699 -50.666 -10 -87.999 -10zM1343 855.998c0 122.667 -34.668 221.834 -104.001 297.501s-160.333 113.5 -273 113.5
c-100 0 -191.167 -29.833 -273.5 -89.5s-146.833 -141.5 -193.5 -245.5s-70 -219 -70 -345c0 -122.667 34.833 -221.834 104.5 -297.501s161.167 -113.5 274.5 -113.5c100.667 0 191.834 29.5 273.501 88.5s145.667 140.333 192 244s69.5 219.5 69.5 347.5z" />
    <glyph glyph-name="oogonek" unicode="&#x1eb;" horiz-adv-x="1238" 
d="M735 -443c-74 0 -132.002 17.665 -174.002 52.998s-63 84.333 -63 147c0 36.667 10.833 73.667 32.5 111s49.5 69 83.5 95l-1 16h-14c-134.667 2.66699 -243.5 46.334 -326.5 131.001s-124.5 195 -124.5 331c0 128 25.167 243 75.5 345s120.5 181.5 210.5 238.5
s191.333 85.5 304 85.5c136.667 0 247 -42.333 331 -127s126 -196 126 -334c0 -130.667 -28 -249.5 -84 -356.5s-132 -188.167 -228 -243.5c-59.333 -35.333 -107.666 -75.666 -144.999 -120.999s-56 -88.333 -56 -129c0 -30.667 10.667 -54.167 32 -70.5
s52.333 -24.5 93 -24.5c21.333 0 36 1 44 3l-28 -140c-21.333 -6.66699 -50.666 -10 -87.999 -10zM373.998 455.998c0 -86.667 23.002 -155.832 69.002 -207.499s107.667 -77.5 185 -77.5c93.333 0 173.333 43.833 240 131.5s100 193.167 100 316.5
c0 93.333 -21.833 166.666 -65.5 219.999s-103.834 80 -180.501 80c-102.667 0 -186.334 -43.167 -251.001 -129.5s-97 -197.5 -97 -333.5z" />
    <glyph glyph-name="Oogonekmacron" unicode="&#x1ec;" horiz-adv-x="1596" 
d="M986 -443c-74 0 -132.002 17.665 -174.002 52.998s-63 84.333 -63 147c0 35.333 9.16699 70.333 27.5 105s43.5 65 75.5 91l-1 17c-12.667 -2.66699 -34.334 -4 -65.001 -4c-112.667 1.33301 -214 27.833 -304 79.5s-160.333 123.334 -211 215.001s-76 194.5 -76 308.5
c0 172.667 33.833 328.334 101.5 467.001s161.334 247.167 281.001 325.5s253.834 117.5 402.501 117.5c174 0 316.833 -56.5 428.5 -169.5s167.5 -257.833 167.5 -434.5c0 -346 -136.667 -616.333 -410 -811c-81.333 -60 -140.5 -109.833 -177.5 -149.5
s-55.5 -77.834 -55.5 -114.501c0 -31.333 10.667 -55.166 32 -71.499s52.333 -24.5 93 -24.5c21.333 0 36 1 44 3l-28 -140c-21.333 -6.66699 -50.666 -10 -87.999 -10zM1343 855.998c0 122.667 -34.668 221.834 -104.001 297.501s-160.333 113.5 -273 113.5
c-100 0 -191.167 -29.833 -273.5 -89.5s-146.833 -141.5 -193.5 -245.5s-70 -219 -70 -345c0 -122.667 34.833 -221.834 104.5 -297.501s161.167 -113.5 274.5 -113.5c100.667 0 191.834 29.5 273.501 88.5s145.667 140.333 192 244s69.5 219.5 69.5 347.5zM1364 1623h-699
l32 156h699z" />
    <glyph glyph-name="oogonekmacron" unicode="&#x1ed;" horiz-adv-x="1238" 
d="M1126 1299h-696l32 155h696zM735 -443c-74 0 -132.002 17.665 -174.002 52.998s-63 84.333 -63 147c0 36.667 10.833 73.667 32.5 111s49.5 69 83.5 95l-1 16h-14c-134.667 2.66699 -243.5 46.334 -326.5 131.001s-124.5 195 -124.5 331c0 128 25.167 243 75.5 345
s120.5 181.5 210.5 238.5s191.333 85.5 304 85.5c136.667 0 247 -42.333 331 -127s126 -196 126 -334c0 -130.667 -28 -249.5 -84 -356.5s-132 -188.167 -228 -243.5c-59.333 -35.333 -107.666 -75.666 -144.999 -120.999s-56 -88.333 -56 -129
c0 -30.667 10.667 -54.167 32 -70.5s52.333 -24.5 93 -24.5c21.333 0 36 1 44 3l-28 -140c-21.333 -6.66699 -50.666 -10 -87.999 -10zM373.998 455.998c0 -86.667 23.002 -155.832 69.002 -207.499s107.667 -77.5 185 -77.5c93.333 0 173.333 43.833 240 131.5
s100 193.167 100 316.5c0 93.333 -21.833 166.666 -65.5 219.999s-103.834 80 -180.501 80c-102.667 0 -186.334 -43.167 -251.001 -129.5s-97 -197.5 -97 -333.5z" />
    <glyph glyph-name="u01F1" unicode="&#x1f1;" horiz-adv-x="2874" 
d="M1584 0l32 161l1000 1061l3 17h-746l41 204h1041l-32 -161l-998 -1061l-2 -17h785l-41 -204h-1083zM422 1443l442 -0.000976562c194 0 345 -54.167 453 -162.5s162 -258.166 162 -449.499c0 -156.667 -32.5 -298.5 -97.5 -425.5s-154.667 -226.333 -269 -298
s-241.833 -107.5 -382.5 -107.5h-614zM609 1241l-226 -1039h342c150.667 0 275.5 57.333 374.5 172s148.5 260.334 148.5 437.001c0 134.667 -36.667 240 -110 316s-176 114 -308 114h-221z" />
    <glyph glyph-name="u01F2" unicode="&#x1f2;" horiz-adv-x="2632" 
d="M1574 0l30 146l737 744l2 17h-571l38 182h852l-34 -157l-719 -733l-3 -17h567l-37 -182h-862zM422 1443l442 -0.000976562c194 0 345 -54.167 453 -162.5s162 -258.166 162 -449.499c0 -156.667 -32.5 -298.5 -97.5 -425.5s-154.667 -226.333 -269 -298
s-241.833 -107.5 -382.5 -107.5h-614zM609 1241l-226 -1039h342c150.667 0 275.5 57.333 374.5 172s148.5 260.334 148.5 437.001c0 134.667 -36.667 240 -110 316s-176 114 -308 114h-221z" />
    <glyph glyph-name="u01F3" unicode="&#x1f3;" horiz-adv-x="2410" 
d="M1352 0l30 146l737 744l2 17h-571l38 182h852l-34 -157l-719 -733l-3 -17h567l-37 -182h-862zM533 -18c-111.333 0 -204 39.501 -278 118.501s-111 184.167 -111 315.5c0 130.667 24.667 249 74 355s116.5 188.5 201.5 247.5s178.833 88.5 281.5 88.5
c78.667 0 147 -19.667 205 -59s96.333 -90.333 115 -153h17l131 619h218l-322 -1514h-208l32 150h-17c-39.333 -52.667 -88.5 -93.834 -147.5 -123.501s-122.833 -44.5 -191.5 -44.5zM615 174.001c102.667 0 189.167 45.332 259.5 135.999s105.5 201.334 105.5 332.001
c0 84 -22.667 150 -68 198s-106 72 -182 72c-102.667 0 -188.667 -43.5 -258 -130.5s-104 -196.833 -104 -329.5c0 -83.333 22.833 -150.5 68.5 -201.5s105.167 -76.5 178.5 -76.5z" />
    <glyph glyph-name="Gacute" unicode="&#x1f4;" horiz-adv-x="1542" 
d="M874 1582l362 306h258l-390 -306h-230zM1506 747l-40 -191c-39.333 -192 -117.666 -338.5 -234.999 -439.5s-267.333 -151.5 -450 -151.5c-175.333 0 -316.833 55.167 -424.5 165.5s-161.5 255.833 -161.5 436.5c0 174.667 33 331.334 99 470.001
s157.667 246.834 275 324.501s249.666 116.5 396.999 116.5c153.333 0 282.833 -43.333 388.5 -130s162.167 -196 169.5 -328c0.666992 -5.33301 1 -17 1 -35h-223c-6 85.333 -41 153.666 -105 204.999s-146.333 77 -247 77c-98 0 -187 -29.5 -267 -88.5
s-142.833 -140.5 -188.5 -244.5s-68.5 -219.667 -68.5 -347c0 -126.667 34.167 -226.834 102.5 -300.501s161.5 -110.5 279.5 -110.5c107.333 0 200 31.167 278 93.5s127.667 144.833 149 247.5l9 42h-367l39 188h590z" />
    <glyph glyph-name="gacute" unicode="&#x1f5;" horiz-adv-x="1276" 
d="M665 1271l324 344h252l-354 -344h-222zM513 -415c-131.333 0 -239.666 30.665 -324.999 91.998s-130 137 -134 227h221c6.66699 -41.333 32.5 -75.5 77.5 -102.5s103.5 -40.5 175.5 -40.5c86 0 154.5 19.333 205.5 58s84.5 92.334 100.5 161.001l46 197l-17 1
c-76 -106.667 -184.333 -160 -325 -160c-111.333 0 -204 39.5 -278 118.5s-111 181.167 -111 306.5c0 126 23.667 239.833 71 341.5s112.166 180.834 194.499 237.501s173.833 85 274.5 85c76 0 145.167 -20 207.5 -60s103.833 -91.333 124.5 -154h17l42 196h209l-245 -1138
c-24 -114 -82.5 -203.5 -175.5 -268.5s-211.5 -97.5 -355.5 -97.5zM617 197.998c101.333 0 185.833 41.8311 253.5 125.498s101.5 189.834 101.5 318.501c0 82.667 -23 148.334 -69 197.001s-107.667 73 -185 73c-100.667 0 -183.5 -40.333 -248.5 -121
s-97.5 -186.334 -97.5 -317.001c0 -85.333 22 -152.666 66 -201.999s103.667 -74 179 -74z" />
    <glyph glyph-name="Ngrave" unicode="&#x1f8;" horiz-adv-x="1539" 
d="M960 1888l181 -306h-213l-210 306h242zM337 0h-222l307 1443h196l514 -1055h17l229 1055h223l-307 -1443h-198l-514 1051h-17z" />
    <glyph glyph-name="ngrave" unicode="&#x1f9;" horiz-adv-x="1247" 
d="M885 1273h-216l-222 344h247zM88 0l231.002 1093h209l-35 -167h17c36.667 55.333 83.667 99.833 141 133.5s123.666 50.5 198.999 50.5c101.333 0 183.666 -31.167 246.999 -93.5s95 -138.5 95 -228.5c0 -40 -5 -82.333 -15 -127l-139 -661h-217l132 623
c8 36 12 68 12 96c0 58.667 -19.667 106.167 -59 142.5s-92 54.5 -158 54.5c-75.333 0 -140.5 -24 -195.5 -72s-90.833 -110 -107.5 -186l-140 -658h-217z" />
    </font>
</defs>
</svg>
